%TF.GenerationSoftware,KiCad,Pcbnew,(6.0.5)*%
%TF.CreationDate,2022-06-16T15:32:05-04:00*%
%TF.ProjectId,pq-cdh,70712d63-6468-42e6-9b69-6361645f7063,V0.2.0*%
%TF.SameCoordinates,Original*%
%TF.FileFunction,Copper,L1,Top*%
%TF.FilePolarity,Positive*%
%FSLAX46Y46*%
G04 Gerber Fmt 4.6, Leading zero omitted, Abs format (unit mm)*
G04 Created by KiCad (PCBNEW (6.0.5)) date 2022-06-16 15:32:05*
%MOMM*%
%LPD*%
G01*
G04 APERTURE LIST*
%TA.AperFunction,ComponentPad*%
%ADD10C,1.540000*%
%TD*%
%TA.AperFunction,SMDPad,CuDef*%
%ADD11R,0.800000X1.000000*%
%TD*%
%TA.AperFunction,SMDPad,CuDef*%
%ADD12R,0.940000X0.750000*%
%TD*%
%TA.AperFunction,SMDPad,CuDef*%
%ADD13R,0.900000X1.000000*%
%TD*%
%TA.AperFunction,ComponentPad*%
%ADD14C,2.540000*%
%TD*%
%TA.AperFunction,TestPad*%
%ADD15C,0.454000*%
%TD*%
%TA.AperFunction,SMDPad,CuDef*%
%ADD16R,0.750000X0.940000*%
%TD*%
%TA.AperFunction,SMDPad,CuDef*%
%ADD17R,1.475000X0.300000*%
%TD*%
%TA.AperFunction,SMDPad,CuDef*%
%ADD18R,0.300000X1.475000*%
%TD*%
%TA.AperFunction,SMDPad,CuDef*%
%ADD19R,1.000000X0.800000*%
%TD*%
%TA.AperFunction,SMDPad,CuDef*%
%ADD20R,1.800000X1.000000*%
%TD*%
%TA.AperFunction,SMDPad,CuDef*%
%ADD21R,0.800000X0.800000*%
%TD*%
%TA.AperFunction,SMDPad,CuDef*%
%ADD22R,1.785000X0.650000*%
%TD*%
%TA.AperFunction,SMDPad,CuDef*%
%ADD23R,1.100000X1.300000*%
%TD*%
%TA.AperFunction,SMDPad,CuDef*%
%ADD24R,2.300000X6.400000*%
%TD*%
%TA.AperFunction,ViaPad*%
%ADD25C,0.457200*%
%TD*%
%TA.AperFunction,Conductor*%
%ADD26C,0.127000*%
%TD*%
G04 APERTURE END LIST*
D10*
%TO.P,J1,1,Pin_1*%
%TO.N,VDD*%
X174050000Y-116890000D03*
%TO.P,J1,2,Pin_2*%
%TO.N,GND*%
X174050000Y-119430000D03*
%TO.P,J1,3,Pin_3*%
%TO.N,/SWDIO*%
X174050000Y-121970000D03*
%TO.P,J1,4,Pin_4*%
%TO.N,/SWCLK*%
X174050000Y-124510000D03*
%TD*%
D11*
%TO.P,R5,1*%
%TO.N,/VDD_FILT*%
X166800000Y-90900000D03*
%TO.P,R5,2*%
%TO.N,/SPI1_NSS*%
X165200000Y-90900000D03*
%TD*%
D10*
%TO.P,J5,1,Pin_1*%
%TO.N,unconnected-(J5-Pad1)*%
X135950000Y-88950000D03*
%TO.P,J5,2,Pin_2*%
%TO.N,unconnected-(J5-Pad2)*%
X138490000Y-88950000D03*
%TO.P,J5,3,Pin_3*%
%TO.N,GND*%
X141030000Y-88950000D03*
%TO.P,J5,4,Pin_4*%
%TO.N,unconnected-(J5-Pad4)*%
X143570000Y-88950000D03*
%TO.P,J5,5,Pin_5*%
%TO.N,unconnected-(J5-Pad5)*%
X146110000Y-88950000D03*
%TO.P,J5,6,Pin_6*%
%TO.N,unconnected-(J5-Pad6)*%
X148650000Y-88950000D03*
%TO.P,J5,7,Pin_7*%
%TO.N,/NRST*%
X151190000Y-88950000D03*
%TO.P,J5,8,Pin_8*%
%TO.N,/USART1_CK*%
X153730000Y-88950000D03*
%TO.P,J5,9,Pin_9*%
%TO.N,/USART1_CTS*%
X156270000Y-88950000D03*
%TO.P,J5,10,Pin_10*%
%TO.N,/USART1_TX*%
X158810000Y-88950000D03*
%TO.P,J5,11,Pin_11*%
%TO.N,/USART1_RX*%
X161350000Y-88950000D03*
%TO.P,J5,12,Pin_12*%
%TO.N,/USART1_RTS*%
X163890000Y-88950000D03*
%TO.P,J5,13,Pin_13*%
%TO.N,unconnected-(J5-Pad13)*%
X166430000Y-88950000D03*
%TO.P,J5,14,Pin_14*%
%TO.N,unconnected-(J5-Pad14)*%
X168970000Y-88950000D03*
%TO.P,J5,15,Pin_15*%
%TO.N,unconnected-(J5-Pad15)*%
X171510000Y-88950000D03*
%TO.P,J5,16,Pin_16*%
%TO.N,unconnected-(J5-Pad16)*%
X174050000Y-88950000D03*
%TD*%
D12*
%TO.P,C2,1*%
%TO.N,/VDD_FILT*%
X142560000Y-99860000D03*
%TO.P,C2,2*%
%TO.N,GND*%
X142560000Y-98460000D03*
%TD*%
D13*
%TO.P,FB1,1,1*%
%TO.N,VDD*%
X171360000Y-116890000D03*
%TO.P,FB1,2,2*%
%TO.N,/VDD_FILT*%
X169760000Y-116890000D03*
%TD*%
D14*
%TO.P,J6,1,Pin_1*%
%TO.N,GND*%
X174080000Y-113060000D03*
%TO.P,J6,2,Pin_2*%
X136160000Y-113060000D03*
%TO.P,J6,3,Pin_3*%
X174080000Y-102900000D03*
%TO.P,J6,4,Pin_4*%
X136160000Y-102900000D03*
%TD*%
D15*
%TO.P,TP,3*%
%TO.N,Net-(C12-Pad1)*%
X159400000Y-112640000D03*
%TD*%
D16*
%TO.P,C10,1*%
%TO.N,Net-(C10-Pad1)*%
X161130000Y-106495000D03*
%TO.P,C10,2*%
%TO.N,GND*%
X162530000Y-106495000D03*
%TD*%
D17*
%TO.P,IC1,1,VBAT*%
%TO.N,/VBAT*%
X152048000Y-111710000D03*
%TO.P,IC1,2,PC13*%
%TO.N,unconnected-(IC1-Pad2)*%
X152048000Y-111210000D03*
%TO.P,IC1,3,PC14-OSC32_IN*%
%TO.N,Net-(C13-Pad1)*%
X152048000Y-110710000D03*
%TO.P,IC1,4,PC15-OSC32_OUT*%
%TO.N,Net-(C12-Pad1)*%
X152048000Y-110210000D03*
%TO.P,IC1,5,PH0-OSC_IN*%
%TO.N,Net-(C11-Pad1)*%
X152048000Y-109710000D03*
%TO.P,IC1,6,PH1-OSC_OUT*%
%TO.N,Net-(C10-Pad1)*%
X152048000Y-109210000D03*
%TO.P,IC1,7,NRST*%
%TO.N,/NRST*%
X152048000Y-108710000D03*
%TO.P,IC1,8,PC0*%
%TO.N,/SCL3*%
X152048000Y-108210000D03*
%TO.P,IC1,9,PC1*%
%TO.N,/SDA3*%
X152048000Y-107710000D03*
%TO.P,IC1,10,PC2*%
%TO.N,/IO1_WP*%
X152048000Y-107210000D03*
%TO.P,IC1,11,PC3*%
%TO.N,/IO2_HR*%
X152048000Y-106710000D03*
%TO.P,IC1,12,VSSA/VREF-*%
%TO.N,GND*%
X152048000Y-106210000D03*
%TO.P,IC1,13,VDDA/VREF+*%
%TO.N,/VDD_FILT*%
X152048000Y-105710000D03*
%TO.P,IC1,14,PA0*%
%TO.N,unconnected-(IC1-Pad14)*%
X152048000Y-105210000D03*
%TO.P,IC1,15,PA1*%
%TO.N,unconnected-(IC1-Pad15)*%
X152048000Y-104710000D03*
%TO.P,IC1,16,PA2*%
%TO.N,unconnected-(IC1-Pad16)*%
X152048000Y-104210000D03*
D18*
%TO.P,IC1,17,PA3*%
%TO.N,unconnected-(IC1-Pad17)*%
X150060000Y-102222000D03*
%TO.P,IC1,18,VSS_1*%
%TO.N,GND*%
X149560000Y-102222000D03*
%TO.P,IC1,19,VDD_1*%
%TO.N,/VDD_FILT*%
X149060000Y-102222000D03*
%TO.P,IC1,20,PA4*%
%TO.N,/DCMI_HSYNC*%
X148560000Y-102222000D03*
%TO.P,IC1,21,PA5*%
%TO.N,unconnected-(IC1-Pad21)*%
X148060000Y-102222000D03*
%TO.P,IC1,22,PA6*%
%TO.N,/DCMI_PIXCLK*%
X147560000Y-102222000D03*
%TO.P,IC1,23,PA7*%
%TO.N,unconnected-(IC1-Pad23)*%
X147060000Y-102222000D03*
%TO.P,IC1,24,PC4*%
%TO.N,unconnected-(IC1-Pad24)*%
X146560000Y-102222000D03*
%TO.P,IC1,25,PC5*%
%TO.N,unconnected-(IC1-Pad25)*%
X146060000Y-102222000D03*
%TO.P,IC1,26,PB0*%
%TO.N,/SPI1_NSS*%
X145560000Y-102222000D03*
%TO.P,IC1,27,PB1*%
%TO.N,/AIN16*%
X145060000Y-102222000D03*
%TO.P,IC1,28,PB2*%
%TO.N,unconnected-(IC1-Pad28)*%
X144560000Y-102222000D03*
%TO.P,IC1,29,PB10*%
%TO.N,/LPUART_RX*%
X144060000Y-102222000D03*
%TO.P,IC1,30,PB11*%
%TO.N,/LPUART_TX*%
X143560000Y-102222000D03*
%TO.P,IC1,31,VSS_2*%
%TO.N,GND*%
X143060000Y-102222000D03*
%TO.P,IC1,32,VDD_2*%
%TO.N,/VDD_FILT*%
X142560000Y-102222000D03*
D17*
%TO.P,IC1,33,PB12*%
%TO.N,/LPUART_RTS*%
X140572000Y-104210000D03*
%TO.P,IC1,34,PB13*%
%TO.N,/LPUART_CTS*%
X140572000Y-104710000D03*
%TO.P,IC1,35,PB14*%
%TO.N,unconnected-(IC1-Pad35)*%
X140572000Y-105210000D03*
%TO.P,IC1,36,PB15*%
%TO.N,unconnected-(IC1-Pad36)*%
X140572000Y-105710000D03*
%TO.P,IC1,37,PC6*%
%TO.N,/DCMI_D0*%
X140572000Y-106210000D03*
%TO.P,IC1,38,PC7*%
%TO.N,/DCMI_D1*%
X140572000Y-106710000D03*
%TO.P,IC1,39,PC8*%
%TO.N,/DCMI_D2*%
X140572000Y-107210000D03*
%TO.P,IC1,40,PC9*%
%TO.N,/DCMI_D3*%
X140572000Y-107710000D03*
%TO.P,IC1,41,PA8*%
%TO.N,/USART1_CK*%
X140572000Y-108210000D03*
%TO.P,IC1,42,PA9*%
%TO.N,/USART1_TX*%
X140572000Y-108710000D03*
%TO.P,IC1,43,PA10*%
%TO.N,/USART1_RX*%
X140572000Y-109210000D03*
%TO.P,IC1,44,PA11*%
%TO.N,/USART1_CTS*%
X140572000Y-109710000D03*
%TO.P,IC1,45,PA12*%
%TO.N,/USART1_RTS*%
X140572000Y-110210000D03*
%TO.P,IC1,46,PA13*%
%TO.N,/SWDIO*%
X140572000Y-110710000D03*
%TO.P,IC1,47,VSS_3*%
%TO.N,GND*%
X140572000Y-111210000D03*
%TO.P,IC1,48,VDDUSB*%
%TO.N,/VDD_FILT*%
X140572000Y-111710000D03*
D18*
%TO.P,IC1,49,PA14*%
%TO.N,/SWCLK*%
X142560000Y-113698000D03*
%TO.P,IC1,50,PA15*%
%TO.N,/IO3*%
X143060000Y-113698000D03*
%TO.P,IC1,51,PC10*%
%TO.N,/LED1*%
X143560000Y-113698000D03*
%TO.P,IC1,52,PC11*%
%TO.N,/DCMI_D4*%
X144060000Y-113698000D03*
%TO.P,IC1,53,PC12*%
%TO.N,/LED2*%
X144560000Y-113698000D03*
%TO.P,IC1,54,PD2*%
%TO.N,/IO4*%
X145060000Y-113698000D03*
%TO.P,IC1,55,PB3*%
%TO.N,/SPI1_SCK*%
X145560000Y-113698000D03*
%TO.P,IC1,56,PB4*%
%TO.N,/SPI1_MISO*%
X146060000Y-113698000D03*
%TO.P,IC1,57,PB5*%
%TO.N,/SPI1_MOSI*%
X146560000Y-113698000D03*
%TO.P,IC1,58,PB6*%
%TO.N,/DCMI_D5*%
X147060000Y-113698000D03*
%TO.P,IC1,59,PB7*%
%TO.N,/DCMI_VSYNC*%
X147560000Y-113698000D03*
%TO.P,IC1,60,PH3-BOOT0*%
%TO.N,Net-(IC1-Pad60)*%
X148060000Y-113698000D03*
%TO.P,IC1,61,PB8*%
%TO.N,/DCMI_D6*%
X148560000Y-113698000D03*
%TO.P,IC1,62,PB9*%
%TO.N,/DCMI_D7*%
X149060000Y-113698000D03*
%TO.P,IC1,63,VSS_4*%
%TO.N,GND*%
X149560000Y-113698000D03*
%TO.P,IC1,64,VDD_3*%
%TO.N,/VDD_FILT*%
X150060000Y-113698000D03*
%TD*%
D16*
%TO.P,C11,1*%
%TO.N,Net-(C11-Pad1)*%
X161130000Y-109715000D03*
%TO.P,C11,2*%
%TO.N,GND*%
X162530000Y-109715000D03*
%TD*%
D10*
%TO.P,J7,1,Pin_1*%
%TO.N,/DCMI_D0*%
X168970000Y-114350000D03*
%TO.P,J7,2,Pin_2*%
%TO.N,/DCMI_D1*%
X166430000Y-114350000D03*
%TO.P,J7,3,Pin_3*%
%TO.N,/DCMI_D2*%
X168970000Y-111810000D03*
%TO.P,J7,4,Pin_4*%
%TO.N,/DCMI_D3*%
X166430000Y-111810000D03*
%TO.P,J7,5,Pin_5*%
%TO.N,/DCMI_D4*%
X168970000Y-109270000D03*
%TO.P,J7,6,Pin_6*%
%TO.N,/DCMI_D5*%
X166430000Y-109270000D03*
%TO.P,J7,7,Pin_7*%
%TO.N,/DCMI_D6*%
X168970000Y-106730000D03*
%TO.P,J7,8,Pin_8*%
%TO.N,/DCMI_D7*%
X166430000Y-106730000D03*
%TO.P,J7,9,Pin_9*%
%TO.N,unconnected-(J7-Pad9)*%
X168970000Y-104190000D03*
%TO.P,J7,10,Pin_10*%
%TO.N,/DCMI_PIXCLK*%
X166430000Y-104190000D03*
%TO.P,J7,11,Pin_11*%
%TO.N,/DCMI_HSYNC*%
X168970000Y-101650000D03*
%TO.P,J7,12,Pin_12*%
%TO.N,/DCMI_VSYNC*%
X166430000Y-101650000D03*
%TD*%
%TO.P,J8,1,Pin_1*%
%TO.N,unconnected-(J8-Pad1)*%
X135950000Y-116890000D03*
%TO.P,J8,2,Pin_2*%
%TO.N,GND*%
X135950000Y-119430000D03*
%TO.P,J8,3,Pin_3*%
%TO.N,unconnected-(J8-Pad3)*%
X135950000Y-121970000D03*
%TO.P,J8,4,Pin_4*%
%TO.N,unconnected-(J8-Pad4)*%
X135950000Y-124510000D03*
%TD*%
D19*
%TO.P,R2,1*%
%TO.N,/LED2*%
X147910000Y-117360000D03*
%TO.P,R2,2*%
%TO.N,Net-(LED2-Pad2)*%
X147910000Y-118960000D03*
%TD*%
D12*
%TO.P,C3,1*%
%TO.N,/VDD_FILT*%
X149060000Y-99860000D03*
%TO.P,C3,2*%
%TO.N,GND*%
X149060000Y-98460000D03*
%TD*%
D20*
%TO.P,Y2,1,1*%
%TO.N,Net-(C13-Pad1)*%
X156920000Y-115210000D03*
%TO.P,Y2,2,2*%
%TO.N,Net-(C12-Pad1)*%
X156920000Y-112660000D03*
%TD*%
D15*
%TO.P,TP,2*%
%TO.N,Net-(C11-Pad1)*%
X159400000Y-109700000D03*
%TD*%
D10*
%TO.P,J4,1,Pin_1*%
%TO.N,unconnected-(J4-Pad1)*%
X135950000Y-91490000D03*
%TO.P,J4,2,Pin_2*%
%TO.N,unconnected-(J4-Pad2)*%
X135950000Y-94030000D03*
%TO.P,J4,3,Pin_3*%
%TO.N,GND*%
X135950000Y-96570000D03*
%TO.P,J4,4,Pin_4*%
%TO.N,unconnected-(J4-Pad4)*%
X135950000Y-99110000D03*
%TD*%
D15*
%TO.P,TP,1*%
%TO.N,Net-(C10-Pad1)*%
X159400000Y-106500000D03*
%TD*%
D16*
%TO.P,C12,1*%
%TO.N,Net-(C12-Pad1)*%
X161130000Y-112660000D03*
%TO.P,C12,2*%
%TO.N,GND*%
X162530000Y-112660000D03*
%TD*%
D10*
%TO.P,J2,1,Pin_1*%
%TO.N,/SDA3*%
X135950000Y-127050000D03*
%TO.P,J2,2,Pin_2*%
%TO.N,/SCL3*%
X138490000Y-127050000D03*
%TO.P,J2,3,Pin_3*%
%TO.N,/AIN16*%
X141030000Y-127050000D03*
%TO.P,J2,4,Pin_4*%
%TO.N,/IO3*%
X143570000Y-127050000D03*
%TO.P,J2,5,Pin_5*%
%TO.N,/IO4*%
X146110000Y-127050000D03*
%TO.P,J2,6,Pin_6*%
%TO.N,unconnected-(J2-Pad6)*%
X148650000Y-127050000D03*
%TO.P,J2,7,Pin_7*%
%TO.N,unconnected-(J2-Pad7)*%
X151190000Y-127050000D03*
%TO.P,J2,8,Pin_8*%
%TO.N,/BOOT0*%
X153730000Y-127050000D03*
%TO.P,J2,9,Pin_9*%
%TO.N,/LPUART_CTS*%
X156270000Y-127050000D03*
%TO.P,J2,10,Pin_10*%
%TO.N,/LPUART_TX*%
X158810000Y-127050000D03*
%TO.P,J2,11,Pin_11*%
%TO.N,/LPUART_RX*%
X161350000Y-127050000D03*
%TO.P,J2,12,Pin_12*%
%TO.N,/LPUART_RTS*%
X163890000Y-127050000D03*
%TO.P,J2,13,Pin_13*%
%TO.N,unconnected-(J2-Pad13)*%
X166430000Y-127050000D03*
%TO.P,J2,14,Pin_14*%
%TO.N,unconnected-(J2-Pad14)*%
X168970000Y-127050000D03*
%TO.P,J2,15,Pin_15*%
%TO.N,unconnected-(J2-Pad15)*%
X171510000Y-127050000D03*
%TO.P,J2,16,Pin_16*%
%TO.N,unconnected-(J2-Pad16)*%
X174050000Y-127050000D03*
%TD*%
D15*
%TO.P,TP,4*%
%TO.N,Net-(C13-Pad1)*%
X159400000Y-115200000D03*
%TD*%
D21*
%TO.P,LED1,1*%
%TO.N,GND*%
X144920000Y-122880000D03*
%TO.P,LED1,2*%
%TO.N,Net-(LED1-Pad2)*%
X144920000Y-121380000D03*
%TD*%
D11*
%TO.P,R3,1*%
%TO.N,Net-(IC1-Pad60)*%
X154150000Y-120920000D03*
%TO.P,R3,2*%
%TO.N,GND*%
X152550000Y-120920000D03*
%TD*%
D16*
%TO.P,C8,1*%
%TO.N,/VDD_FILT*%
X158070000Y-102750000D03*
%TO.P,C8,2*%
%TO.N,GND*%
X159470000Y-102750000D03*
%TD*%
%TO.P,C5,1*%
%TO.N,/VDD_FILT*%
X155070000Y-102750000D03*
%TO.P,C5,2*%
%TO.N,GND*%
X156470000Y-102750000D03*
%TD*%
D22*
%TO.P,IC2,1,CE#*%
%TO.N,/SPI1_NSS*%
X162476500Y-95360000D03*
%TO.P,IC2,2,SO(IO1)*%
%TO.N,/SPI1_MISO*%
X162476500Y-96630000D03*
%TO.P,IC2,3,WP#(IO2)*%
%TO.N,/IO1_WP*%
X162476500Y-97900000D03*
%TO.P,IC2,4,GND*%
%TO.N,GND*%
X162476500Y-99170000D03*
%TO.P,IC2,5,SI(IO0)*%
%TO.N,/SPI1_MOSI*%
X169540500Y-99170000D03*
%TO.P,IC2,6,SCK*%
%TO.N,/SPI1_SCK*%
X169540500Y-97900000D03*
%TO.P,IC2,7,HOLD#_OR__RESET#(IO3)*%
%TO.N,/IO2_HR*%
X169540500Y-96630000D03*
%TO.P,IC2,8,VCC*%
%TO.N,/VDD_FILT*%
X169540500Y-95360000D03*
%TD*%
D23*
%TO.P,Y1,1,CRYSTAL_1*%
%TO.N,Net-(C11-Pad1)*%
X157410000Y-109720000D03*
%TO.P,Y1,2,GND_1*%
%TO.N,GND*%
X157410000Y-107420000D03*
%TO.P,Y1,3,CRYSTAL_2*%
%TO.N,Net-(C10-Pad1)*%
X155510000Y-107420000D03*
%TO.P,Y1,4,GND_2*%
%TO.N,GND*%
X155510000Y-109720000D03*
%TD*%
D16*
%TO.P,C7,1*%
%TO.N,/VDD_FILT*%
X158070000Y-100950000D03*
%TO.P,C7,2*%
%TO.N,GND*%
X159470000Y-100950000D03*
%TD*%
%TO.P,C1,1*%
%TO.N,/VDD_FILT*%
X169760000Y-119430000D03*
%TO.P,C1,2*%
%TO.N,GND*%
X171160000Y-119430000D03*
%TD*%
%TO.P,C6,1*%
%TO.N,/VDD_FILT*%
X155070000Y-100950000D03*
%TO.P,C6,2*%
%TO.N,GND*%
X156470000Y-100950000D03*
%TD*%
D10*
%TO.P,J3,1,Pin_1*%
%TO.N,unconnected-(J3-Pad1)*%
X174050000Y-99110000D03*
%TO.P,J3,2,Pin_2*%
%TO.N,unconnected-(J3-Pad2)*%
X174050000Y-96570000D03*
%TO.P,J3,3,Pin_3*%
%TO.N,unconnected-(J3-Pad3)*%
X174050000Y-94030000D03*
%TO.P,J3,4,Pin_4*%
%TO.N,unconnected-(J3-Pad4)*%
X174050000Y-91490000D03*
%TD*%
D19*
%TO.P,R1,1*%
%TO.N,/LED1*%
X144910000Y-117360000D03*
%TO.P,R1,2*%
%TO.N,Net-(LED1-Pad2)*%
X144910000Y-118960000D03*
%TD*%
D11*
%TO.P,R4,1*%
%TO.N,/BOOT0*%
X152550000Y-123610000D03*
%TO.P,R4,2*%
%TO.N,Net-(IC1-Pad60)*%
X154150000Y-123610000D03*
%TD*%
D16*
%TO.P,C13,1*%
%TO.N,Net-(C13-Pad1)*%
X161130000Y-115210000D03*
%TO.P,C13,2*%
%TO.N,GND*%
X162530000Y-115210000D03*
%TD*%
%TO.P,C4,1*%
%TO.N,/VDD_FILT*%
X151150000Y-116000000D03*
%TO.P,C4,2*%
%TO.N,GND*%
X152550000Y-116000000D03*
%TD*%
%TO.P,C9,1*%
%TO.N,/NRST*%
X155020000Y-105150000D03*
%TO.P,C9,2*%
%TO.N,GND*%
X156420000Y-105150000D03*
%TD*%
D21*
%TO.P,LED2,1*%
%TO.N,GND*%
X147910000Y-122900000D03*
%TO.P,LED2,2*%
%TO.N,Net-(LED2-Pad2)*%
X147910000Y-121400000D03*
%TD*%
D16*
%TO.P,C14,1*%
%TO.N,/VDD_FILT*%
X166700000Y-92535000D03*
%TO.P,C14,2*%
%TO.N,GND*%
X165300000Y-92535000D03*
%TD*%
D24*
%TO.P,C15,1*%
%TO.N,/VBAT*%
X160900000Y-121200000D03*
%TO.P,C15,2*%
%TO.N,GND*%
X165500000Y-121200000D03*
%TD*%
D25*
%TO.N,GND*%
X161020000Y-99160000D03*
X160470000Y-102750000D03*
X149560000Y-100810000D03*
X154000000Y-105500000D03*
X149060000Y-97110000D03*
X139290000Y-110800000D03*
X156470000Y-103950000D03*
X163530000Y-115200000D03*
X154500000Y-109720000D03*
X168600000Y-121200000D03*
X158510000Y-107420000D03*
X163530000Y-106495000D03*
X143060000Y-100910000D03*
X149560000Y-115180000D03*
X163530000Y-109715000D03*
X157970000Y-105150000D03*
X148850000Y-122900000D03*
X160470000Y-100950000D03*
X151540000Y-120920000D03*
X152510000Y-117270000D03*
X143820000Y-122880000D03*
X156470000Y-99950000D03*
X163530000Y-112650000D03*
X142560000Y-97110000D03*
%TO.N,/USART1_RTS*%
X143910000Y-110210000D03*
%TO.N,/USART1_RX*%
X143410000Y-109210000D03*
%TO.N,/USART1_TX*%
X142910000Y-108710000D03*
%TO.N,/USART1_CTS*%
X142410000Y-109710000D03*
%TO.N,/USART1_CK*%
X142010000Y-108210000D03*
%TO.N,/NRST*%
X155070000Y-92500000D03*
X155070000Y-103950000D03*
%TO.N,/LPUART_RX*%
X145840000Y-104310000D03*
%TO.N,/LPUART_TX*%
X145120000Y-104310000D03*
%TO.N,/BOOT0*%
X151300000Y-123610000D03*
%TO.N,/SPI1_MISO*%
X161010000Y-96630000D03*
X147410000Y-115360000D03*
%TO.N,/IO1_WP*%
X153500000Y-107210000D03*
X161020000Y-97900000D03*
%TO.N,/SPI1_MOSI*%
X148510000Y-115760000D03*
X171008500Y-99170000D03*
%TO.N,/SPI1_SCK*%
X146060000Y-111960000D03*
X171008500Y-97900000D03*
%TO.N,/VDD_FILT*%
X147750000Y-99860000D03*
X171008500Y-95365000D03*
X151100000Y-117280000D03*
X169760000Y-118180000D03*
X141100000Y-99860000D03*
X139320000Y-111710000D03*
X158070000Y-103950000D03*
%TO.N,/IO2_HR*%
X154000000Y-106710000D03*
X171008500Y-96630000D03*
%TO.N,/DCMI_HSYNC*%
X150060000Y-104310000D03*
%TO.N,/DCMI_PIXCLK*%
X149060000Y-104310000D03*
%TO.N,/SCL3*%
X142470000Y-124560000D03*
%TO.N,/DCMI_D0*%
X148810000Y-111160000D03*
%TO.N,/DCMI_D1*%
X148110000Y-111160000D03*
%TO.N,/DCMI_D2*%
X148810000Y-110080000D03*
%TO.N,/DCMI_D3*%
X148110000Y-110080000D03*
%TO.N,/SDA3*%
X142520000Y-123530000D03*
%TO.N,/DCMI_D4*%
X148810000Y-109000000D03*
%TO.N,/LPUART_RTS*%
X146360000Y-105310000D03*
%TO.N,/DCMI_D5*%
X148110000Y-109000000D03*
%TO.N,/DCMI_VSYNC*%
X146910000Y-110550000D03*
%TO.N,/DCMI_D6*%
X148810000Y-107920000D03*
%TO.N,/DCMI_D7*%
X148110000Y-107920000D03*
%TO.N,/LPUART_CTS*%
X145120000Y-105310000D03*
%TO.N,/IO3*%
X143060000Y-115080000D03*
%TO.N,/IO4*%
X145060000Y-115100000D03*
%TD*%
D26*
%TO.N,/DCMI_D6*%
X148316480Y-107426480D02*
X148810000Y-107920000D01*
X147380000Y-107850000D02*
X147803520Y-107426480D01*
X147380000Y-112101468D02*
X147380000Y-107850000D01*
X148400000Y-112550000D02*
X147828532Y-112550000D01*
X148560000Y-112710000D02*
X148400000Y-112550000D01*
X147828532Y-112550000D02*
X147380000Y-112101468D01*
X148560000Y-113698000D02*
X148560000Y-112710000D01*
X147803520Y-107426480D02*
X148316480Y-107426480D01*
%TO.N,/DCMI_D5*%
X148110000Y-108600000D02*
X148110000Y-109000000D01*
X148295920Y-108414080D02*
X148110000Y-108600000D01*
X149000000Y-108414080D02*
X148295920Y-108414080D01*
X149300000Y-108114080D02*
X149000000Y-108414080D01*
X149300000Y-107590000D02*
X149300000Y-108114080D01*
X145400000Y-110030000D02*
X145400000Y-107950000D01*
X146180000Y-107170000D02*
X148880000Y-107170000D01*
X147060000Y-112498532D02*
X146576480Y-112015010D01*
X146576480Y-112015010D02*
X146576480Y-111206480D01*
X145400000Y-107950000D02*
X146180000Y-107170000D01*
X148880000Y-107170000D02*
X149300000Y-107590000D01*
X147060000Y-113698000D02*
X147060000Y-112498532D01*
X146576480Y-111206480D02*
X145400000Y-110030000D01*
%TO.N,/DCMI_D7*%
X147930000Y-112120000D02*
X148660000Y-112120000D01*
X148660000Y-112120000D02*
X149060000Y-112520000D01*
X148110000Y-108010000D02*
X147650000Y-108470000D01*
X147650000Y-111840000D02*
X147930000Y-112120000D01*
X149060000Y-112520000D02*
X149060000Y-113698000D01*
X148110000Y-107920000D02*
X148110000Y-108010000D01*
X147650000Y-108470000D02*
X147650000Y-111840000D01*
%TO.N,GND*%
X139290000Y-110910000D02*
X139590000Y-111210000D01*
X139590000Y-111210000D02*
X140572000Y-111210000D01*
X165300000Y-92535000D02*
X165750000Y-92985000D01*
X152890000Y-106210000D02*
X152048000Y-106210000D01*
X149560000Y-113698000D02*
X149560000Y-115180000D01*
X161013500Y-99170000D02*
X162476500Y-99170000D01*
X143820000Y-122880000D02*
X144920000Y-122880000D01*
X163480000Y-109695000D02*
X163530000Y-109745000D01*
X162530000Y-112650000D02*
X163530000Y-112650000D01*
X155510000Y-109720000D02*
X154500000Y-109720000D01*
X152550000Y-120920000D02*
X151540000Y-120920000D01*
X143060000Y-100910000D02*
X143060000Y-102222000D01*
X162530000Y-109695000D02*
X163480000Y-109695000D01*
X165500000Y-121200000D02*
X168600000Y-121200000D01*
X162530000Y-106495000D02*
X163530000Y-106495000D01*
X147830000Y-122900000D02*
X148850000Y-122900000D01*
X165750000Y-98723500D02*
X165303500Y-99170000D01*
X156470000Y-100950000D02*
X156470000Y-99950000D01*
X165303500Y-99170000D02*
X162476500Y-99170000D01*
X156420000Y-105150000D02*
X157970000Y-105150000D01*
X162530000Y-115200000D02*
X163530000Y-115200000D01*
X142560000Y-97110000D02*
X142560000Y-98460000D01*
X157410000Y-107420000D02*
X158510000Y-107420000D01*
X149560000Y-100810000D02*
X149560000Y-102222000D01*
X154000000Y-105500000D02*
X153600000Y-105500000D01*
X152550000Y-116000000D02*
X152510000Y-116040000D01*
X160470000Y-102750000D02*
X159470000Y-102750000D01*
X165750000Y-92985000D02*
X165750000Y-98723500D01*
X156470000Y-102750000D02*
X156470000Y-103950000D01*
X152510000Y-116040000D02*
X152510000Y-117270000D01*
X153600000Y-105500000D02*
X152890000Y-106210000D01*
X159470000Y-100950000D02*
X160470000Y-100950000D01*
X149060000Y-98460000D02*
X149060000Y-97110000D01*
X174050000Y-119430000D02*
X171160000Y-119430000D01*
%TO.N,/SWCLK*%
X141743520Y-124603520D02*
X142656480Y-125516480D01*
X173043520Y-125516480D02*
X174050000Y-124510000D01*
X141743520Y-115396480D02*
X141743520Y-124603520D01*
X142560000Y-114580000D02*
X141743520Y-115396480D01*
X142560000Y-113698000D02*
X142560000Y-114580000D01*
X142656480Y-125516480D02*
X173043520Y-125516480D01*
%TO.N,/SWDIO*%
X142551468Y-125770000D02*
X141490000Y-124708531D01*
X141490000Y-124708531D02*
X141490000Y-112059522D01*
X175190000Y-125140000D02*
X174560000Y-125770000D01*
X141490000Y-110710000D02*
X140572000Y-110710000D01*
X141499511Y-110719511D02*
X141490000Y-110710000D01*
X174560000Y-125770000D02*
X142551468Y-125770000D01*
X175190000Y-123110000D02*
X175190000Y-125140000D01*
X174050000Y-121970000D02*
X175190000Y-123110000D01*
X141499511Y-112050011D02*
X141499511Y-110719511D01*
X141490000Y-112059522D02*
X141499511Y-112050011D01*
%TO.N,VDD*%
X174050000Y-116890000D02*
X171360000Y-116890000D01*
%TO.N,/USART1_RTS*%
X140572000Y-110210000D02*
X143910000Y-110210000D01*
%TO.N,/USART1_RX*%
X140572000Y-109210000D02*
X143410000Y-109210000D01*
%TO.N,/USART1_TX*%
X140572000Y-108710000D02*
X142910000Y-108710000D01*
%TO.N,/USART1_CTS*%
X140572000Y-109710000D02*
X142410000Y-109710000D01*
%TO.N,/USART1_CK*%
X140572000Y-108210000D02*
X142010000Y-108210000D01*
%TO.N,/NRST*%
X155070000Y-105100000D02*
X155020000Y-105150000D01*
X153330000Y-92500000D02*
X155070000Y-92500000D01*
X151190000Y-90360000D02*
X153330000Y-92500000D01*
X155020000Y-105150000D02*
X155020000Y-106329978D01*
X155020000Y-106329978D02*
X154640000Y-106709978D01*
X153800000Y-108710000D02*
X152048000Y-108710000D01*
X151190000Y-88950000D02*
X151190000Y-90360000D01*
X154640000Y-106709978D02*
X154640000Y-107870000D01*
X155070000Y-103950000D02*
X155070000Y-105100000D01*
X154640000Y-107870000D02*
X153800000Y-108710000D01*
%TO.N,/LPUART_RX*%
X145270000Y-103540000D02*
X145840000Y-104110000D01*
X144060000Y-103310000D02*
X144290000Y-103540000D01*
X144060000Y-102222000D02*
X144060000Y-103310000D01*
X145840000Y-104110000D02*
X145840000Y-104310000D01*
X144290000Y-103540000D02*
X145270000Y-103540000D01*
%TO.N,/LPUART_TX*%
X143560000Y-103330000D02*
X144540000Y-104310000D01*
X144540000Y-104310000D02*
X145120000Y-104310000D01*
X143560000Y-102222000D02*
X143560000Y-103330000D01*
%TO.N,/BOOT0*%
X152550000Y-123610000D02*
X151300000Y-123610000D01*
%TO.N,/SPI1_NSS*%
X145560000Y-97400000D02*
X145560000Y-102222000D01*
X162476500Y-95360000D02*
X147600000Y-95360000D01*
X162476500Y-94097000D02*
X162476500Y-95360000D01*
X165200000Y-91373500D02*
X162476500Y-94097000D01*
X165200000Y-90900000D02*
X165200000Y-91373500D01*
X147600000Y-95360000D02*
X145560000Y-97400000D01*
%TO.N,/SPI1_MISO*%
X147410000Y-115360000D02*
X146490000Y-115360000D01*
X146490000Y-115360000D02*
X146060000Y-114930000D01*
X146060000Y-113698000D02*
X146060000Y-114930000D01*
X161008500Y-96630000D02*
X162476500Y-96630000D01*
%TO.N,/IO1_WP*%
X161008500Y-97900000D02*
X162476500Y-97900000D01*
X153500000Y-107210000D02*
X152048000Y-107210000D01*
%TO.N,/SPI1_MOSI*%
X146570000Y-114670000D02*
X147780000Y-114670000D01*
X147780000Y-114670000D02*
X148510000Y-115400000D01*
X146560000Y-113698000D02*
X146560000Y-114660000D01*
X148510000Y-115400000D02*
X148510000Y-115760000D01*
X146560000Y-114660000D02*
X146570000Y-114670000D01*
X169540500Y-99170000D02*
X171008500Y-99170000D01*
%TO.N,/SPI1_SCK*%
X145560000Y-113698000D02*
X145560000Y-112460000D01*
X169540500Y-97900000D02*
X171008500Y-97900000D01*
X145560000Y-112460000D02*
X146060000Y-111960000D01*
%TO.N,/VDD_FILT*%
X151110000Y-116040000D02*
X151110000Y-117270000D01*
X150060000Y-114910000D02*
X151150000Y-116000000D01*
X155070000Y-100040000D02*
X155750000Y-99360000D01*
X155070000Y-100950000D02*
X155070000Y-100040000D01*
X147750000Y-99860000D02*
X149060000Y-99860000D01*
X155070000Y-100950000D02*
X155070000Y-102750000D01*
X154030000Y-104592500D02*
X154030000Y-103790000D01*
X171003500Y-95360000D02*
X171008500Y-95365000D01*
X151150000Y-116000000D02*
X151110000Y-116040000D01*
X150060000Y-113698000D02*
X150060000Y-114910000D01*
X158070000Y-100950000D02*
X158070000Y-102750000D01*
X169540500Y-95360000D02*
X171003500Y-95360000D01*
X169540500Y-93640500D02*
X169540500Y-95360000D01*
X169760000Y-118180000D02*
X169760000Y-119430000D01*
X139320000Y-111710000D02*
X140572000Y-111710000D01*
X166700000Y-92535000D02*
X166715500Y-92535000D01*
X141100000Y-99860000D02*
X142560000Y-99860000D01*
X157320000Y-99360000D02*
X158070000Y-100110000D01*
X154030000Y-103790000D02*
X155070000Y-102750000D01*
X158070000Y-102750000D02*
X158070000Y-103950000D01*
X155750000Y-99360000D02*
X157320000Y-99360000D01*
X152912500Y-105710000D02*
X154030000Y-104592500D01*
X166800000Y-90900000D02*
X169540500Y-93640500D01*
X152048000Y-105710000D02*
X152912500Y-105710000D01*
X169760000Y-116890000D02*
X169760000Y-118180000D01*
X142560000Y-102222000D02*
X142560000Y-99860000D01*
X158070000Y-100110000D02*
X158070000Y-100950000D01*
X149060000Y-102222000D02*
X149060000Y-99860000D01*
X166715500Y-92535000D02*
X169540500Y-95360000D01*
%TO.N,/LED1*%
X143560000Y-115180000D02*
X143560000Y-113698000D01*
X144910000Y-117360000D02*
X144910000Y-116530000D01*
X144910000Y-116530000D02*
X143560000Y-115180000D01*
%TO.N,/LED2*%
X146550000Y-117360000D02*
X147910000Y-117360000D01*
X144560000Y-115370000D02*
X146550000Y-117360000D01*
X144560000Y-113698000D02*
X144560000Y-115370000D01*
%TO.N,Net-(IC1-Pad60)*%
X149748750Y-117018750D02*
X149748750Y-116251250D01*
X154150000Y-119410000D02*
X153280000Y-118540000D01*
X149748750Y-116251250D02*
X148060000Y-114562500D01*
X148060000Y-114562500D02*
X148060000Y-113698000D01*
X154150000Y-120920000D02*
X154150000Y-119410000D01*
X151270000Y-118540000D02*
X149748750Y-117018750D01*
X153280000Y-118540000D02*
X151270000Y-118540000D01*
X154150000Y-120920000D02*
X154150000Y-123610000D01*
%TO.N,/VBAT*%
X154290000Y-118040000D02*
X157450000Y-121200000D01*
X153310000Y-111710000D02*
X154290000Y-112690000D01*
X152048000Y-111710000D02*
X153310000Y-111710000D01*
X157450000Y-121200000D02*
X160900000Y-121200000D01*
X154290000Y-112690000D02*
X154290000Y-118040000D01*
%TO.N,/IO2_HR*%
X169540500Y-96630000D02*
X171008500Y-96630000D01*
X154000000Y-106710000D02*
X152048000Y-106710000D01*
%TO.N,/DCMI_HSYNC*%
X149070000Y-103320000D02*
X148560000Y-103320000D01*
X150060000Y-104310000D02*
X149070000Y-103320000D01*
X148560000Y-103320000D02*
X148560000Y-102222000D01*
%TO.N,/DCMI_PIXCLK*%
X149060000Y-104310000D02*
X148090000Y-103340000D01*
X147560000Y-102222000D02*
X147560000Y-103340000D01*
X148090000Y-103340000D02*
X147560000Y-103340000D01*
%TO.N,Net-(LED1-Pad2)*%
X144910000Y-121370000D02*
X144920000Y-121380000D01*
X144910000Y-118960000D02*
X144910000Y-121370000D01*
%TO.N,/SCL3*%
X155563520Y-123916480D02*
X154470000Y-125010000D01*
X151120489Y-108273011D02*
X151120489Y-112986936D01*
X152048000Y-108210000D02*
X151183500Y-108210000D01*
X153673520Y-118216456D02*
X155563520Y-120106457D01*
X151120489Y-112986936D02*
X153673520Y-115539967D01*
X155563520Y-120106457D02*
X155563520Y-123916480D01*
X151183500Y-108210000D02*
X151120489Y-108273011D01*
X154470000Y-125010000D02*
X142920000Y-125010000D01*
X142920000Y-125010000D02*
X142470000Y-124560000D01*
X153673520Y-115539967D02*
X153673520Y-118216456D01*
%TO.N,/DCMI_D0*%
X141950000Y-106210000D02*
X142310000Y-105850000D01*
X142310000Y-105850000D02*
X149889653Y-105850000D01*
X140572000Y-106210000D02*
X141950000Y-106210000D01*
X150267624Y-106227971D02*
X150273544Y-106227971D01*
X150570560Y-106945034D02*
X150567600Y-106947994D01*
X150567600Y-106947994D02*
X150567600Y-110900931D01*
X150567600Y-110900931D02*
X150308531Y-111160000D01*
X150570560Y-106524988D02*
X150570560Y-106945034D01*
X150273544Y-106227971D02*
X150570560Y-106524988D01*
X149889653Y-105850000D02*
X150267624Y-106227971D01*
X150308531Y-111160000D02*
X148810000Y-111160000D01*
%TO.N,/DCMI_D1*%
X140572000Y-106710000D02*
X141833520Y-106710000D01*
X150168532Y-106481491D02*
X150317040Y-106629999D01*
X141833520Y-106710000D02*
X142420560Y-106122960D01*
X150057971Y-110613520D02*
X148656480Y-110613520D01*
X149804081Y-106122960D02*
X150162612Y-106481491D01*
X150314080Y-106842983D02*
X150314080Y-110357411D01*
X142420560Y-106122960D02*
X149804081Y-106122960D01*
X150317040Y-106629999D02*
X150317040Y-106840023D01*
X150162612Y-106481491D02*
X150168532Y-106481491D01*
X150314080Y-110357411D02*
X150057971Y-110613520D01*
X150317040Y-106840023D02*
X150314080Y-106842983D01*
X148656480Y-110613520D02*
X148110000Y-111160000D01*
%TO.N,/DCMI_D2*%
X142573520Y-106376480D02*
X149636480Y-106376480D01*
X149636480Y-106376480D02*
X149699069Y-106376480D01*
X149780000Y-110070000D02*
X148820000Y-110070000D01*
X140572000Y-107210000D02*
X141740000Y-107210000D01*
X150060560Y-106737971D02*
X150060560Y-109789440D01*
X149699069Y-106376480D02*
X150060560Y-106737971D01*
X141740000Y-107210000D02*
X142573520Y-106376480D01*
X150060560Y-109789440D02*
X149780000Y-110070000D01*
%TO.N,/DCMI_D3*%
X141680000Y-107710000D02*
X142760000Y-106630000D01*
X149510000Y-106630000D02*
X149807040Y-106927040D01*
X140572000Y-107710000D02*
X141680000Y-107710000D01*
X149807040Y-109041492D02*
X149388532Y-109460000D01*
X149388532Y-109460000D02*
X148420000Y-109460000D01*
X149807040Y-106927040D02*
X149807040Y-109041492D01*
X142760000Y-106630000D02*
X149170000Y-106630000D01*
X149170000Y-106630000D02*
X149510000Y-106630000D01*
X148420000Y-109460000D02*
X148110000Y-109770000D01*
X148110000Y-109770000D02*
X148110000Y-110080000D01*
%TO.N,/SDA3*%
X150866969Y-113091947D02*
X153420000Y-115644978D01*
X151183500Y-107710000D02*
X150866969Y-108026531D01*
X154380000Y-124700000D02*
X143690000Y-124700000D01*
X155310000Y-120211468D02*
X155310000Y-123770000D01*
X153420000Y-118321468D02*
X155310000Y-120211468D01*
X150866969Y-108026531D02*
X150866969Y-113091947D01*
X143690000Y-124700000D02*
X142520000Y-123530000D01*
X155310000Y-123770000D02*
X154380000Y-124700000D01*
X153420000Y-115644978D02*
X153420000Y-118321468D01*
X152048000Y-107710000D02*
X151183500Y-107710000D01*
%TO.N,/DCMI_D4*%
X144060000Y-111970000D02*
X145110000Y-110920000D01*
X144060000Y-113698000D02*
X144060000Y-111970000D01*
X149405011Y-106916480D02*
X149553520Y-107064989D01*
X145110000Y-110920000D02*
X145110000Y-107881469D01*
X149553520Y-107064989D02*
X149553520Y-108936480D01*
X145110000Y-107881469D02*
X146074989Y-106916480D01*
X149553520Y-108936480D02*
X149490000Y-109000000D01*
X149490000Y-109000000D02*
X148810000Y-109000000D01*
X146074989Y-106916480D02*
X149405011Y-106916480D01*
%TO.N,/LPUART_RTS*%
X146360000Y-105010000D02*
X146130000Y-104780000D01*
X144081468Y-104210000D02*
X140572000Y-104210000D01*
X144651468Y-104780000D02*
X144081468Y-104210000D01*
X146130000Y-104780000D02*
X144651468Y-104780000D01*
X146360000Y-105310000D02*
X146360000Y-105010000D01*
%TO.N,Net-(LED2-Pad2)*%
X147910000Y-118960000D02*
X147910000Y-121400000D01*
%TO.N,Net-(C13-Pad1)*%
X156920000Y-115210000D02*
X161130000Y-115210000D01*
X154589989Y-113035011D02*
X154590000Y-113035000D01*
X155485000Y-115210000D02*
X154589989Y-114314989D01*
X154590000Y-113035000D02*
X154590000Y-111800000D01*
X156920000Y-115210000D02*
X155485000Y-115210000D01*
X153500000Y-110710000D02*
X152048000Y-110710000D01*
X154590000Y-111800000D02*
X153500000Y-110710000D01*
X154589989Y-114314989D02*
X154589989Y-113035011D01*
%TO.N,Net-(C12-Pad1)*%
X156920000Y-112660000D02*
X155990000Y-112660000D01*
X153540000Y-110210000D02*
X152048000Y-110210000D01*
X156920000Y-112660000D02*
X161130000Y-112660000D01*
X155990000Y-112660000D02*
X153540000Y-110210000D01*
%TO.N,/DCMI_VSYNC*%
X147560000Y-112640000D02*
X147560000Y-113698000D01*
X146910000Y-111990000D02*
X146915000Y-111995000D01*
X146910000Y-110550000D02*
X146910000Y-111990000D01*
X146915000Y-111995000D02*
X147560000Y-112640000D01*
%TO.N,Net-(C11-Pad1)*%
X161125000Y-109720000D02*
X157410000Y-109720000D01*
X154558532Y-108730000D02*
X156428532Y-108730000D01*
X153578532Y-109710000D02*
X154558532Y-108730000D01*
X156460000Y-108770000D02*
X157410000Y-109720000D01*
X152048000Y-109710000D02*
X153578532Y-109710000D01*
%TO.N,Net-(C10-Pad1)*%
X156430000Y-106500000D02*
X155510000Y-107420000D01*
X161125000Y-106500000D02*
X156430000Y-106500000D01*
X153720000Y-109210000D02*
X155510000Y-107420000D01*
X161130000Y-106495000D02*
X161125000Y-106500000D01*
X152048000Y-109210000D02*
X153720000Y-109210000D01*
%TO.N,/LPUART_CTS*%
X140572000Y-104710000D02*
X144120000Y-104710000D01*
X145020000Y-105210000D02*
X145120000Y-105310000D01*
X144620000Y-105210000D02*
X145020000Y-105210000D01*
X144120000Y-104710000D02*
X144620000Y-105210000D01*
%TO.N,/IO3*%
X143060000Y-115080000D02*
X143060000Y-113698000D01*
%TO.N,/IO4*%
X145060000Y-115100000D02*
X145060000Y-113698000D01*
%TO.N,/AIN16*%
X138770000Y-124790000D02*
X138770000Y-124230000D01*
X141030000Y-127050000D02*
X138770000Y-124790000D01*
X140630000Y-95400000D02*
X138770000Y-97260000D01*
X143170000Y-95400000D02*
X140630000Y-95400000D01*
X145060000Y-102222000D02*
X145060000Y-97290000D01*
X145060000Y-97290000D02*
X143170000Y-95400000D01*
X138770000Y-97260000D02*
X138770000Y-124230000D01*
%TD*%
M02*
