%TF.GenerationSoftware,KiCad,Pcbnew,(6.0.5)*%
%TF.CreationDate,2022-06-03T11:37:49-04:00*%
%TF.ProjectId,pq-cdh,70712d63-6468-42e6-9b69-6361645f7063,V0.1.0*%
%TF.SameCoordinates,Original*%
%TF.FileFunction,Legend,Top*%
%TF.FilePolarity,Positive*%
%FSLAX46Y46*%
G04 Gerber Fmt 4.6, Leading zero omitted, Abs format (unit mm)*
G04 Created by KiCad (PCBNEW (6.0.5)) date 2022-06-03 11:37:49*
%MOMM*%
%LPD*%
G01*
G04 APERTURE LIST*
%ADD10C,0.100000*%
%ADD11C,0.117300*%
%ADD12C,0.125000*%
%ADD13C,0.200000*%
%ADD14C,0.250000*%
G04 APERTURE END LIST*
D10*
X153051428Y-128614285D02*
X153122857Y-128638095D01*
X153146666Y-128661904D01*
X153170476Y-128709523D01*
X153170476Y-128780952D01*
X153146666Y-128828571D01*
X153122857Y-128852380D01*
X153075238Y-128876190D01*
X152884761Y-128876190D01*
X152884761Y-128376190D01*
X153051428Y-128376190D01*
X153099047Y-128400000D01*
X153122857Y-128423809D01*
X153146666Y-128471428D01*
X153146666Y-128519047D01*
X153122857Y-128566666D01*
X153099047Y-128590476D01*
X153051428Y-128614285D01*
X152884761Y-128614285D01*
X153480000Y-128376190D02*
X153575238Y-128376190D01*
X153622857Y-128400000D01*
X153670476Y-128447619D01*
X153694285Y-128542857D01*
X153694285Y-128709523D01*
X153670476Y-128804761D01*
X153622857Y-128852380D01*
X153575238Y-128876190D01*
X153480000Y-128876190D01*
X153432380Y-128852380D01*
X153384761Y-128804761D01*
X153360952Y-128709523D01*
X153360952Y-128542857D01*
X153384761Y-128447619D01*
X153432380Y-128400000D01*
X153480000Y-128376190D01*
X154003809Y-128376190D02*
X154099047Y-128376190D01*
X154146666Y-128400000D01*
X154194285Y-128447619D01*
X154218095Y-128542857D01*
X154218095Y-128709523D01*
X154194285Y-128804761D01*
X154146666Y-128852380D01*
X154099047Y-128876190D01*
X154003809Y-128876190D01*
X153956190Y-128852380D01*
X153908571Y-128804761D01*
X153884761Y-128709523D01*
X153884761Y-128542857D01*
X153908571Y-128447619D01*
X153956190Y-128400000D01*
X154003809Y-128376190D01*
X154360952Y-128376190D02*
X154646666Y-128376190D01*
X154503809Y-128876190D02*
X154503809Y-128376190D01*
X164189523Y-105466190D02*
X164189523Y-104966190D01*
X164380000Y-104966190D01*
X164427619Y-104990000D01*
X164451428Y-105013809D01*
X164475238Y-105061428D01*
X164475238Y-105132857D01*
X164451428Y-105180476D01*
X164427619Y-105204285D01*
X164380000Y-105228095D01*
X164189523Y-105228095D01*
X164689523Y-105466190D02*
X164689523Y-104966190D01*
X164880000Y-104966190D02*
X165213333Y-105466190D01*
X165213333Y-104966190D02*
X164880000Y-105466190D01*
X165689523Y-105418571D02*
X165665714Y-105442380D01*
X165594285Y-105466190D01*
X165546666Y-105466190D01*
X165475238Y-105442380D01*
X165427619Y-105394761D01*
X165403809Y-105347142D01*
X165380000Y-105251904D01*
X165380000Y-105180476D01*
X165403809Y-105085238D01*
X165427619Y-105037619D01*
X165475238Y-104990000D01*
X165546666Y-104966190D01*
X165594285Y-104966190D01*
X165665714Y-104990000D01*
X165689523Y-105013809D01*
X166141904Y-105466190D02*
X165903809Y-105466190D01*
X165903809Y-104966190D01*
X166308571Y-105466190D02*
X166308571Y-104966190D01*
X166594285Y-105466190D02*
X166380000Y-105180476D01*
X166594285Y-104966190D02*
X166308571Y-105251904D01*
X140649047Y-87100000D02*
X140601428Y-87076190D01*
X140530000Y-87076190D01*
X140458571Y-87100000D01*
X140410952Y-87147619D01*
X140387142Y-87195238D01*
X140363333Y-87290476D01*
X140363333Y-87361904D01*
X140387142Y-87457142D01*
X140410952Y-87504761D01*
X140458571Y-87552380D01*
X140530000Y-87576190D01*
X140577619Y-87576190D01*
X140649047Y-87552380D01*
X140672857Y-87528571D01*
X140672857Y-87361904D01*
X140577619Y-87361904D01*
X140887142Y-87576190D02*
X140887142Y-87076190D01*
X141172857Y-87576190D01*
X141172857Y-87076190D01*
X141410952Y-87576190D02*
X141410952Y-87076190D01*
X141530000Y-87076190D01*
X141601428Y-87100000D01*
X141649047Y-87147619D01*
X141672857Y-87195238D01*
X141696666Y-87290476D01*
X141696666Y-87361904D01*
X141672857Y-87457142D01*
X141649047Y-87504761D01*
X141601428Y-87552380D01*
X141530000Y-87576190D01*
X141410952Y-87576190D01*
X142470476Y-124846190D02*
X142232380Y-124846190D01*
X142232380Y-124346190D01*
X142637142Y-124584285D02*
X142803809Y-124584285D01*
X142875238Y-124846190D02*
X142637142Y-124846190D01*
X142637142Y-124346190D01*
X142875238Y-124346190D01*
X143089523Y-124846190D02*
X143089523Y-124346190D01*
X143208571Y-124346190D01*
X143280000Y-124370000D01*
X143327619Y-124417619D01*
X143351428Y-124465238D01*
X143375238Y-124560476D01*
X143375238Y-124631904D01*
X143351428Y-124727142D01*
X143327619Y-124774761D01*
X143280000Y-124822380D01*
X143208571Y-124846190D01*
X143089523Y-124846190D01*
X143851428Y-124846190D02*
X143565714Y-124846190D01*
X143708571Y-124846190D02*
X143708571Y-124346190D01*
X143660952Y-124417619D01*
X143613333Y-124465238D01*
X143565714Y-124489047D01*
D11*
X171560952Y-115516190D02*
X171560952Y-115016190D01*
X171680000Y-115016190D01*
X171751428Y-115040000D01*
X171799047Y-115087619D01*
X171822857Y-115135238D01*
X171846666Y-115230476D01*
X171846666Y-115301904D01*
X171822857Y-115397142D01*
X171799047Y-115444761D01*
X171751428Y-115492380D01*
X171680000Y-115516190D01*
X171560952Y-115516190D01*
X172156190Y-115016190D02*
X172203809Y-115016190D01*
X172251428Y-115040000D01*
X172275238Y-115063809D01*
X172299047Y-115111428D01*
X172322857Y-115206666D01*
X172322857Y-115325714D01*
X172299047Y-115420952D01*
X172275238Y-115468571D01*
X172251428Y-115492380D01*
X172203809Y-115516190D01*
X172156190Y-115516190D01*
X172108571Y-115492380D01*
X172084761Y-115468571D01*
X172060952Y-115420952D01*
X172037142Y-115325714D01*
X172037142Y-115206666D01*
X172060952Y-115111428D01*
X172084761Y-115063809D01*
X172108571Y-115040000D01*
X172156190Y-115016190D01*
D10*
X165890952Y-115556190D02*
X165890952Y-115056190D01*
X166010000Y-115056190D01*
X166081428Y-115080000D01*
X166129047Y-115127619D01*
X166152857Y-115175238D01*
X166176666Y-115270476D01*
X166176666Y-115341904D01*
X166152857Y-115437142D01*
X166129047Y-115484761D01*
X166081428Y-115532380D01*
X166010000Y-115556190D01*
X165890952Y-115556190D01*
X166652857Y-115556190D02*
X166367142Y-115556190D01*
X166510000Y-115556190D02*
X166510000Y-115056190D01*
X166462380Y-115127619D01*
X166414761Y-115175238D01*
X166367142Y-115199047D01*
X133976190Y-117369047D02*
X133976190Y-117059523D01*
X134166666Y-117226190D01*
X134166666Y-117154761D01*
X134190476Y-117107142D01*
X134214285Y-117083333D01*
X134261904Y-117059523D01*
X134380952Y-117059523D01*
X134428571Y-117083333D01*
X134452380Y-117107142D01*
X134476190Y-117154761D01*
X134476190Y-117297619D01*
X134452380Y-117345238D01*
X134428571Y-117369047D01*
X133976190Y-116916666D02*
X134476190Y-116750000D01*
X133976190Y-116583333D01*
X133976190Y-116464285D02*
X133976190Y-116154761D01*
X134166666Y-116321428D01*
X134166666Y-116250000D01*
X134190476Y-116202380D01*
X134214285Y-116178571D01*
X134261904Y-116154761D01*
X134380952Y-116154761D01*
X134428571Y-116178571D01*
X134452380Y-116202380D01*
X134476190Y-116250000D01*
X134476190Y-116392857D01*
X134452380Y-116440476D01*
X134428571Y-116464285D01*
X169708571Y-121408571D02*
X169684761Y-121432380D01*
X169613333Y-121456190D01*
X169565714Y-121456190D01*
X169494285Y-121432380D01*
X169446666Y-121384761D01*
X169422857Y-121337142D01*
X169399047Y-121241904D01*
X169399047Y-121170476D01*
X169422857Y-121075238D01*
X169446666Y-121027619D01*
X169494285Y-120980000D01*
X169565714Y-120956190D01*
X169613333Y-120956190D01*
X169684761Y-120980000D01*
X169708571Y-121003809D01*
X170184761Y-121456190D02*
X169899047Y-121456190D01*
X170041904Y-121456190D02*
X170041904Y-120956190D01*
X169994285Y-121027619D01*
X169946666Y-121075238D01*
X169899047Y-121099047D01*
X170637142Y-120956190D02*
X170399047Y-120956190D01*
X170375238Y-121194285D01*
X170399047Y-121170476D01*
X170446666Y-121146666D01*
X170565714Y-121146666D01*
X170613333Y-121170476D01*
X170637142Y-121194285D01*
X170660952Y-121241904D01*
X170660952Y-121360952D01*
X170637142Y-121408571D01*
X170613333Y-121432380D01*
X170565714Y-121456190D01*
X170446666Y-121456190D01*
X170399047Y-121432380D01*
X170375238Y-121408571D01*
X156671904Y-114138095D02*
X156671904Y-114376190D01*
X156505238Y-113876190D02*
X156671904Y-114138095D01*
X156838571Y-113876190D01*
X156981428Y-113923809D02*
X157005238Y-113900000D01*
X157052857Y-113876190D01*
X157171904Y-113876190D01*
X157219523Y-113900000D01*
X157243333Y-113923809D01*
X157267142Y-113971428D01*
X157267142Y-114019047D01*
X157243333Y-114090476D01*
X156957619Y-114376190D01*
X157267142Y-114376190D01*
X165216666Y-91826190D02*
X165050000Y-91588095D01*
X164930952Y-91826190D02*
X164930952Y-91326190D01*
X165121428Y-91326190D01*
X165169047Y-91350000D01*
X165192857Y-91373809D01*
X165216666Y-91421428D01*
X165216666Y-91492857D01*
X165192857Y-91540476D01*
X165169047Y-91564285D01*
X165121428Y-91588095D01*
X164930952Y-91588095D01*
X165669047Y-91326190D02*
X165430952Y-91326190D01*
X165407142Y-91564285D01*
X165430952Y-91540476D01*
X165478571Y-91516666D01*
X165597619Y-91516666D01*
X165645238Y-91540476D01*
X165669047Y-91564285D01*
X165692857Y-91611904D01*
X165692857Y-91730952D01*
X165669047Y-91778571D01*
X165645238Y-91802380D01*
X165597619Y-91826190D01*
X165478571Y-91826190D01*
X165430952Y-91802380D01*
X165407142Y-91778571D01*
X158167142Y-128876190D02*
X157929047Y-128876190D01*
X157929047Y-128376190D01*
X158333809Y-128876190D02*
X158333809Y-128376190D01*
X158524285Y-128376190D01*
X158571904Y-128400000D01*
X158595714Y-128423809D01*
X158619523Y-128471428D01*
X158619523Y-128542857D01*
X158595714Y-128590476D01*
X158571904Y-128614285D01*
X158524285Y-128638095D01*
X158333809Y-128638095D01*
X158833809Y-128828571D02*
X158857619Y-128852380D01*
X158833809Y-128876190D01*
X158810000Y-128852380D01*
X158833809Y-128828571D01*
X158833809Y-128876190D01*
X159000476Y-128376190D02*
X159286190Y-128376190D01*
X159143333Y-128876190D02*
X159143333Y-128376190D01*
X159405238Y-128376190D02*
X159738571Y-128876190D01*
X159738571Y-128376190D02*
X159405238Y-128876190D01*
X134000000Y-119630952D02*
X133976190Y-119678571D01*
X133976190Y-119750000D01*
X134000000Y-119821428D01*
X134047619Y-119869047D01*
X134095238Y-119892857D01*
X134190476Y-119916666D01*
X134261904Y-119916666D01*
X134357142Y-119892857D01*
X134404761Y-119869047D01*
X134452380Y-119821428D01*
X134476190Y-119750000D01*
X134476190Y-119702380D01*
X134452380Y-119630952D01*
X134428571Y-119607142D01*
X134261904Y-119607142D01*
X134261904Y-119702380D01*
X134476190Y-119392857D02*
X133976190Y-119392857D01*
X134476190Y-119107142D01*
X133976190Y-119107142D01*
X134476190Y-118869047D02*
X133976190Y-118869047D01*
X133976190Y-118750000D01*
X134000000Y-118678571D01*
X134047619Y-118630952D01*
X134095238Y-118607142D01*
X134190476Y-118583333D01*
X134261904Y-118583333D01*
X134357142Y-118607142D01*
X134404761Y-118630952D01*
X134452380Y-118678571D01*
X134476190Y-118750000D01*
X134476190Y-118869047D01*
X163616190Y-87576190D02*
X163449523Y-87338095D01*
X163330476Y-87576190D02*
X163330476Y-87076190D01*
X163520952Y-87076190D01*
X163568571Y-87100000D01*
X163592380Y-87123809D01*
X163616190Y-87171428D01*
X163616190Y-87242857D01*
X163592380Y-87290476D01*
X163568571Y-87314285D01*
X163520952Y-87338095D01*
X163330476Y-87338095D01*
X163759047Y-87076190D02*
X164044761Y-87076190D01*
X163901904Y-87576190D02*
X163901904Y-87076190D01*
X164187619Y-87552380D02*
X164259047Y-87576190D01*
X164378095Y-87576190D01*
X164425714Y-87552380D01*
X164449523Y-87528571D01*
X164473333Y-87480952D01*
X164473333Y-87433333D01*
X164449523Y-87385714D01*
X164425714Y-87361904D01*
X164378095Y-87338095D01*
X164282857Y-87314285D01*
X164235238Y-87290476D01*
X164211428Y-87266666D01*
X164187619Y-87219047D01*
X164187619Y-87171428D01*
X164211428Y-87123809D01*
X164235238Y-87100000D01*
X164282857Y-87076190D01*
X164401904Y-87076190D01*
X164473333Y-87100000D01*
X160647619Y-128876190D02*
X160409523Y-128876190D01*
X160409523Y-128376190D01*
X160814285Y-128876190D02*
X160814285Y-128376190D01*
X161004761Y-128376190D01*
X161052380Y-128400000D01*
X161076190Y-128423809D01*
X161100000Y-128471428D01*
X161100000Y-128542857D01*
X161076190Y-128590476D01*
X161052380Y-128614285D01*
X161004761Y-128638095D01*
X160814285Y-128638095D01*
X161314285Y-128828571D02*
X161338095Y-128852380D01*
X161314285Y-128876190D01*
X161290476Y-128852380D01*
X161314285Y-128828571D01*
X161314285Y-128876190D01*
X161838095Y-128876190D02*
X161671428Y-128638095D01*
X161552380Y-128876190D02*
X161552380Y-128376190D01*
X161742857Y-128376190D01*
X161790476Y-128400000D01*
X161814285Y-128423809D01*
X161838095Y-128471428D01*
X161838095Y-128542857D01*
X161814285Y-128590476D01*
X161790476Y-128614285D01*
X161742857Y-128638095D01*
X161552380Y-128638095D01*
X162004761Y-128376190D02*
X162338095Y-128876190D01*
X162338095Y-128376190D02*
X162004761Y-128876190D01*
X138783333Y-115564285D02*
X138616666Y-115564285D01*
X138616666Y-115826190D02*
X138616666Y-115326190D01*
X138854761Y-115326190D01*
X139211904Y-115564285D02*
X139283333Y-115588095D01*
X139307142Y-115611904D01*
X139330952Y-115659523D01*
X139330952Y-115730952D01*
X139307142Y-115778571D01*
X139283333Y-115802380D01*
X139235714Y-115826190D01*
X139045238Y-115826190D01*
X139045238Y-115326190D01*
X139211904Y-115326190D01*
X139259523Y-115350000D01*
X139283333Y-115373809D01*
X139307142Y-115421428D01*
X139307142Y-115469047D01*
X139283333Y-115516666D01*
X139259523Y-115540476D01*
X139211904Y-115564285D01*
X139045238Y-115564285D01*
X139807142Y-115826190D02*
X139521428Y-115826190D01*
X139664285Y-115826190D02*
X139664285Y-115326190D01*
X139616666Y-115397619D01*
X139569047Y-115445238D01*
X139521428Y-115469047D01*
X139256666Y-120878571D02*
X139232857Y-120902380D01*
X139161428Y-120926190D01*
X139113809Y-120926190D01*
X139042380Y-120902380D01*
X138994761Y-120854761D01*
X138970952Y-120807142D01*
X138947142Y-120711904D01*
X138947142Y-120640476D01*
X138970952Y-120545238D01*
X138994761Y-120497619D01*
X139042380Y-120450000D01*
X139113809Y-120426190D01*
X139161428Y-120426190D01*
X139232857Y-120450000D01*
X139256666Y-120473809D01*
X139732857Y-120926190D02*
X139447142Y-120926190D01*
X139590000Y-120926190D02*
X139590000Y-120426190D01*
X139542380Y-120497619D01*
X139494761Y-120545238D01*
X139447142Y-120569047D01*
X151616666Y-101178571D02*
X151592857Y-101202380D01*
X151521428Y-101226190D01*
X151473809Y-101226190D01*
X151402380Y-101202380D01*
X151354761Y-101154761D01*
X151330952Y-101107142D01*
X151307142Y-101011904D01*
X151307142Y-100940476D01*
X151330952Y-100845238D01*
X151354761Y-100797619D01*
X151402380Y-100750000D01*
X151473809Y-100726190D01*
X151521428Y-100726190D01*
X151592857Y-100750000D01*
X151616666Y-100773809D01*
X152045238Y-100726190D02*
X151950000Y-100726190D01*
X151902380Y-100750000D01*
X151878571Y-100773809D01*
X151830952Y-100845238D01*
X151807142Y-100940476D01*
X151807142Y-101130952D01*
X151830952Y-101178571D01*
X151854761Y-101202380D01*
X151902380Y-101226190D01*
X151997619Y-101226190D01*
X152045238Y-101202380D01*
X152069047Y-101178571D01*
X152092857Y-101130952D01*
X152092857Y-101011904D01*
X152069047Y-100964285D01*
X152045238Y-100940476D01*
X151997619Y-100916666D01*
X151902380Y-100916666D01*
X151854761Y-100940476D01*
X151830952Y-100964285D01*
X151807142Y-101011904D01*
X155377142Y-128876190D02*
X155139047Y-128876190D01*
X155139047Y-128376190D01*
X155543809Y-128876190D02*
X155543809Y-128376190D01*
X155734285Y-128376190D01*
X155781904Y-128400000D01*
X155805714Y-128423809D01*
X155829523Y-128471428D01*
X155829523Y-128542857D01*
X155805714Y-128590476D01*
X155781904Y-128614285D01*
X155734285Y-128638095D01*
X155543809Y-128638095D01*
X156043809Y-128828571D02*
X156067619Y-128852380D01*
X156043809Y-128876190D01*
X156020000Y-128852380D01*
X156043809Y-128828571D01*
X156043809Y-128876190D01*
X156567619Y-128828571D02*
X156543809Y-128852380D01*
X156472380Y-128876190D01*
X156424761Y-128876190D01*
X156353333Y-128852380D01*
X156305714Y-128804761D01*
X156281904Y-128757142D01*
X156258095Y-128661904D01*
X156258095Y-128590476D01*
X156281904Y-128495238D01*
X156305714Y-128447619D01*
X156353333Y-128400000D01*
X156424761Y-128376190D01*
X156472380Y-128376190D01*
X156543809Y-128400000D01*
X156567619Y-128423809D01*
X156710476Y-128376190D02*
X156996190Y-128376190D01*
X156853333Y-128876190D02*
X156853333Y-128376190D01*
X157139047Y-128852380D02*
X157210476Y-128876190D01*
X157329523Y-128876190D01*
X157377142Y-128852380D01*
X157400952Y-128828571D01*
X157424761Y-128780952D01*
X157424761Y-128733333D01*
X157400952Y-128685714D01*
X157377142Y-128661904D01*
X157329523Y-128638095D01*
X157234285Y-128614285D01*
X157186666Y-128590476D01*
X157162857Y-128566666D01*
X157139047Y-128519047D01*
X157139047Y-128471428D01*
X157162857Y-128423809D01*
X157186666Y-128400000D01*
X157234285Y-128376190D01*
X157353333Y-128376190D01*
X157424761Y-128400000D01*
X147206666Y-118536190D02*
X147040000Y-118298095D01*
X146920952Y-118536190D02*
X146920952Y-118036190D01*
X147111428Y-118036190D01*
X147159047Y-118060000D01*
X147182857Y-118083809D01*
X147206666Y-118131428D01*
X147206666Y-118202857D01*
X147182857Y-118250476D01*
X147159047Y-118274285D01*
X147111428Y-118298095D01*
X146920952Y-118298095D01*
X147397142Y-118083809D02*
X147420952Y-118060000D01*
X147468571Y-118036190D01*
X147587619Y-118036190D01*
X147635238Y-118060000D01*
X147659047Y-118083809D01*
X147682857Y-118131428D01*
X147682857Y-118179047D01*
X147659047Y-118250476D01*
X147373333Y-118536190D01*
X147682857Y-118536190D01*
X162997142Y-128876190D02*
X162759047Y-128876190D01*
X162759047Y-128376190D01*
X163163809Y-128876190D02*
X163163809Y-128376190D01*
X163354285Y-128376190D01*
X163401904Y-128400000D01*
X163425714Y-128423809D01*
X163449523Y-128471428D01*
X163449523Y-128542857D01*
X163425714Y-128590476D01*
X163401904Y-128614285D01*
X163354285Y-128638095D01*
X163163809Y-128638095D01*
X163663809Y-128828571D02*
X163687619Y-128852380D01*
X163663809Y-128876190D01*
X163640000Y-128852380D01*
X163663809Y-128828571D01*
X163663809Y-128876190D01*
X164187619Y-128876190D02*
X164020952Y-128638095D01*
X163901904Y-128876190D02*
X163901904Y-128376190D01*
X164092380Y-128376190D01*
X164140000Y-128400000D01*
X164163809Y-128423809D01*
X164187619Y-128471428D01*
X164187619Y-128542857D01*
X164163809Y-128590476D01*
X164140000Y-128614285D01*
X164092380Y-128638095D01*
X163901904Y-128638095D01*
X164330476Y-128376190D02*
X164616190Y-128376190D01*
X164473333Y-128876190D02*
X164473333Y-128376190D01*
X164759047Y-128852380D02*
X164830476Y-128876190D01*
X164949523Y-128876190D01*
X164997142Y-128852380D01*
X165020952Y-128828571D01*
X165044761Y-128780952D01*
X165044761Y-128733333D01*
X165020952Y-128685714D01*
X164997142Y-128661904D01*
X164949523Y-128638095D01*
X164854285Y-128614285D01*
X164806666Y-128590476D01*
X164782857Y-128566666D01*
X164759047Y-128519047D01*
X164759047Y-128471428D01*
X164782857Y-128423809D01*
X164806666Y-128400000D01*
X164854285Y-128376190D01*
X164973333Y-128376190D01*
X165044761Y-128400000D01*
X150036666Y-123066190D02*
X149870000Y-122828095D01*
X149750952Y-123066190D02*
X149750952Y-122566190D01*
X149941428Y-122566190D01*
X149989047Y-122590000D01*
X150012857Y-122613809D01*
X150036666Y-122661428D01*
X150036666Y-122732857D01*
X150012857Y-122780476D01*
X149989047Y-122804285D01*
X149941428Y-122828095D01*
X149750952Y-122828095D01*
X150465238Y-122732857D02*
X150465238Y-123066190D01*
X150346190Y-122542380D02*
X150227142Y-122899523D01*
X150536666Y-122899523D01*
X144166666Y-118486190D02*
X144000000Y-118248095D01*
X143880952Y-118486190D02*
X143880952Y-117986190D01*
X144071428Y-117986190D01*
X144119047Y-118010000D01*
X144142857Y-118033809D01*
X144166666Y-118081428D01*
X144166666Y-118152857D01*
X144142857Y-118200476D01*
X144119047Y-118224285D01*
X144071428Y-118248095D01*
X143880952Y-118248095D01*
X144642857Y-118486190D02*
X144357142Y-118486190D01*
X144500000Y-118486190D02*
X144500000Y-117986190D01*
X144452380Y-118057619D01*
X144404761Y-118105238D01*
X144357142Y-118129047D01*
X151616666Y-102968571D02*
X151592857Y-102992380D01*
X151521428Y-103016190D01*
X151473809Y-103016190D01*
X151402380Y-102992380D01*
X151354761Y-102944761D01*
X151330952Y-102897142D01*
X151307142Y-102801904D01*
X151307142Y-102730476D01*
X151330952Y-102635238D01*
X151354761Y-102587619D01*
X151402380Y-102540000D01*
X151473809Y-102516190D01*
X151521428Y-102516190D01*
X151592857Y-102540000D01*
X151616666Y-102563809D01*
X152069047Y-102516190D02*
X151830952Y-102516190D01*
X151807142Y-102754285D01*
X151830952Y-102730476D01*
X151878571Y-102706666D01*
X151997619Y-102706666D01*
X152045238Y-102730476D01*
X152069047Y-102754285D01*
X152092857Y-102801904D01*
X152092857Y-102920952D01*
X152069047Y-102968571D01*
X152045238Y-102992380D01*
X151997619Y-103016190D01*
X151878571Y-103016190D01*
X151830952Y-102992380D01*
X151807142Y-102968571D01*
X171540952Y-110406190D02*
X171540952Y-109906190D01*
X171660000Y-109906190D01*
X171731428Y-109930000D01*
X171779047Y-109977619D01*
X171802857Y-110025238D01*
X171826666Y-110120476D01*
X171826666Y-110191904D01*
X171802857Y-110287142D01*
X171779047Y-110334761D01*
X171731428Y-110382380D01*
X171660000Y-110406190D01*
X171540952Y-110406190D01*
X172255238Y-110072857D02*
X172255238Y-110406190D01*
X172136190Y-109882380D02*
X172017142Y-110239523D01*
X172326666Y-110239523D01*
X165650952Y-108036190D02*
X165650952Y-107536190D01*
X165770000Y-107536190D01*
X165841428Y-107560000D01*
X165889047Y-107607619D01*
X165912857Y-107655238D01*
X165936666Y-107750476D01*
X165936666Y-107821904D01*
X165912857Y-107917142D01*
X165889047Y-107964761D01*
X165841428Y-108012380D01*
X165770000Y-108036190D01*
X165650952Y-108036190D01*
X166103333Y-107536190D02*
X166436666Y-107536190D01*
X166222380Y-108036190D01*
X143911904Y-101096190D02*
X143911904Y-100596190D01*
X144435714Y-101048571D02*
X144411904Y-101072380D01*
X144340476Y-101096190D01*
X144292857Y-101096190D01*
X144221428Y-101072380D01*
X144173809Y-101024761D01*
X144150000Y-100977142D01*
X144126190Y-100881904D01*
X144126190Y-100810476D01*
X144150000Y-100715238D01*
X144173809Y-100667619D01*
X144221428Y-100620000D01*
X144292857Y-100596190D01*
X144340476Y-100596190D01*
X144411904Y-100620000D01*
X144435714Y-100643809D01*
X144911904Y-101096190D02*
X144626190Y-101096190D01*
X144769047Y-101096190D02*
X144769047Y-100596190D01*
X144721428Y-100667619D01*
X144673809Y-100715238D01*
X144626190Y-100739047D01*
D12*
X140002857Y-95072380D02*
X140002857Y-94072380D01*
X140383809Y-94072380D01*
X140479047Y-94120000D01*
X140526666Y-94167619D01*
X140574285Y-94262857D01*
X140574285Y-94405714D01*
X140526666Y-94500952D01*
X140479047Y-94548571D01*
X140383809Y-94596190D01*
X140002857Y-94596190D01*
X141669523Y-95167619D02*
X141574285Y-95120000D01*
X141479047Y-95024761D01*
X141336190Y-94881904D01*
X141240952Y-94834285D01*
X141145714Y-94834285D01*
X141193333Y-95072380D02*
X141098095Y-95024761D01*
X141002857Y-94929523D01*
X140955238Y-94739047D01*
X140955238Y-94405714D01*
X141002857Y-94215238D01*
X141098095Y-94120000D01*
X141193333Y-94072380D01*
X141383809Y-94072380D01*
X141479047Y-94120000D01*
X141574285Y-94215238D01*
X141621904Y-94405714D01*
X141621904Y-94739047D01*
X141574285Y-94929523D01*
X141479047Y-95024761D01*
X141383809Y-95072380D01*
X141193333Y-95072380D01*
X143383809Y-94977142D02*
X143336190Y-95024761D01*
X143193333Y-95072380D01*
X143098095Y-95072380D01*
X142955238Y-95024761D01*
X142860000Y-94929523D01*
X142812380Y-94834285D01*
X142764761Y-94643809D01*
X142764761Y-94500952D01*
X142812380Y-94310476D01*
X142860000Y-94215238D01*
X142955238Y-94120000D01*
X143098095Y-94072380D01*
X143193333Y-94072380D01*
X143336190Y-94120000D01*
X143383809Y-94167619D01*
X143812380Y-95072380D02*
X143812380Y-94072380D01*
X144050476Y-94072380D01*
X144193333Y-94120000D01*
X144288571Y-94215238D01*
X144336190Y-94310476D01*
X144383809Y-94500952D01*
X144383809Y-94643809D01*
X144336190Y-94834285D01*
X144288571Y-94929523D01*
X144193333Y-95024761D01*
X144050476Y-95072380D01*
X143812380Y-95072380D01*
X144812380Y-95072380D02*
X144812380Y-94072380D01*
X144812380Y-94548571D02*
X145383809Y-94548571D01*
X145383809Y-95072380D02*
X145383809Y-94072380D01*
X146526666Y-94405714D02*
X146764761Y-95072380D01*
X147002857Y-94405714D01*
X147574285Y-94072380D02*
X147669523Y-94072380D01*
X147764761Y-94120000D01*
X147812380Y-94167619D01*
X147860000Y-94262857D01*
X147907619Y-94453333D01*
X147907619Y-94691428D01*
X147860000Y-94881904D01*
X147812380Y-94977142D01*
X147764761Y-95024761D01*
X147669523Y-95072380D01*
X147574285Y-95072380D01*
X147479047Y-95024761D01*
X147431428Y-94977142D01*
X147383809Y-94881904D01*
X147336190Y-94691428D01*
X147336190Y-94453333D01*
X147383809Y-94262857D01*
X147431428Y-94167619D01*
X147479047Y-94120000D01*
X147574285Y-94072380D01*
X148336190Y-94977142D02*
X148383809Y-95024761D01*
X148336190Y-95072380D01*
X148288571Y-95024761D01*
X148336190Y-94977142D01*
X148336190Y-95072380D01*
X149336190Y-95072380D02*
X148764761Y-95072380D01*
X149050476Y-95072380D02*
X149050476Y-94072380D01*
X148955238Y-94215238D01*
X148860000Y-94310476D01*
X148764761Y-94358095D01*
X149764761Y-94977142D02*
X149812380Y-95024761D01*
X149764761Y-95072380D01*
X149717142Y-95024761D01*
X149764761Y-94977142D01*
X149764761Y-95072380D01*
X150431428Y-94072380D02*
X150526666Y-94072380D01*
X150621904Y-94120000D01*
X150669523Y-94167619D01*
X150717142Y-94262857D01*
X150764761Y-94453333D01*
X150764761Y-94691428D01*
X150717142Y-94881904D01*
X150669523Y-94977142D01*
X150621904Y-95024761D01*
X150526666Y-95072380D01*
X150431428Y-95072380D01*
X150336190Y-95024761D01*
X150288571Y-94977142D01*
X150240952Y-94881904D01*
X150193333Y-94691428D01*
X150193333Y-94453333D01*
X150240952Y-94262857D01*
X150288571Y-94167619D01*
X150336190Y-94120000D01*
X150431428Y-94072380D01*
D10*
X169212857Y-101546190D02*
X169212857Y-101046190D01*
X169212857Y-101284285D02*
X169498571Y-101284285D01*
X169498571Y-101546190D02*
X169498571Y-101046190D01*
X169712857Y-101522380D02*
X169784285Y-101546190D01*
X169903333Y-101546190D01*
X169950952Y-101522380D01*
X169974761Y-101498571D01*
X169998571Y-101450952D01*
X169998571Y-101403333D01*
X169974761Y-101355714D01*
X169950952Y-101331904D01*
X169903333Y-101308095D01*
X169808095Y-101284285D01*
X169760476Y-101260476D01*
X169736666Y-101236666D01*
X169712857Y-101189047D01*
X169712857Y-101141428D01*
X169736666Y-101093809D01*
X169760476Y-101070000D01*
X169808095Y-101046190D01*
X169927142Y-101046190D01*
X169998571Y-101070000D01*
X170308095Y-101308095D02*
X170308095Y-101546190D01*
X170141428Y-101046190D02*
X170308095Y-101308095D01*
X170474761Y-101046190D01*
X170641428Y-101546190D02*
X170641428Y-101046190D01*
X170927142Y-101546190D01*
X170927142Y-101046190D01*
X171450952Y-101498571D02*
X171427142Y-101522380D01*
X171355714Y-101546190D01*
X171308095Y-101546190D01*
X171236666Y-101522380D01*
X171189047Y-101474761D01*
X171165238Y-101427142D01*
X171141428Y-101331904D01*
X171141428Y-101260476D01*
X171165238Y-101165238D01*
X171189047Y-101117619D01*
X171236666Y-101070000D01*
X171308095Y-101046190D01*
X171355714Y-101046190D01*
X171427142Y-101070000D01*
X171450952Y-101093809D01*
X153634761Y-87528571D02*
X153610952Y-87552380D01*
X153539523Y-87576190D01*
X153491904Y-87576190D01*
X153420476Y-87552380D01*
X153372857Y-87504761D01*
X153349047Y-87457142D01*
X153325238Y-87361904D01*
X153325238Y-87290476D01*
X153349047Y-87195238D01*
X153372857Y-87147619D01*
X153420476Y-87100000D01*
X153491904Y-87076190D01*
X153539523Y-87076190D01*
X153610952Y-87100000D01*
X153634761Y-87123809D01*
X153849047Y-87576190D02*
X153849047Y-87076190D01*
X154134761Y-87576190D02*
X153920476Y-87290476D01*
X154134761Y-87076190D02*
X153849047Y-87361904D01*
X165690952Y-110516190D02*
X165690952Y-110016190D01*
X165810000Y-110016190D01*
X165881428Y-110040000D01*
X165929047Y-110087619D01*
X165952857Y-110135238D01*
X165976666Y-110230476D01*
X165976666Y-110301904D01*
X165952857Y-110397142D01*
X165929047Y-110444761D01*
X165881428Y-110492380D01*
X165810000Y-110516190D01*
X165690952Y-110516190D01*
X166429047Y-110016190D02*
X166190952Y-110016190D01*
X166167142Y-110254285D01*
X166190952Y-110230476D01*
X166238571Y-110206666D01*
X166357619Y-110206666D01*
X166405238Y-110230476D01*
X166429047Y-110254285D01*
X166452857Y-110301904D01*
X166452857Y-110420952D01*
X166429047Y-110468571D01*
X166405238Y-110492380D01*
X166357619Y-110516190D01*
X166238571Y-110516190D01*
X166190952Y-110492380D01*
X166167142Y-110468571D01*
X148226666Y-99428571D02*
X148202857Y-99452380D01*
X148131428Y-99476190D01*
X148083809Y-99476190D01*
X148012380Y-99452380D01*
X147964761Y-99404761D01*
X147940952Y-99357142D01*
X147917142Y-99261904D01*
X147917142Y-99190476D01*
X147940952Y-99095238D01*
X147964761Y-99047619D01*
X148012380Y-99000000D01*
X148083809Y-98976190D01*
X148131428Y-98976190D01*
X148202857Y-99000000D01*
X148226666Y-99023809D01*
X148393333Y-98976190D02*
X148702857Y-98976190D01*
X148536190Y-99166666D01*
X148607619Y-99166666D01*
X148655238Y-99190476D01*
X148679047Y-99214285D01*
X148702857Y-99261904D01*
X148702857Y-99380952D01*
X148679047Y-99428571D01*
X148655238Y-99452380D01*
X148607619Y-99476190D01*
X148464761Y-99476190D01*
X148417142Y-99452380D01*
X148393333Y-99428571D01*
X150368571Y-87576190D02*
X150368571Y-87076190D01*
X150654285Y-87576190D01*
X150654285Y-87076190D01*
X151178095Y-87576190D02*
X151011428Y-87338095D01*
X150892380Y-87576190D02*
X150892380Y-87076190D01*
X151082857Y-87076190D01*
X151130476Y-87100000D01*
X151154285Y-87123809D01*
X151178095Y-87171428D01*
X151178095Y-87242857D01*
X151154285Y-87290476D01*
X151130476Y-87314285D01*
X151082857Y-87338095D01*
X150892380Y-87338095D01*
X151368571Y-87552380D02*
X151440000Y-87576190D01*
X151559047Y-87576190D01*
X151606666Y-87552380D01*
X151630476Y-87528571D01*
X151654285Y-87480952D01*
X151654285Y-87433333D01*
X151630476Y-87385714D01*
X151606666Y-87361904D01*
X151559047Y-87338095D01*
X151463809Y-87314285D01*
X151416190Y-87290476D01*
X151392380Y-87266666D01*
X151368571Y-87219047D01*
X151368571Y-87171428D01*
X151392380Y-87123809D01*
X151416190Y-87100000D01*
X151463809Y-87076190D01*
X151582857Y-87076190D01*
X151654285Y-87100000D01*
X151797142Y-87076190D02*
X152082857Y-87076190D01*
X151940000Y-87576190D02*
X151940000Y-87076190D01*
X162981904Y-101246190D02*
X162981904Y-100746190D01*
X163505714Y-101198571D02*
X163481904Y-101222380D01*
X163410476Y-101246190D01*
X163362857Y-101246190D01*
X163291428Y-101222380D01*
X163243809Y-101174761D01*
X163220000Y-101127142D01*
X163196190Y-101031904D01*
X163196190Y-100960476D01*
X163220000Y-100865238D01*
X163243809Y-100817619D01*
X163291428Y-100770000D01*
X163362857Y-100746190D01*
X163410476Y-100746190D01*
X163481904Y-100770000D01*
X163505714Y-100793809D01*
X163696190Y-100793809D02*
X163720000Y-100770000D01*
X163767619Y-100746190D01*
X163886666Y-100746190D01*
X163934285Y-100770000D01*
X163958095Y-100793809D01*
X163981904Y-100841428D01*
X163981904Y-100889047D01*
X163958095Y-100960476D01*
X163672380Y-101246190D01*
X163981904Y-101246190D01*
X160368571Y-116598571D02*
X160344761Y-116622380D01*
X160273333Y-116646190D01*
X160225714Y-116646190D01*
X160154285Y-116622380D01*
X160106666Y-116574761D01*
X160082857Y-116527142D01*
X160059047Y-116431904D01*
X160059047Y-116360476D01*
X160082857Y-116265238D01*
X160106666Y-116217619D01*
X160154285Y-116170000D01*
X160225714Y-116146190D01*
X160273333Y-116146190D01*
X160344761Y-116170000D01*
X160368571Y-116193809D01*
X160844761Y-116646190D02*
X160559047Y-116646190D01*
X160701904Y-116646190D02*
X160701904Y-116146190D01*
X160654285Y-116217619D01*
X160606666Y-116265238D01*
X160559047Y-116289047D01*
X161011428Y-116146190D02*
X161320952Y-116146190D01*
X161154285Y-116336666D01*
X161225714Y-116336666D01*
X161273333Y-116360476D01*
X161297142Y-116384285D01*
X161320952Y-116431904D01*
X161320952Y-116550952D01*
X161297142Y-116598571D01*
X161273333Y-116622380D01*
X161225714Y-116646190D01*
X161082857Y-116646190D01*
X161035238Y-116622380D01*
X161011428Y-116598571D01*
X160408571Y-111018571D02*
X160384761Y-111042380D01*
X160313333Y-111066190D01*
X160265714Y-111066190D01*
X160194285Y-111042380D01*
X160146666Y-110994761D01*
X160122857Y-110947142D01*
X160099047Y-110851904D01*
X160099047Y-110780476D01*
X160122857Y-110685238D01*
X160146666Y-110637619D01*
X160194285Y-110590000D01*
X160265714Y-110566190D01*
X160313333Y-110566190D01*
X160384761Y-110590000D01*
X160408571Y-110613809D01*
X160884761Y-111066190D02*
X160599047Y-111066190D01*
X160741904Y-111066190D02*
X160741904Y-110566190D01*
X160694285Y-110637619D01*
X160646666Y-110685238D01*
X160599047Y-110709047D01*
X161360952Y-111066190D02*
X161075238Y-111066190D01*
X161218095Y-111066190D02*
X161218095Y-110566190D01*
X161170476Y-110637619D01*
X161122857Y-110685238D01*
X161075238Y-110709047D01*
X171540952Y-112953690D02*
X171540952Y-112453690D01*
X171660000Y-112453690D01*
X171731428Y-112477500D01*
X171779047Y-112525119D01*
X171802857Y-112572738D01*
X171826666Y-112667976D01*
X171826666Y-112739404D01*
X171802857Y-112834642D01*
X171779047Y-112882261D01*
X171731428Y-112929880D01*
X171660000Y-112953690D01*
X171540952Y-112953690D01*
X172017142Y-112501309D02*
X172040952Y-112477500D01*
X172088571Y-112453690D01*
X172207619Y-112453690D01*
X172255238Y-112477500D01*
X172279047Y-112501309D01*
X172302857Y-112548928D01*
X172302857Y-112596547D01*
X172279047Y-112667976D01*
X171993333Y-112953690D01*
X172302857Y-112953690D01*
X155996190Y-87528571D02*
X155972380Y-87552380D01*
X155900952Y-87576190D01*
X155853333Y-87576190D01*
X155781904Y-87552380D01*
X155734285Y-87504761D01*
X155710476Y-87457142D01*
X155686666Y-87361904D01*
X155686666Y-87290476D01*
X155710476Y-87195238D01*
X155734285Y-87147619D01*
X155781904Y-87100000D01*
X155853333Y-87076190D01*
X155900952Y-87076190D01*
X155972380Y-87100000D01*
X155996190Y-87123809D01*
X156139047Y-87076190D02*
X156424761Y-87076190D01*
X156281904Y-87576190D02*
X156281904Y-87076190D01*
X156567619Y-87552380D02*
X156639047Y-87576190D01*
X156758095Y-87576190D01*
X156805714Y-87552380D01*
X156829523Y-87528571D01*
X156853333Y-87480952D01*
X156853333Y-87433333D01*
X156829523Y-87385714D01*
X156805714Y-87361904D01*
X156758095Y-87338095D01*
X156662857Y-87314285D01*
X156615238Y-87290476D01*
X156591428Y-87266666D01*
X156567619Y-87219047D01*
X156567619Y-87171428D01*
X156591428Y-87123809D01*
X156615238Y-87100000D01*
X156662857Y-87076190D01*
X156781904Y-87076190D01*
X156853333Y-87100000D01*
X158429047Y-87076190D02*
X158714761Y-87076190D01*
X158571904Y-87576190D02*
X158571904Y-87076190D01*
X158833809Y-87076190D02*
X159167142Y-87576190D01*
X159167142Y-87076190D02*
X158833809Y-87576190D01*
X134452380Y-122809523D02*
X134476190Y-122738095D01*
X134476190Y-122619047D01*
X134452380Y-122571428D01*
X134428571Y-122547619D01*
X134380952Y-122523809D01*
X134333333Y-122523809D01*
X134285714Y-122547619D01*
X134261904Y-122571428D01*
X134238095Y-122619047D01*
X134214285Y-122714285D01*
X134190476Y-122761904D01*
X134166666Y-122785714D01*
X134119047Y-122809523D01*
X134071428Y-122809523D01*
X134023809Y-122785714D01*
X134000000Y-122761904D01*
X133976190Y-122714285D01*
X133976190Y-122595238D01*
X134000000Y-122523809D01*
X133976190Y-122357142D02*
X134476190Y-122238095D01*
X134119047Y-122142857D01*
X134476190Y-122047619D01*
X133976190Y-121928571D01*
X134476190Y-121738095D02*
X133976190Y-121738095D01*
X133976190Y-121619047D01*
X134000000Y-121547619D01*
X134047619Y-121500000D01*
X134095238Y-121476190D01*
X134190476Y-121452380D01*
X134261904Y-121452380D01*
X134357142Y-121476190D01*
X134404761Y-121500000D01*
X134452380Y-121547619D01*
X134476190Y-121619047D01*
X134476190Y-121738095D01*
X134476190Y-121238095D02*
X133976190Y-121238095D01*
X133976190Y-120904761D02*
X133976190Y-120809523D01*
X134000000Y-120761904D01*
X134047619Y-120714285D01*
X134142857Y-120690476D01*
X134309523Y-120690476D01*
X134404761Y-120714285D01*
X134452380Y-120761904D01*
X134476190Y-120809523D01*
X134476190Y-120904761D01*
X134452380Y-120952380D01*
X134404761Y-121000000D01*
X134309523Y-121023809D01*
X134142857Y-121023809D01*
X134047619Y-121000000D01*
X134000000Y-120952380D01*
X133976190Y-120904761D01*
X134452380Y-125880952D02*
X134476190Y-125809523D01*
X134476190Y-125690476D01*
X134452380Y-125642857D01*
X134428571Y-125619047D01*
X134380952Y-125595238D01*
X134333333Y-125595238D01*
X134285714Y-125619047D01*
X134261904Y-125642857D01*
X134238095Y-125690476D01*
X134214285Y-125785714D01*
X134190476Y-125833333D01*
X134166666Y-125857142D01*
X134119047Y-125880952D01*
X134071428Y-125880952D01*
X134023809Y-125857142D01*
X134000000Y-125833333D01*
X133976190Y-125785714D01*
X133976190Y-125666666D01*
X134000000Y-125595238D01*
X133976190Y-125428571D02*
X134476190Y-125309523D01*
X134119047Y-125214285D01*
X134476190Y-125119047D01*
X133976190Y-125000000D01*
X134428571Y-124523809D02*
X134452380Y-124547619D01*
X134476190Y-124619047D01*
X134476190Y-124666666D01*
X134452380Y-124738095D01*
X134404761Y-124785714D01*
X134357142Y-124809523D01*
X134261904Y-124833333D01*
X134190476Y-124833333D01*
X134095238Y-124809523D01*
X134047619Y-124785714D01*
X134000000Y-124738095D01*
X133976190Y-124666666D01*
X133976190Y-124619047D01*
X134000000Y-124547619D01*
X134023809Y-124523809D01*
X134476190Y-124071428D02*
X134476190Y-124309523D01*
X133976190Y-124309523D01*
X134476190Y-123904761D02*
X133976190Y-123904761D01*
X134476190Y-123619047D02*
X134190476Y-123833333D01*
X133976190Y-123619047D02*
X134261904Y-123904761D01*
X171580952Y-107966190D02*
X171580952Y-107466190D01*
X171700000Y-107466190D01*
X171771428Y-107490000D01*
X171819047Y-107537619D01*
X171842857Y-107585238D01*
X171866666Y-107680476D01*
X171866666Y-107751904D01*
X171842857Y-107847142D01*
X171819047Y-107894761D01*
X171771428Y-107942380D01*
X171700000Y-107966190D01*
X171580952Y-107966190D01*
X172295238Y-107466190D02*
X172200000Y-107466190D01*
X172152380Y-107490000D01*
X172128571Y-107513809D01*
X172080952Y-107585238D01*
X172057142Y-107680476D01*
X172057142Y-107870952D01*
X172080952Y-107918571D01*
X172104761Y-107942380D01*
X172152380Y-107966190D01*
X172247619Y-107966190D01*
X172295238Y-107942380D01*
X172319047Y-107918571D01*
X172342857Y-107870952D01*
X172342857Y-107751904D01*
X172319047Y-107704285D01*
X172295238Y-107680476D01*
X172247619Y-107656666D01*
X172152380Y-107656666D01*
X172104761Y-107680476D01*
X172080952Y-107704285D01*
X172057142Y-107751904D01*
X159456666Y-101178571D02*
X159432857Y-101202380D01*
X159361428Y-101226190D01*
X159313809Y-101226190D01*
X159242380Y-101202380D01*
X159194761Y-101154761D01*
X159170952Y-101107142D01*
X159147142Y-101011904D01*
X159147142Y-100940476D01*
X159170952Y-100845238D01*
X159194761Y-100797619D01*
X159242380Y-100750000D01*
X159313809Y-100726190D01*
X159361428Y-100726190D01*
X159432857Y-100750000D01*
X159456666Y-100773809D01*
X159623333Y-100726190D02*
X159956666Y-100726190D01*
X159742380Y-101226190D01*
X175250000Y-119880952D02*
X175226190Y-119928571D01*
X175226190Y-120000000D01*
X175250000Y-120071428D01*
X175297619Y-120119047D01*
X175345238Y-120142857D01*
X175440476Y-120166666D01*
X175511904Y-120166666D01*
X175607142Y-120142857D01*
X175654761Y-120119047D01*
X175702380Y-120071428D01*
X175726190Y-120000000D01*
X175726190Y-119952380D01*
X175702380Y-119880952D01*
X175678571Y-119857142D01*
X175511904Y-119857142D01*
X175511904Y-119952380D01*
X175726190Y-119642857D02*
X175226190Y-119642857D01*
X175726190Y-119357142D01*
X175226190Y-119357142D01*
X175726190Y-119119047D02*
X175226190Y-119119047D01*
X175226190Y-119000000D01*
X175250000Y-118928571D01*
X175297619Y-118880952D01*
X175345238Y-118857142D01*
X175440476Y-118833333D01*
X175511904Y-118833333D01*
X175607142Y-118857142D01*
X175654761Y-118880952D01*
X175702380Y-118928571D01*
X175726190Y-119000000D01*
X175726190Y-119119047D01*
X134100000Y-96880952D02*
X134076190Y-96928571D01*
X134076190Y-97000000D01*
X134100000Y-97071428D01*
X134147619Y-97119047D01*
X134195238Y-97142857D01*
X134290476Y-97166666D01*
X134361904Y-97166666D01*
X134457142Y-97142857D01*
X134504761Y-97119047D01*
X134552380Y-97071428D01*
X134576190Y-97000000D01*
X134576190Y-96952380D01*
X134552380Y-96880952D01*
X134528571Y-96857142D01*
X134361904Y-96857142D01*
X134361904Y-96952380D01*
X134576190Y-96642857D02*
X134076190Y-96642857D01*
X134576190Y-96357142D01*
X134076190Y-96357142D01*
X134576190Y-96119047D02*
X134076190Y-96119047D01*
X134076190Y-96000000D01*
X134100000Y-95928571D01*
X134147619Y-95880952D01*
X134195238Y-95857142D01*
X134290476Y-95833333D01*
X134361904Y-95833333D01*
X134457142Y-95857142D01*
X134504761Y-95880952D01*
X134552380Y-95928571D01*
X134576190Y-96000000D01*
X134576190Y-96119047D01*
X159496666Y-102978571D02*
X159472857Y-103002380D01*
X159401428Y-103026190D01*
X159353809Y-103026190D01*
X159282380Y-103002380D01*
X159234761Y-102954761D01*
X159210952Y-102907142D01*
X159187142Y-102811904D01*
X159187142Y-102740476D01*
X159210952Y-102645238D01*
X159234761Y-102597619D01*
X159282380Y-102550000D01*
X159353809Y-102526190D01*
X159401428Y-102526190D01*
X159472857Y-102550000D01*
X159496666Y-102573809D01*
X159782380Y-102740476D02*
X159734761Y-102716666D01*
X159710952Y-102692857D01*
X159687142Y-102645238D01*
X159687142Y-102621428D01*
X159710952Y-102573809D01*
X159734761Y-102550000D01*
X159782380Y-102526190D01*
X159877619Y-102526190D01*
X159925238Y-102550000D01*
X159949047Y-102573809D01*
X159972857Y-102621428D01*
X159972857Y-102645238D01*
X159949047Y-102692857D01*
X159925238Y-102716666D01*
X159877619Y-102740476D01*
X159782380Y-102740476D01*
X159734761Y-102764285D01*
X159710952Y-102788095D01*
X159687142Y-102835714D01*
X159687142Y-102930952D01*
X159710952Y-102978571D01*
X159734761Y-103002380D01*
X159782380Y-103026190D01*
X159877619Y-103026190D01*
X159925238Y-103002380D01*
X159949047Y-102978571D01*
X159972857Y-102930952D01*
X159972857Y-102835714D01*
X159949047Y-102788095D01*
X159925238Y-102764285D01*
X159877619Y-102740476D01*
X150006666Y-120026190D02*
X149840000Y-119788095D01*
X149720952Y-120026190D02*
X149720952Y-119526190D01*
X149911428Y-119526190D01*
X149959047Y-119550000D01*
X149982857Y-119573809D01*
X150006666Y-119621428D01*
X150006666Y-119692857D01*
X149982857Y-119740476D01*
X149959047Y-119764285D01*
X149911428Y-119788095D01*
X149720952Y-119788095D01*
X150173333Y-119526190D02*
X150482857Y-119526190D01*
X150316190Y-119716666D01*
X150387619Y-119716666D01*
X150435238Y-119740476D01*
X150459047Y-119764285D01*
X150482857Y-119811904D01*
X150482857Y-119930952D01*
X150459047Y-119978571D01*
X150435238Y-120002380D01*
X150387619Y-120026190D01*
X150244761Y-120026190D01*
X150197142Y-120002380D01*
X150173333Y-119978571D01*
X141856666Y-99428571D02*
X141832857Y-99452380D01*
X141761428Y-99476190D01*
X141713809Y-99476190D01*
X141642380Y-99452380D01*
X141594761Y-99404761D01*
X141570952Y-99357142D01*
X141547142Y-99261904D01*
X141547142Y-99190476D01*
X141570952Y-99095238D01*
X141594761Y-99047619D01*
X141642380Y-99000000D01*
X141713809Y-98976190D01*
X141761428Y-98976190D01*
X141832857Y-99000000D01*
X141856666Y-99023809D01*
X142047142Y-99023809D02*
X142070952Y-99000000D01*
X142118571Y-98976190D01*
X142237619Y-98976190D01*
X142285238Y-99000000D01*
X142309047Y-99023809D01*
X142332857Y-99071428D01*
X142332857Y-99119047D01*
X142309047Y-99190476D01*
X142023333Y-99476190D01*
X142332857Y-99476190D01*
X160498571Y-107798571D02*
X160474761Y-107822380D01*
X160403333Y-107846190D01*
X160355714Y-107846190D01*
X160284285Y-107822380D01*
X160236666Y-107774761D01*
X160212857Y-107727142D01*
X160189047Y-107631904D01*
X160189047Y-107560476D01*
X160212857Y-107465238D01*
X160236666Y-107417619D01*
X160284285Y-107370000D01*
X160355714Y-107346190D01*
X160403333Y-107346190D01*
X160474761Y-107370000D01*
X160498571Y-107393809D01*
X160974761Y-107846190D02*
X160689047Y-107846190D01*
X160831904Y-107846190D02*
X160831904Y-107346190D01*
X160784285Y-107417619D01*
X160736666Y-107465238D01*
X160689047Y-107489047D01*
X161284285Y-107346190D02*
X161331904Y-107346190D01*
X161379523Y-107370000D01*
X161403333Y-107393809D01*
X161427142Y-107441428D01*
X161450952Y-107536666D01*
X161450952Y-107655714D01*
X161427142Y-107750952D01*
X161403333Y-107798571D01*
X161379523Y-107822380D01*
X161331904Y-107846190D01*
X161284285Y-107846190D01*
X161236666Y-107822380D01*
X161212857Y-107798571D01*
X161189047Y-107750952D01*
X161165238Y-107655714D01*
X161165238Y-107536666D01*
X161189047Y-107441428D01*
X161212857Y-107393809D01*
X161236666Y-107370000D01*
X161284285Y-107346190D01*
X145370476Y-124886190D02*
X145132380Y-124886190D01*
X145132380Y-124386190D01*
X145537142Y-124624285D02*
X145703809Y-124624285D01*
X145775238Y-124886190D02*
X145537142Y-124886190D01*
X145537142Y-124386190D01*
X145775238Y-124386190D01*
X145989523Y-124886190D02*
X145989523Y-124386190D01*
X146108571Y-124386190D01*
X146180000Y-124410000D01*
X146227619Y-124457619D01*
X146251428Y-124505238D01*
X146275238Y-124600476D01*
X146275238Y-124671904D01*
X146251428Y-124767142D01*
X146227619Y-124814761D01*
X146180000Y-124862380D01*
X146108571Y-124886190D01*
X145989523Y-124886190D01*
X146465714Y-124433809D02*
X146489523Y-124410000D01*
X146537142Y-124386190D01*
X146656190Y-124386190D01*
X146703809Y-124410000D01*
X146727619Y-124433809D01*
X146751428Y-124481428D01*
X146751428Y-124529047D01*
X146727619Y-124600476D01*
X146441904Y-124886190D01*
X146751428Y-124886190D01*
X165800952Y-113066190D02*
X165800952Y-112566190D01*
X165920000Y-112566190D01*
X165991428Y-112590000D01*
X166039047Y-112637619D01*
X166062857Y-112685238D01*
X166086666Y-112780476D01*
X166086666Y-112851904D01*
X166062857Y-112947142D01*
X166039047Y-112994761D01*
X165991428Y-113042380D01*
X165920000Y-113066190D01*
X165800952Y-113066190D01*
X166253333Y-112566190D02*
X166562857Y-112566190D01*
X166396190Y-112756666D01*
X166467619Y-112756666D01*
X166515238Y-112780476D01*
X166539047Y-112804285D01*
X166562857Y-112851904D01*
X166562857Y-112970952D01*
X166539047Y-113018571D01*
X166515238Y-113042380D01*
X166467619Y-113066190D01*
X166324761Y-113066190D01*
X166277142Y-113042380D01*
X166253333Y-113018571D01*
X160678571Y-94278571D02*
X160654761Y-94302380D01*
X160583333Y-94326190D01*
X160535714Y-94326190D01*
X160464285Y-94302380D01*
X160416666Y-94254761D01*
X160392857Y-94207142D01*
X160369047Y-94111904D01*
X160369047Y-94040476D01*
X160392857Y-93945238D01*
X160416666Y-93897619D01*
X160464285Y-93850000D01*
X160535714Y-93826190D01*
X160583333Y-93826190D01*
X160654761Y-93850000D01*
X160678571Y-93873809D01*
X161154761Y-94326190D02*
X160869047Y-94326190D01*
X161011904Y-94326190D02*
X161011904Y-93826190D01*
X160964285Y-93897619D01*
X160916666Y-93945238D01*
X160869047Y-93969047D01*
X161583333Y-93992857D02*
X161583333Y-94326190D01*
X161464285Y-93802380D02*
X161345238Y-94159523D01*
X161654761Y-94159523D01*
X149906666Y-115258571D02*
X149882857Y-115282380D01*
X149811428Y-115306190D01*
X149763809Y-115306190D01*
X149692380Y-115282380D01*
X149644761Y-115234761D01*
X149620952Y-115187142D01*
X149597142Y-115091904D01*
X149597142Y-115020476D01*
X149620952Y-114925238D01*
X149644761Y-114877619D01*
X149692380Y-114830000D01*
X149763809Y-114806190D01*
X149811428Y-114806190D01*
X149882857Y-114830000D01*
X149906666Y-114853809D01*
X150335238Y-114972857D02*
X150335238Y-115306190D01*
X150216190Y-114782380D02*
X150097142Y-115139523D01*
X150406666Y-115139523D01*
X164369047Y-102366190D02*
X164535714Y-102866190D01*
X164702380Y-102366190D01*
X164845238Y-102842380D02*
X164916666Y-102866190D01*
X165035714Y-102866190D01*
X165083333Y-102842380D01*
X165107142Y-102818571D01*
X165130952Y-102770952D01*
X165130952Y-102723333D01*
X165107142Y-102675714D01*
X165083333Y-102651904D01*
X165035714Y-102628095D01*
X164940476Y-102604285D01*
X164892857Y-102580476D01*
X164869047Y-102556666D01*
X164845238Y-102509047D01*
X164845238Y-102461428D01*
X164869047Y-102413809D01*
X164892857Y-102390000D01*
X164940476Y-102366190D01*
X165059523Y-102366190D01*
X165130952Y-102390000D01*
X165440476Y-102628095D02*
X165440476Y-102866190D01*
X165273809Y-102366190D02*
X165440476Y-102628095D01*
X165607142Y-102366190D01*
X165773809Y-102866190D02*
X165773809Y-102366190D01*
X166059523Y-102866190D01*
X166059523Y-102366190D01*
X166583333Y-102818571D02*
X166559523Y-102842380D01*
X166488095Y-102866190D01*
X166440476Y-102866190D01*
X166369047Y-102842380D01*
X166321428Y-102794761D01*
X166297619Y-102747142D01*
X166273809Y-102651904D01*
X166273809Y-102580476D01*
X166297619Y-102485238D01*
X166321428Y-102437619D01*
X166369047Y-102390000D01*
X166440476Y-102366190D01*
X166488095Y-102366190D01*
X166559523Y-102390000D01*
X166583333Y-102413809D01*
X157481904Y-108738095D02*
X157481904Y-108976190D01*
X157315238Y-108476190D02*
X157481904Y-108738095D01*
X157648571Y-108476190D01*
X158077142Y-108976190D02*
X157791428Y-108976190D01*
X157934285Y-108976190D02*
X157934285Y-108476190D01*
X157886666Y-108547619D01*
X157839047Y-108595238D01*
X157791428Y-108619047D01*
X160408571Y-113988571D02*
X160384761Y-114012380D01*
X160313333Y-114036190D01*
X160265714Y-114036190D01*
X160194285Y-114012380D01*
X160146666Y-113964761D01*
X160122857Y-113917142D01*
X160099047Y-113821904D01*
X160099047Y-113750476D01*
X160122857Y-113655238D01*
X160146666Y-113607619D01*
X160194285Y-113560000D01*
X160265714Y-113536190D01*
X160313333Y-113536190D01*
X160384761Y-113560000D01*
X160408571Y-113583809D01*
X160884761Y-114036190D02*
X160599047Y-114036190D01*
X160741904Y-114036190D02*
X160741904Y-113536190D01*
X160694285Y-113607619D01*
X160646666Y-113655238D01*
X160599047Y-113679047D01*
X161075238Y-113583809D02*
X161099047Y-113560000D01*
X161146666Y-113536190D01*
X161265714Y-113536190D01*
X161313333Y-113560000D01*
X161337142Y-113583809D01*
X161360952Y-113631428D01*
X161360952Y-113679047D01*
X161337142Y-113750476D01*
X161051428Y-114036190D01*
X161360952Y-114036190D01*
X161266666Y-87576190D02*
X161100000Y-87338095D01*
X160980952Y-87576190D02*
X160980952Y-87076190D01*
X161171428Y-87076190D01*
X161219047Y-87100000D01*
X161242857Y-87123809D01*
X161266666Y-87171428D01*
X161266666Y-87242857D01*
X161242857Y-87290476D01*
X161219047Y-87314285D01*
X161171428Y-87338095D01*
X160980952Y-87338095D01*
X161433333Y-87076190D02*
X161766666Y-87576190D01*
X161766666Y-87076190D02*
X161433333Y-87576190D01*
X157076666Y-105378571D02*
X157052857Y-105402380D01*
X156981428Y-105426190D01*
X156933809Y-105426190D01*
X156862380Y-105402380D01*
X156814761Y-105354761D01*
X156790952Y-105307142D01*
X156767142Y-105211904D01*
X156767142Y-105140476D01*
X156790952Y-105045238D01*
X156814761Y-104997619D01*
X156862380Y-104950000D01*
X156933809Y-104926190D01*
X156981428Y-104926190D01*
X157052857Y-104950000D01*
X157076666Y-104973809D01*
X157314761Y-105426190D02*
X157410000Y-105426190D01*
X157457619Y-105402380D01*
X157481428Y-105378571D01*
X157529047Y-105307142D01*
X157552857Y-105211904D01*
X157552857Y-105021428D01*
X157529047Y-104973809D01*
X157505238Y-104950000D01*
X157457619Y-104926190D01*
X157362380Y-104926190D01*
X157314761Y-104950000D01*
X157290952Y-104973809D01*
X157267142Y-105021428D01*
X157267142Y-105140476D01*
X157290952Y-105188095D01*
X157314761Y-105211904D01*
X157362380Y-105235714D01*
X157457619Y-105235714D01*
X157505238Y-105211904D01*
X157529047Y-105188095D01*
X157552857Y-105140476D01*
D13*
%TO.C,R5*%
X163200000Y-91925000D02*
X163200000Y-91275000D01*
%TO.C,FB1*%
X139200000Y-116600000D02*
X139200000Y-117200000D01*
%TO.C,IC1*%
X149050000Y-112650000D02*
X139750000Y-112650000D01*
X149050000Y-103350000D02*
X149050000Y-112650000D01*
X139750000Y-112650000D02*
X139750000Y-103350000D01*
X139750000Y-103350000D02*
X149050000Y-103350000D01*
D14*
X150750000Y-112500000D02*
G75*
G03*
X150750000Y-112500000I-125000J0D01*
G01*
D13*
%TO.C,R2*%
X146325000Y-118200000D02*
X145675000Y-118200000D01*
D10*
%TO.C,Y2*%
X153550000Y-114500000D02*
X153550000Y-113500000D01*
X155050000Y-114500000D02*
X155050000Y-113500000D01*
D13*
%TO.C,LED1*%
X142900000Y-124000000D02*
X142900000Y-124000000D01*
X143000000Y-124000000D02*
X143000000Y-124000000D01*
X143000000Y-124000000D02*
X143000000Y-124000000D01*
X143000000Y-124000000D02*
G75*
G03*
X142900000Y-124000000I-50000J0D01*
G01*
X143000000Y-124000000D02*
G75*
G03*
X142900000Y-124000000I-50000J0D01*
G01*
X142900000Y-124000000D02*
G75*
G03*
X143000000Y-124000000I50000J0D01*
G01*
%TO.C,R3*%
X149900000Y-120675000D02*
X149900000Y-121325000D01*
%TO.C,IC2*%
X165490000Y-94860000D02*
X165490000Y-100140000D01*
X165490000Y-100140000D02*
X160910000Y-100140000D01*
X160910000Y-94860000D02*
X165490000Y-94860000D01*
X158775000Y-94920000D02*
X160560000Y-94920000D01*
X160910000Y-100140000D02*
X160910000Y-94860000D01*
D10*
%TO.C,Y1*%
X154550000Y-107000000D02*
X154950000Y-107000000D01*
X153500000Y-108900000D02*
X153500000Y-108300000D01*
X156550000Y-109700000D02*
X156550000Y-109700000D01*
X156550000Y-109800000D02*
X156550000Y-109800000D01*
X154550000Y-110200000D02*
X154950000Y-110200000D01*
X156000000Y-108900000D02*
X156000000Y-108300000D01*
X156550000Y-109700000D02*
G75*
G03*
X156550000Y-109800000I0J-50000D01*
G01*
X156550000Y-109800000D02*
G75*
G03*
X156550000Y-109700000I0J50000D01*
G01*
D13*
%TO.C,R1*%
X143325000Y-118200000D02*
X142675000Y-118200000D01*
%TO.C,R4*%
X149900000Y-124325000D02*
X149900000Y-123675000D01*
%TO.C,LED2*%
X146000000Y-124000000D02*
X146000000Y-124000000D01*
X146000000Y-124000000D02*
X146000000Y-124000000D01*
X145900000Y-124000000D02*
X145900000Y-124000000D01*
X146000000Y-124000000D02*
G75*
G03*
X145900000Y-124000000I-50000J0D01*
G01*
X146000000Y-124000000D02*
G75*
G03*
X145900000Y-124000000I-50000J0D01*
G01*
X145900000Y-124000000D02*
G75*
G03*
X146000000Y-124000000I50000J0D01*
G01*
%TO.C,C15*%
X159400000Y-124750000D02*
X165500000Y-124750000D01*
X165500000Y-117650000D02*
X159400000Y-117650000D01*
X159400000Y-117650000D02*
X159400000Y-124750000D01*
%TD*%
M02*
