%TF.GenerationSoftware,KiCad,Pcbnew,(6.0.5)*%
%TF.CreationDate,2022-06-03T11:37:49-04:00*%
%TF.ProjectId,pq-cdh,70712d63-6468-42e6-9b69-6361645f7063,V0.1.0*%
%TF.SameCoordinates,Original*%
%TF.FileFunction,Copper,L4,Bot*%
%TF.FilePolarity,Positive*%
%FSLAX46Y46*%
G04 Gerber Fmt 4.6, Leading zero omitted, Abs format (unit mm)*
G04 Created by KiCad (PCBNEW (6.0.5)) date 2022-06-03 11:37:49*
%MOMM*%
%LPD*%
G01*
G04 APERTURE LIST*
%TA.AperFunction,NonConductor*%
%ADD10C,0.200000*%
%TD*%
%TA.AperFunction,ComponentPad*%
%ADD11C,1.540000*%
%TD*%
%TA.AperFunction,ComponentPad*%
%ADD12C,2.540000*%
%TD*%
%TA.AperFunction,ViaPad*%
%ADD13C,0.457200*%
%TD*%
%TA.AperFunction,Conductor*%
%ADD14C,0.127000*%
%TD*%
G04 APERTURE END LIST*
D10*
X136000001Y-113100000D02*
G75*
G03*
X136000001Y-113100000I-1J0D01*
G01*
X136000001Y-113100000D02*
G75*
G03*
X136000001Y-113100000I-1J0D01*
G01*
D11*
%TO.P,J1,1,Pin_1*%
%TO.N,VDD*%
X135950000Y-116890000D03*
%TO.P,J1,2,Pin_2*%
%TO.N,GND*%
X135950000Y-119430000D03*
%TO.P,J1,3,Pin_3*%
%TO.N,/SWDIO*%
X135950000Y-121970000D03*
%TO.P,J1,4,Pin_4*%
%TO.N,/SWCLK*%
X135950000Y-124510000D03*
%TD*%
%TO.P,J5,1,Pin_1*%
%TO.N,unconnected-(J5-Pad1)*%
X135950000Y-88950000D03*
%TO.P,J5,2,Pin_2*%
%TO.N,unconnected-(J5-Pad2)*%
X138490000Y-88950000D03*
%TO.P,J5,3,Pin_3*%
%TO.N,GND*%
X141030000Y-88950000D03*
%TO.P,J5,4,Pin_4*%
%TO.N,unconnected-(J5-Pad4)*%
X143570000Y-88950000D03*
%TO.P,J5,5,Pin_5*%
%TO.N,unconnected-(J5-Pad5)*%
X146110000Y-88950000D03*
%TO.P,J5,6,Pin_6*%
%TO.N,unconnected-(J5-Pad6)*%
X148650000Y-88950000D03*
%TO.P,J5,7,Pin_7*%
%TO.N,/NRST*%
X151190000Y-88950000D03*
%TO.P,J5,8,Pin_8*%
%TO.N,/USART1_CK*%
X153730000Y-88950000D03*
%TO.P,J5,9,Pin_9*%
%TO.N,/USART1_CTS*%
X156270000Y-88950000D03*
%TO.P,J5,10,Pin_10*%
%TO.N,/USART1_TX*%
X158810000Y-88950000D03*
%TO.P,J5,11,Pin_11*%
%TO.N,/USART1_RX*%
X161350000Y-88950000D03*
%TO.P,J5,12,Pin_12*%
%TO.N,/USART1_RTS*%
X163890000Y-88950000D03*
%TO.P,J5,13,Pin_13*%
%TO.N,unconnected-(J5-Pad13)*%
X166430000Y-88950000D03*
%TO.P,J5,14,Pin_14*%
%TO.N,unconnected-(J5-Pad14)*%
X168970000Y-88950000D03*
%TO.P,J5,15,Pin_15*%
%TO.N,unconnected-(J5-Pad15)*%
X171510000Y-88950000D03*
%TO.P,J5,16,Pin_16*%
%TO.N,unconnected-(J5-Pad16)*%
X174050000Y-88950000D03*
%TD*%
D12*
%TO.P,J6,1,Pin_1*%
%TO.N,GND*%
X173990000Y-113070000D03*
%TO.P,J6,2,Pin_2*%
X136070000Y-113070000D03*
%TO.P,J6,3,Pin_3*%
X173990000Y-102910000D03*
%TO.P,J6,4,Pin_4*%
X136070000Y-102910000D03*
%TD*%
D11*
%TO.P,J7,1,Pin_1*%
%TO.N,/DCMI_D0*%
X170270000Y-115350000D03*
%TO.P,J7,2,Pin_2*%
%TO.N,/DCMI_D1*%
X167730000Y-115350000D03*
%TO.P,J7,3,Pin_3*%
%TO.N,/DCMI_D2*%
X170270000Y-112810000D03*
%TO.P,J7,4,Pin_4*%
%TO.N,/DCMI_D3*%
X167730000Y-112810000D03*
%TO.P,J7,5,Pin_5*%
%TO.N,/DCMI_D4*%
X170270000Y-110270000D03*
%TO.P,J7,6,Pin_6*%
%TO.N,/DCMI_D5*%
X167730000Y-110270000D03*
%TO.P,J7,7,Pin_7*%
%TO.N,/DCMI_D6*%
X170270000Y-107730000D03*
%TO.P,J7,8,Pin_8*%
%TO.N,/DCMI_D7*%
X167730000Y-107730000D03*
%TO.P,J7,9,Pin_9*%
%TO.N,unconnected-(J7-Pad9)*%
X170270000Y-105190000D03*
%TO.P,J7,10,Pin_10*%
%TO.N,/DCMI_PIXCLK*%
X167730000Y-105190000D03*
%TO.P,J7,11,Pin_11*%
%TO.N,/DCMI_HSYNC*%
X170270000Y-102650000D03*
%TO.P,J7,12,Pin_12*%
%TO.N,/DCMI_VSYNC*%
X167730000Y-102650000D03*
%TD*%
%TO.P,J8,1,Pin_1*%
%TO.N,unconnected-(J8-Pad1)*%
X174050000Y-116890000D03*
%TO.P,J8,2,Pin_2*%
%TO.N,GND*%
X174050000Y-119430000D03*
%TO.P,J8,3,Pin_3*%
%TO.N,unconnected-(J8-Pad3)*%
X174050000Y-121970000D03*
%TO.P,J8,4,Pin_4*%
%TO.N,unconnected-(J8-Pad4)*%
X174050000Y-124510000D03*
%TD*%
%TO.P,J4,1,Pin_1*%
%TO.N,unconnected-(J4-Pad1)*%
X135950000Y-91490000D03*
%TO.P,J4,2,Pin_2*%
%TO.N,unconnected-(J4-Pad2)*%
X135950000Y-94030000D03*
%TO.P,J4,3,Pin_3*%
%TO.N,GND*%
X135950000Y-96570000D03*
%TO.P,J4,4,Pin_4*%
%TO.N,unconnected-(J4-Pad4)*%
X135950000Y-99110000D03*
%TD*%
%TO.P,J2,1,Pin_1*%
%TO.N,unconnected-(J2-Pad1)*%
X135950000Y-127050000D03*
%TO.P,J2,2,Pin_2*%
%TO.N,unconnected-(J2-Pad2)*%
X138490000Y-127050000D03*
%TO.P,J2,3,Pin_3*%
%TO.N,unconnected-(J2-Pad3)*%
X141030000Y-127050000D03*
%TO.P,J2,4,Pin_4*%
%TO.N,unconnected-(J2-Pad4)*%
X143570000Y-127050000D03*
%TO.P,J2,5,Pin_5*%
%TO.N,unconnected-(J2-Pad5)*%
X146110000Y-127050000D03*
%TO.P,J2,6,Pin_6*%
%TO.N,unconnected-(J2-Pad6)*%
X148650000Y-127050000D03*
%TO.P,J2,7,Pin_7*%
%TO.N,unconnected-(J2-Pad7)*%
X151190000Y-127050000D03*
%TO.P,J2,8,Pin_8*%
%TO.N,/BOOT0*%
X153730000Y-127050000D03*
%TO.P,J2,9,Pin_9*%
%TO.N,/LPUART_CTS*%
X156270000Y-127050000D03*
%TO.P,J2,10,Pin_10*%
%TO.N,/LPUART_TX*%
X158810000Y-127050000D03*
%TO.P,J2,11,Pin_11*%
%TO.N,/LPUART_RX*%
X161350000Y-127050000D03*
%TO.P,J2,12,Pin_12*%
%TO.N,/LPUART_RTS*%
X163890000Y-127050000D03*
%TO.P,J2,13,Pin_13*%
%TO.N,unconnected-(J2-Pad13)*%
X166430000Y-127050000D03*
%TO.P,J2,14,Pin_14*%
%TO.N,unconnected-(J2-Pad14)*%
X168970000Y-127050000D03*
%TO.P,J2,15,Pin_15*%
%TO.N,unconnected-(J2-Pad15)*%
X171510000Y-127050000D03*
%TO.P,J2,16,Pin_16*%
%TO.N,unconnected-(J2-Pad16)*%
X174050000Y-127050000D03*
%TD*%
%TO.P,J3,1,Pin_1*%
%TO.N,unconnected-(J3-Pad1)*%
X174050000Y-99110000D03*
%TO.P,J3,2,Pin_2*%
%TO.N,unconnected-(J3-Pad2)*%
X174050000Y-96570000D03*
%TO.P,J3,3,Pin_3*%
%TO.N,unconnected-(J3-Pad3)*%
X174050000Y-94030000D03*
%TO.P,J3,4,Pin_4*%
%TO.N,unconnected-(J3-Pad4)*%
X174050000Y-91490000D03*
%TD*%
D13*
%TO.N,GND*%
X158200000Y-99400000D03*
X158500000Y-102800000D03*
X147650000Y-100850000D03*
X151600000Y-105800000D03*
X147150000Y-97150000D03*
X136770000Y-110120000D03*
X154500000Y-104000000D03*
X163500000Y-115300000D03*
X152600000Y-109750000D03*
X168600000Y-121200000D03*
X156800000Y-107450000D03*
X163500000Y-106500000D03*
X141150000Y-100950000D03*
X147650000Y-115220000D03*
X163500000Y-109750000D03*
X156000000Y-105200000D03*
X147020000Y-122950000D03*
X158500000Y-101000000D03*
X151900000Y-121000000D03*
X150600000Y-117310000D03*
X141900000Y-122950000D03*
X154500000Y-100000000D03*
X163500000Y-112700000D03*
X140650000Y-97150000D03*
%TO.N,/USART1_RTS*%
X142000000Y-110250000D03*
%TO.N,/USART1_RX*%
X141500000Y-109250000D03*
%TO.N,/USART1_TX*%
X141000000Y-108750000D03*
%TO.N,/USART1_CTS*%
X140500000Y-109750000D03*
%TO.N,/USART1_CK*%
X140100000Y-108250000D03*
%TO.N,/NRST*%
X153100000Y-92500000D03*
X153100000Y-104000000D03*
%TO.N,/LPUART_RTS*%
X144450000Y-105350000D03*
%TO.N,/LPUART_RX*%
X143930000Y-104350000D03*
%TO.N,/LPUART_TX*%
X143210000Y-104350000D03*
%TO.N,/LPUART_CTS*%
X143210000Y-105350000D03*
%TO.N,/SPI1_MISO*%
X158200000Y-96865000D03*
X145500000Y-115400000D03*
%TO.N,/IO1_WP*%
X151500000Y-107250000D03*
X158200000Y-98135000D03*
%TO.N,/SPI1_MOSI*%
X146600000Y-115800000D03*
X168200000Y-99405000D03*
%TO.N,/SPI1_SCK*%
X144150000Y-112000000D03*
X168200000Y-98135000D03*
%TO.N,/VDD_FILT*%
X145840000Y-99900000D03*
X168200000Y-95600000D03*
X149200000Y-117310000D03*
X140000000Y-118140000D03*
X139190000Y-99900000D03*
X136770000Y-110930000D03*
X156100000Y-104000000D03*
%TO.N,/IO2_HR*%
X152100000Y-106750000D03*
X168200000Y-96865000D03*
%TO.N,/DCMI_HSYNC*%
X148150000Y-104350000D03*
%TO.N,/DCMI_PIXCLK*%
X147150000Y-104350000D03*
%TO.N,/DCMI_D0*%
X147000000Y-111190000D03*
%TO.N,/DCMI_D1*%
X146300000Y-111190000D03*
%TO.N,/DCMI_D2*%
X147000000Y-110110000D03*
%TO.N,/DCMI_D3*%
X146300000Y-110110000D03*
%TO.N,/DCMI_D4*%
X147000000Y-109030000D03*
%TO.N,/DCMI_D5*%
X146300000Y-109030000D03*
%TO.N,/DCMI_VSYNC*%
X145000000Y-110590000D03*
%TO.N,/DCMI_D6*%
X147000000Y-107950000D03*
%TO.N,/DCMI_D7*%
X146300000Y-107950000D03*
%TD*%
D14*
%TO.N,/USART1_RTS*%
X163890000Y-88950000D02*
X161680000Y-91160000D01*
X149639605Y-91639605D02*
X150119210Y-91160000D01*
X142739772Y-103990228D02*
X142585141Y-104144859D01*
X149639605Y-91639605D02*
X142739772Y-98559772D01*
X142585141Y-109664859D02*
X142000000Y-110250000D01*
X150119210Y-91160000D02*
X161680000Y-91160000D01*
X142739772Y-98559772D02*
X142739772Y-103990228D01*
X142585141Y-104144859D02*
X142585141Y-109664859D01*
%TO.N,/USART1_RX*%
X142331621Y-103884631D02*
X142486199Y-103730053D01*
X141500000Y-109250000D02*
X142331621Y-108418379D01*
X161350000Y-88950000D02*
X159405000Y-90895000D01*
X142331621Y-108418379D02*
X142331621Y-103884631D01*
X149593616Y-91326889D02*
X150025505Y-90895000D01*
X150025505Y-90895000D02*
X159405000Y-90895000D01*
X142486199Y-103730053D02*
X142486199Y-98434307D01*
X142486199Y-98434307D02*
X149593616Y-91326890D01*
%TO.N,/USART1_TX*%
X142077121Y-104857121D02*
X142077121Y-107672879D01*
X142076631Y-103666048D02*
X142076631Y-104856631D01*
X157126543Y-90633457D02*
X149927825Y-90633457D01*
X142410641Y-98150641D02*
X142232679Y-98328603D01*
X158810000Y-88950000D02*
X157126543Y-90633457D01*
X142076631Y-104856631D02*
X142077121Y-104857121D01*
X142232679Y-103510000D02*
X142076631Y-103666048D01*
X142077121Y-107672879D02*
X141000000Y-108750000D01*
X142232679Y-98328603D02*
X142232679Y-103510000D01*
X149927825Y-90633457D02*
X142410641Y-98150641D01*
%TO.N,/USART1_CTS*%
X141823111Y-107256889D02*
X140500000Y-108580000D01*
X141979159Y-98222899D02*
X141979159Y-103370000D01*
X149383187Y-90818871D02*
X141979159Y-98222899D01*
X154840063Y-90379937D02*
X149822813Y-90379937D01*
X141832270Y-103516889D02*
X141823111Y-103516889D01*
X141823111Y-103516889D02*
X141823111Y-107256889D01*
X155090000Y-90130000D02*
X154840063Y-90379937D01*
X156270000Y-88950000D02*
X155090000Y-90130000D01*
X149822813Y-90379937D02*
X149234881Y-90967870D01*
X140500000Y-108580000D02*
X140500000Y-109750000D01*
X141979159Y-103370000D02*
X141832270Y-103516889D01*
%TO.N,/USART1_CK*%
X141569101Y-106780899D02*
X140100000Y-108250000D01*
X152553583Y-90126417D02*
X149716417Y-90126417D01*
X141718100Y-103263369D02*
X141569101Y-103412368D01*
X141718100Y-98124734D02*
X141718100Y-103263369D01*
X141569101Y-103412368D02*
X141569101Y-106780899D01*
X153730000Y-88950000D02*
X152553583Y-90126417D01*
X149716417Y-90126417D02*
X141756417Y-98086417D01*
%TO.N,/NRST*%
X153100000Y-92500000D02*
X153100000Y-104000000D01*
%TO.N,/LPUART_RTS*%
X153080000Y-125050000D02*
X143599221Y-115569221D01*
X144183520Y-105910713D02*
X144183520Y-105616480D01*
X161890000Y-125050000D02*
X153080000Y-125050000D01*
X143599221Y-115569221D02*
X143599221Y-106495012D01*
X163890000Y-127050000D02*
X161890000Y-125050000D01*
X144183520Y-105616480D02*
X144450000Y-105350000D01*
X143599221Y-106495012D02*
X144183520Y-105910713D01*
%TO.N,/LPUART_RX*%
X143930000Y-105805701D02*
X143345701Y-106390000D01*
X143345701Y-115705701D02*
X153030000Y-125390000D01*
X153030000Y-125390000D02*
X159690000Y-125390000D01*
X143930000Y-104350000D02*
X143930000Y-105805701D01*
X159690000Y-125390000D02*
X161350000Y-127050000D01*
X143345701Y-106390000D02*
X143345701Y-115705701D01*
%TO.N,/LPUART_TX*%
X143092181Y-106130000D02*
X143092181Y-115962181D01*
X143092181Y-115962181D02*
X152773520Y-125643520D01*
X143210000Y-104350000D02*
X143670000Y-104810000D01*
X157403520Y-125643520D02*
X158810000Y-127050000D01*
X152773520Y-125643520D02*
X157403520Y-125643520D01*
X143670000Y-104810000D02*
X143670000Y-105552181D01*
X143670000Y-105552181D02*
X143092181Y-106130000D01*
%TO.N,/LPUART_CTS*%
X142838661Y-116178661D02*
X142838661Y-105721339D01*
X152557040Y-125897040D02*
X142838661Y-116178661D01*
X155117040Y-125897040D02*
X152557040Y-125897040D01*
X156270000Y-127050000D02*
X155117040Y-125897040D01*
X142838661Y-105721339D02*
X143210000Y-105350000D01*
%TO.N,/SPI1_MISO*%
X144359781Y-107650219D02*
X144359781Y-110879781D01*
X146570000Y-95978532D02*
X146570000Y-105440000D01*
X158200000Y-96865000D02*
X158200000Y-94170000D01*
X155950560Y-91920560D02*
X150627972Y-91920560D01*
X145500000Y-112020000D02*
X145500000Y-115400000D01*
X150627972Y-91920560D02*
X146570000Y-95978532D01*
X146570000Y-105440000D02*
X144359781Y-107650219D01*
X144359781Y-110879781D02*
X145500000Y-112020000D01*
X158200000Y-94170000D02*
X155950560Y-91920560D01*
%TO.N,/IO1_WP*%
X151500000Y-106680000D02*
X151500000Y-107250000D01*
X154960000Y-98140000D02*
X154960000Y-105820000D01*
X154960000Y-105820000D02*
X154700000Y-106080000D01*
X154700000Y-106080000D02*
X152100000Y-106080000D01*
X158200000Y-98135000D02*
X154965000Y-98135000D01*
X154965000Y-98135000D02*
X154960000Y-98140000D01*
X152100000Y-106080000D02*
X151500000Y-106680000D01*
%TO.N,/SPI1_MOSI*%
X168200000Y-99405000D02*
X168200000Y-99160000D01*
X146305000Y-95885000D02*
X145263520Y-96926480D01*
X150522960Y-91667040D02*
X146400000Y-95790000D01*
X146400000Y-95790000D02*
X146305000Y-95885000D01*
X146000000Y-116400000D02*
X146600000Y-115800000D01*
X168200000Y-99160000D02*
X160707040Y-91667040D01*
X144106261Y-111036261D02*
X144910000Y-111840000D01*
X145263520Y-105625012D02*
X144106261Y-106782271D01*
X145263520Y-96926480D02*
X145263520Y-105625012D01*
X144106261Y-106782271D02*
X144106261Y-111036261D01*
X144910000Y-111840000D02*
X144910000Y-116400000D01*
X160707040Y-91667040D02*
X150522960Y-91667040D01*
X144910000Y-116400000D02*
X146000000Y-116400000D01*
%TO.N,/SPI1_SCK*%
X143852741Y-111702741D02*
X144150000Y-112000000D01*
X150224222Y-91475778D02*
X145010000Y-96690000D01*
X150224222Y-91413520D02*
X150224222Y-91475778D01*
X145010000Y-96690000D02*
X145010000Y-105520000D01*
X168200000Y-98100000D02*
X161513520Y-91413520D01*
X168200000Y-98135000D02*
X168200000Y-98100000D01*
X161513520Y-91413520D02*
X150224222Y-91413520D01*
X143852741Y-106677259D02*
X143852741Y-111702741D01*
X145010000Y-105520000D02*
X143852741Y-106677259D01*
%TO.N,/IO2_HR*%
X155213520Y-105925012D02*
X155213520Y-100050000D01*
X169230000Y-97895000D02*
X168200000Y-96865000D01*
X152516480Y-106333520D02*
X154792052Y-106333520D01*
X154798532Y-106340000D02*
X155213520Y-105925012D01*
X169230000Y-100050000D02*
X169230000Y-97895000D01*
X154792052Y-106333520D02*
X154798532Y-106340000D01*
X152100000Y-106750000D02*
X152516480Y-106333520D01*
X155213520Y-100050000D02*
X169230000Y-100050000D01*
%TO.N,/DCMI_HSYNC*%
X168220000Y-100420000D02*
X160463520Y-108176480D01*
X170270000Y-102650000D02*
X170270000Y-101070000D01*
X148150000Y-105850000D02*
X148150000Y-104350000D01*
X169620000Y-100420000D02*
X168220000Y-100420000D01*
X170270000Y-101070000D02*
X169620000Y-100420000D01*
X160463520Y-108176480D02*
X150476480Y-108176480D01*
X150476480Y-108176480D02*
X148150000Y-105850000D01*
%TO.N,/DCMI_PIXCLK*%
X167234405Y-105190000D02*
X167730000Y-105190000D01*
X147175000Y-105875000D02*
X147752064Y-105875000D01*
X167730000Y-105190000D02*
X167726480Y-105186480D01*
X167726480Y-105186480D02*
X167237924Y-105186480D01*
X147150000Y-104350000D02*
X147150000Y-105850000D01*
X147150000Y-105850000D02*
X147175000Y-105875000D01*
X163994405Y-108430000D02*
X167234405Y-105190000D01*
X147752064Y-105875000D02*
X150307064Y-108430000D01*
X150307064Y-108430000D02*
X163994405Y-108430000D01*
X167973520Y-105186480D02*
X167237925Y-105186480D01*
%TO.N,/DCMI_D0*%
X169070000Y-116550000D02*
X168960000Y-116550000D01*
X168960000Y-116550000D02*
X152360000Y-116550000D01*
X152360000Y-116550000D02*
X147000000Y-111190000D01*
X170270000Y-115350000D02*
X169070000Y-116550000D01*
%TO.N,/DCMI_D1*%
X167730000Y-115350000D02*
X167470000Y-115350000D01*
X146840000Y-110650000D02*
X147860000Y-110650000D01*
X167470000Y-115350000D02*
X163735000Y-111615000D01*
X146300000Y-111190000D02*
X146840000Y-110650000D01*
X147860000Y-110650000D02*
X148825000Y-111615000D01*
X148825000Y-111615000D02*
X163735000Y-111615000D01*
%TO.N,/DCMI_D2*%
X169160000Y-113920000D02*
X170270000Y-112810000D01*
X163950000Y-111300000D02*
X166570000Y-113920000D01*
X166570000Y-113920000D02*
X169160000Y-113920000D01*
X147000000Y-110110000D02*
X147770000Y-110110000D01*
X148960000Y-111300000D02*
X163950000Y-111300000D01*
X147770000Y-110110000D02*
X148960000Y-111300000D01*
%TO.N,/DCMI_D3*%
X147790000Y-109650000D02*
X146300000Y-109650000D01*
X149186480Y-111046480D02*
X147790000Y-109650000D01*
X167730000Y-112810000D02*
X165818532Y-112810000D01*
X146300000Y-109650000D02*
X146300000Y-110110000D01*
X165818532Y-112810000D02*
X164055012Y-111046480D01*
X164055012Y-111046480D02*
X149186480Y-111046480D01*
%TO.N,/DCMI_D4*%
X169050000Y-111430000D02*
X164797064Y-111430000D01*
X147750000Y-109030000D02*
X147000000Y-109030000D01*
X170270000Y-110270000D02*
X169110000Y-111430000D01*
X164797064Y-111430000D02*
X164160024Y-110792960D01*
X164160024Y-110792960D02*
X149512960Y-110792960D01*
X149512960Y-110792960D02*
X147750000Y-109030000D01*
X169110000Y-111430000D02*
X169050000Y-111430000D01*
%TO.N,/DCMI_D5*%
X149760000Y-110390000D02*
X163520000Y-110390000D01*
X146300000Y-108420000D02*
X147790000Y-108420000D01*
X147790000Y-108420000D02*
X149760000Y-110390000D01*
X167730000Y-110270000D02*
X163640000Y-110270000D01*
X163640000Y-110270000D02*
X163520000Y-110390000D01*
X146300000Y-109030000D02*
X146300000Y-108420000D01*
%TO.N,/DCMI_VSYNC*%
X145910000Y-106710000D02*
X148228532Y-106710000D01*
X145000000Y-107620000D02*
X145910000Y-106710000D01*
X169053520Y-106476480D02*
X169053520Y-103973520D01*
X145000000Y-110590000D02*
X145000000Y-107620000D01*
X150221492Y-108702960D02*
X164079976Y-108702960D01*
X164079976Y-108702960D02*
X166306457Y-106476480D01*
X148228532Y-106710000D02*
X150221492Y-108702960D01*
X169053520Y-103973520D02*
X167730000Y-102650000D01*
X166306457Y-106476480D02*
X169053520Y-106476480D01*
%TO.N,/DCMI_D6*%
X164290000Y-109210000D02*
X164600000Y-108900000D01*
X147000000Y-107950000D02*
X148160000Y-107950000D01*
X148160000Y-107950000D02*
X149420000Y-109210000D01*
X169100000Y-108900000D02*
X169070000Y-108900000D01*
X164600000Y-108900000D02*
X169070000Y-108900000D01*
X149420000Y-109210000D02*
X164290000Y-109210000D01*
X170270000Y-107730000D02*
X169100000Y-108900000D01*
%TO.N,/DCMI_D7*%
X164184988Y-108956480D02*
X150116480Y-108956480D01*
X164720734Y-108420734D02*
X164184988Y-108956480D01*
X146300000Y-107010000D02*
X146330000Y-106980000D01*
X167730000Y-107730000D02*
X165411468Y-107730000D01*
X150116480Y-108956480D02*
X148140000Y-106980000D01*
X148140000Y-106980000D02*
X146330000Y-106980000D01*
X146300000Y-107950000D02*
X146300000Y-107010000D01*
X165411468Y-107730000D02*
X164720734Y-108420734D01*
%TD*%
M02*
