M48
; DRILL file {KiCad (6.0.5)} date Thu Jun  2 19:35:41 2022
; FORMAT={-:-/ absolute / inch / decimal}
; #@! TF.CreationDate,2022-06-02T19:35:41-04:00
; #@! TF.GenerationSoftware,Kicad,Pcbnew,(6.0.5)
; #@! TF.FileFunction,MixedPlating,1,4
FMAT,2
INCH
; #@! TA.AperFunction,Plated,PTH,ViaDrill
T1C0.0100
; #@! TA.AperFunction,Plated,PTH,ComponentDrill
T2C0.0394
; #@! TA.AperFunction,Plated,PTH,ComponentDrill
T3C0.0858
%
G90
G05
T1
X5.3846Y-4.3354
X5.3846Y-4.3673
X5.4799Y-3.9331
X5.5118Y-4.6512
X5.5157Y-4.2618
X5.5315Y-4.3209
X5.5374Y-3.8248
X5.5512Y-4.2815
X5.5571Y-3.9744
X5.5709Y-4.3012
X5.5866Y-4.8406
X5.5906Y-4.3406
X5.6382Y-4.1083
X5.6382Y-4.1476
X5.6665Y-4.1083
X5.6752Y-4.4094
X5.687Y-4.1476
X5.7087Y-4.3539
X5.7283Y-4.5433
X5.7417Y-3.9331
X5.7598Y-4.25
X5.7598Y-4.2925
X5.7598Y-4.335
X5.7598Y-4.3776
X5.7717Y-4.5591
X5.7874Y-4.25
X5.7874Y-4.2925
X5.7874Y-4.335
X5.7874Y-4.3776
X5.7882Y-4.8406
X5.7933Y-3.8248
X5.7933Y-4.1083
X5.813Y-3.9705
X5.813Y-4.5362
X5.8327Y-4.1083
X5.874Y-4.6185
X5.9291Y-4.6185
X5.9646Y-4.2224
X5.9685Y-4.1654
X5.9803Y-4.7638
X5.9882Y-4.2028
X6.0079Y-4.3209
X6.0276Y-3.6417
X6.0276Y-4.0945
X6.0827Y-3.937
X6.0827Y-4.0945
X6.1417Y-4.1417
X6.1457Y-4.0945
X6.1732Y-4.2303
X6.2283Y-3.8136
X6.2283Y-3.8636
X6.2283Y-3.9134
X6.2402Y-3.9764
X6.2402Y-4.0472
X6.437Y-4.1929
X6.437Y-4.3209
X6.437Y-4.437
X6.437Y-4.5394
X6.622Y-3.7638
X6.622Y-3.8136
X6.622Y-3.8636
X6.622Y-3.9136
X6.6378Y-4.7717
T2
X5.3524Y-3.502
X5.3524Y-3.602
X5.3524Y-3.702
X5.3524Y-3.802
X5.3524Y-3.902
X5.3524Y-4.602
X5.3524Y-4.702
X5.3524Y-4.802
X5.3524Y-4.902
X5.3524Y-5.002
X5.4524Y-3.502
X5.4524Y-5.002
X5.5524Y-3.502
X5.5524Y-5.002
X5.6524Y-3.502
X5.6524Y-5.002
X5.7524Y-3.502
X5.7524Y-5.002
X5.8524Y-3.502
X5.8524Y-5.002
X5.9524Y-3.502
X5.9524Y-5.002
X6.0524Y-3.502
X6.0524Y-5.002
X6.1524Y-3.502
X6.1524Y-5.002
X6.2524Y-3.502
X6.2524Y-5.002
X6.3524Y-3.502
X6.3524Y-5.002
X6.4524Y-3.502
X6.4524Y-5.002
X6.5524Y-3.502
X6.5524Y-5.002
X6.6035Y-4.0413
X6.6035Y-4.1413
X6.6035Y-4.2413
X6.6035Y-4.3413
X6.6035Y-4.4413
X6.6035Y-4.5413
X6.6524Y-3.502
X6.6524Y-5.002
X6.7035Y-4.0413
X6.7035Y-4.1413
X6.7035Y-4.2413
X6.7035Y-4.3413
X6.7035Y-4.4413
X6.7035Y-4.5413
X6.7524Y-3.502
X6.7524Y-5.002
X6.8524Y-3.502
X6.8524Y-3.602
X6.8524Y-3.702
X6.8524Y-3.802
X6.8524Y-3.902
X6.8524Y-4.602
X6.8524Y-4.702
X6.8524Y-4.802
X6.8524Y-4.902
X6.8524Y-5.002
T3
X5.3571Y-4.0516
X5.3571Y-4.4516
X6.85Y-4.0516
X6.85Y-4.4516
T0
M30
