%TF.GenerationSoftware,KiCad,Pcbnew,(6.0.5)*%
%TF.CreationDate,2022-06-01T14:08:09-04:00*%
%TF.ProjectId,pq-cdh,70712d63-6468-42e6-9b69-6361645f7063,V1.0.1*%
%TF.SameCoordinates,Original*%
%TF.FileFunction,Soldermask,Bot*%
%TF.FilePolarity,Negative*%
%FSLAX46Y46*%
G04 Gerber Fmt 4.6, Leading zero omitted, Abs format (unit mm)*
G04 Created by KiCad (PCBNEW (6.0.5)) date 2022-06-01 14:08:09*
%MOMM*%
%LPD*%
G01*
G04 APERTURE LIST*
%ADD10C,1.565400*%
%ADD11C,2.565400*%
G04 APERTURE END LIST*
D10*
%TO.C,J1*%
X135950000Y-116890000D03*
X135950000Y-119430000D03*
X135950000Y-121970000D03*
X135950000Y-124510000D03*
%TD*%
%TO.C,J5*%
X135950000Y-88950000D03*
X138490000Y-88950000D03*
X141030000Y-88950000D03*
X143570000Y-88950000D03*
X146110000Y-88950000D03*
X148650000Y-88950000D03*
X151190000Y-88950000D03*
X153730000Y-88950000D03*
X156270000Y-88950000D03*
X158810000Y-88950000D03*
X161350000Y-88950000D03*
X163890000Y-88950000D03*
X166430000Y-88950000D03*
X168970000Y-88950000D03*
X171510000Y-88950000D03*
X174050000Y-88950000D03*
%TD*%
D11*
%TO.C,J6*%
X173960000Y-113080000D03*
X136040000Y-113080000D03*
X173960000Y-102920000D03*
X136040000Y-102920000D03*
%TD*%
D10*
%TO.C,J7*%
X171510000Y-114350000D03*
X168970000Y-114350000D03*
X171510000Y-111810000D03*
X168970000Y-111810000D03*
X171510000Y-109270000D03*
X168970000Y-109270000D03*
X171510000Y-106730000D03*
X168970000Y-106730000D03*
X171510000Y-104190000D03*
X168970000Y-104190000D03*
X171510000Y-101650000D03*
X168970000Y-101650000D03*
%TD*%
%TO.C,J8*%
X174050000Y-116890000D03*
X174050000Y-119430000D03*
X174050000Y-121970000D03*
X174050000Y-124510000D03*
%TD*%
%TO.C,J4*%
X135950000Y-91490000D03*
X135950000Y-94030000D03*
X135950000Y-96570000D03*
X135950000Y-99110000D03*
%TD*%
%TO.C,J2*%
X135950000Y-127050000D03*
X138490000Y-127050000D03*
X141030000Y-127050000D03*
X143570000Y-127050000D03*
X146110000Y-127050000D03*
X148650000Y-127050000D03*
X151190000Y-127050000D03*
X153730000Y-127050000D03*
X156270000Y-127050000D03*
X158810000Y-127050000D03*
X161350000Y-127050000D03*
X163890000Y-127050000D03*
X166430000Y-127050000D03*
X168970000Y-127050000D03*
X171510000Y-127050000D03*
X174050000Y-127050000D03*
%TD*%
%TO.C,J3*%
X174050000Y-99110000D03*
X174050000Y-96570000D03*
X174050000Y-94030000D03*
X174050000Y-91490000D03*
%TD*%
M02*
