%TF.GenerationSoftware,KiCad,Pcbnew,(6.0.5)*%
%TF.CreationDate,2022-05-30T19:54:15-04:00*%
%TF.ProjectId,pq-cdh,70712d63-6468-42e6-9b69-6361645f7063,V1.0.1*%
%TF.SameCoordinates,Original*%
%TF.FileFunction,Soldermask,Top*%
%TF.FilePolarity,Negative*%
%FSLAX46Y46*%
G04 Gerber Fmt 4.6, Leading zero omitted, Abs format (unit mm)*
G04 Created by KiCad (PCBNEW (6.0.5)) date 2022-05-30 19:54:15*
%MOMM*%
%LPD*%
G01*
G04 APERTURE LIST*
G04 Aperture macros list*
%AMRoundRect*
0 Rectangle with rounded corners*
0 $1 Rounding radius*
0 $2 $3 $4 $5 $6 $7 $8 $9 X,Y pos of 4 corners*
0 Add a 4 corners polygon primitive as box body*
4,1,4,$2,$3,$4,$5,$6,$7,$8,$9,$2,$3,0*
0 Add four circle primitives for the rounded corners*
1,1,$1+$1,$2,$3*
1,1,$1+$1,$4,$5*
1,1,$1+$1,$6,$7*
1,1,$1+$1,$8,$9*
0 Add four rect primitives between the rounded corners*
20,1,$1+$1,$2,$3,$4,$5,0*
20,1,$1+$1,$4,$5,$6,$7,0*
20,1,$1+$1,$6,$7,$8,$9,0*
20,1,$1+$1,$8,$9,$2,$3,0*%
G04 Aperture macros list end*
%ADD10RoundRect,0.012700X0.550000X0.650000X-0.550000X0.650000X-0.550000X-0.650000X0.550000X-0.650000X0*%
%ADD11RoundRect,0.012700X-0.450000X-0.500000X0.450000X-0.500000X0.450000X0.500000X-0.450000X0.500000X0*%
%ADD12RoundRect,0.012700X-0.375000X-0.470000X0.375000X-0.470000X0.375000X0.470000X-0.375000X0.470000X0*%
%ADD13RoundRect,0.012700X0.375000X0.470000X-0.375000X0.470000X-0.375000X-0.470000X0.375000X-0.470000X0*%
%ADD14RoundRect,0.012700X0.470000X-0.375000X0.470000X0.375000X-0.470000X0.375000X-0.470000X-0.375000X0*%
%ADD15RoundRect,0.012700X-1.150000X-3.200000X1.150000X-3.200000X1.150000X3.200000X-1.150000X3.200000X0*%
%ADD16RoundRect,0.012700X0.400000X0.400000X-0.400000X0.400000X-0.400000X-0.400000X0.400000X-0.400000X0*%
%ADD17RoundRect,0.012700X0.400000X0.500000X-0.400000X0.500000X-0.400000X-0.500000X0.400000X-0.500000X0*%
%ADD18RoundRect,0.012700X-0.400000X-0.500000X0.400000X-0.500000X0.400000X0.500000X-0.400000X0.500000X0*%
%ADD19RoundRect,0.012700X-0.500000X0.400000X-0.500000X-0.400000X0.500000X-0.400000X0.500000X0.400000X0*%
%ADD20RoundRect,0.012700X0.892500X-0.325000X0.892500X0.325000X-0.892500X0.325000X-0.892500X-0.325000X0*%
%ADD21C,1.565400*%
%ADD22C,2.565400*%
%ADD23RoundRect,0.012700X0.900000X-0.500000X0.900000X0.500000X-0.900000X0.500000X-0.900000X-0.500000X0*%
%ADD24RoundRect,0.012700X-0.737500X0.150000X-0.737500X-0.150000X0.737500X-0.150000X0.737500X0.150000X0*%
%ADD25RoundRect,0.012700X0.150000X0.737500X-0.150000X0.737500X-0.150000X-0.737500X0.150000X-0.737500X0*%
G04 APERTURE END LIST*
D10*
%TO.C,Y1*%
X155700000Y-109750000D03*
X155700000Y-107450000D03*
X153800000Y-107450000D03*
X153800000Y-109750000D03*
%TD*%
D11*
%TO.C,FB1*%
X138400000Y-116900000D03*
X140000000Y-116900000D03*
%TD*%
D12*
%TO.C,C8*%
X156100000Y-102800000D03*
X157500000Y-102800000D03*
%TD*%
D13*
%TO.C,C1*%
X140000000Y-119430000D03*
X138600000Y-119430000D03*
%TD*%
D12*
%TO.C,C9*%
X153050000Y-105200000D03*
X154450000Y-105200000D03*
%TD*%
%TO.C,C10*%
X160100000Y-107500000D03*
X161500000Y-107500000D03*
%TD*%
%TO.C,C11*%
X160100000Y-109750000D03*
X161500000Y-109750000D03*
%TD*%
%TO.C,C12*%
X160100000Y-112725000D03*
X161500000Y-112725000D03*
%TD*%
%TO.C,C13*%
X160100000Y-115275000D03*
X161500000Y-115275000D03*
%TD*%
D13*
%TO.C,C14*%
X163900000Y-93400000D03*
X162500000Y-93400000D03*
%TD*%
D12*
%TO.C,C7*%
X156100000Y-101000000D03*
X157500000Y-101000000D03*
%TD*%
%TO.C,C6*%
X153100000Y-101000000D03*
X154500000Y-101000000D03*
%TD*%
%TO.C,C4*%
X149240000Y-116040000D03*
X150640000Y-116040000D03*
%TD*%
D14*
%TO.C,C3*%
X147150000Y-99900000D03*
X147150000Y-98500000D03*
%TD*%
%TO.C,C2*%
X140650000Y-99900000D03*
X140650000Y-98500000D03*
%TD*%
D15*
%TO.C,C15*%
X160900000Y-121200000D03*
X165500000Y-121200000D03*
%TD*%
D16*
%TO.C,LED2*%
X146000000Y-122950000D03*
X146000000Y-121450000D03*
%TD*%
%TO.C,LED1*%
X143000000Y-122950000D03*
X143000000Y-121450000D03*
%TD*%
D17*
%TO.C,R5*%
X164000000Y-91600000D03*
X162400000Y-91600000D03*
%TD*%
%TO.C,R4*%
X150700000Y-124000000D03*
X149100000Y-124000000D03*
%TD*%
D18*
%TO.C,R3*%
X149100000Y-121000000D03*
X150700000Y-121000000D03*
%TD*%
D19*
%TO.C,R2*%
X146000000Y-117400000D03*
X146000000Y-119000000D03*
%TD*%
%TO.C,R1*%
X143000000Y-117400000D03*
X143000000Y-119000000D03*
%TD*%
D20*
%TO.C,IC2*%
X159668000Y-95595000D03*
X159668000Y-96865000D03*
X159668000Y-98135000D03*
X159668000Y-99405000D03*
X166732000Y-99405000D03*
X166732000Y-98135000D03*
X166732000Y-96865000D03*
X166732000Y-95595000D03*
%TD*%
D21*
%TO.C,J7*%
X168970000Y-101650000D03*
X171510000Y-101650000D03*
X168970000Y-104190000D03*
X171510000Y-104190000D03*
X168970000Y-106730000D03*
X171510000Y-106730000D03*
X168970000Y-109270000D03*
X171510000Y-109270000D03*
X168970000Y-111810000D03*
X171510000Y-111810000D03*
X168970000Y-114350000D03*
X171510000Y-114350000D03*
%TD*%
D22*
%TO.C,J6*%
X173960000Y-112930000D03*
X136040000Y-112930000D03*
X173960000Y-102770000D03*
X136040000Y-102770000D03*
%TD*%
D21*
%TO.C,J2*%
X174050000Y-127050000D03*
X171510000Y-127050000D03*
X168970000Y-127050000D03*
X166430000Y-127050000D03*
X163890000Y-127050000D03*
X161350000Y-127050000D03*
X158810000Y-127050000D03*
X156270000Y-127050000D03*
X153730000Y-127050000D03*
X151190000Y-127050000D03*
X148650000Y-127050000D03*
X146110000Y-127050000D03*
X143570000Y-127050000D03*
X141030000Y-127050000D03*
X138490000Y-127050000D03*
X135950000Y-127050000D03*
%TD*%
%TO.C,J5*%
X174050000Y-88950000D03*
X171510000Y-88950000D03*
X168970000Y-88950000D03*
X166430000Y-88950000D03*
X163890000Y-88950000D03*
X161350000Y-88950000D03*
X158810000Y-88950000D03*
X156270000Y-88950000D03*
X153730000Y-88950000D03*
X151190000Y-88950000D03*
X148650000Y-88950000D03*
X146110000Y-88950000D03*
X143570000Y-88950000D03*
X141030000Y-88950000D03*
X138490000Y-88950000D03*
X135950000Y-88950000D03*
%TD*%
%TO.C,J8*%
X174050000Y-116890000D03*
X174050000Y-119430000D03*
X174050000Y-121970000D03*
X174050000Y-124510000D03*
%TD*%
%TO.C,J1*%
X135950000Y-124510000D03*
X135950000Y-121970000D03*
X135950000Y-119430000D03*
X135950000Y-116890000D03*
%TD*%
%TO.C,J3*%
X174050000Y-91490000D03*
X174050000Y-94030000D03*
X174050000Y-96570000D03*
X174050000Y-99110000D03*
%TD*%
%TO.C,J4*%
X135950000Y-99110000D03*
X135950000Y-96570000D03*
X135950000Y-94030000D03*
X135950000Y-91490000D03*
%TD*%
D23*
%TO.C,Y2*%
X154300000Y-115275000D03*
X154300000Y-112725000D03*
%TD*%
D12*
%TO.C,C5*%
X153100000Y-102800000D03*
X154500000Y-102800000D03*
%TD*%
D24*
%TO.C,IC1*%
X150138000Y-111750000D03*
X150138000Y-111250000D03*
X150138000Y-110750000D03*
X150138000Y-110250000D03*
X150138000Y-109750000D03*
X150138000Y-109250000D03*
X150138000Y-108750000D03*
X150138000Y-108250000D03*
X150138000Y-107750000D03*
X150138000Y-107250000D03*
X150138000Y-106750000D03*
X150138000Y-106250000D03*
X150138000Y-105750000D03*
X150138000Y-105250000D03*
X150138000Y-104750000D03*
X150138000Y-104250000D03*
D25*
X148150000Y-102262000D03*
X147650000Y-102262000D03*
X147150000Y-102262000D03*
X146650000Y-102262000D03*
X146150000Y-102262000D03*
X145650000Y-102262000D03*
X145150000Y-102262000D03*
X144650000Y-102262000D03*
X144150000Y-102262000D03*
X143650000Y-102262000D03*
X143150000Y-102262000D03*
X142650000Y-102262000D03*
X142150000Y-102262000D03*
X141650000Y-102262000D03*
X141150000Y-102262000D03*
X140650000Y-102262000D03*
D24*
X138662000Y-104250000D03*
X138662000Y-104750000D03*
X138662000Y-105250000D03*
X138662000Y-105750000D03*
X138662000Y-106250000D03*
X138662000Y-106750000D03*
X138662000Y-107250000D03*
X138662000Y-107750000D03*
X138662000Y-108250000D03*
X138662000Y-108750000D03*
X138662000Y-109250000D03*
X138662000Y-109750000D03*
X138662000Y-110250000D03*
X138662000Y-110750000D03*
X138662000Y-111250000D03*
X138662000Y-111750000D03*
D25*
X140650000Y-113738000D03*
X141150000Y-113738000D03*
X141650000Y-113738000D03*
X142150000Y-113738000D03*
X142650000Y-113738000D03*
X143150000Y-113738000D03*
X143650000Y-113738000D03*
X144150000Y-113738000D03*
X144650000Y-113738000D03*
X145150000Y-113738000D03*
X145650000Y-113738000D03*
X146150000Y-113738000D03*
X146650000Y-113738000D03*
X147150000Y-113738000D03*
X147650000Y-113738000D03*
X148150000Y-113738000D03*
%TD*%
M02*
