%TF.GenerationSoftware,KiCad,Pcbnew,(6.0.5)*%
%TF.CreationDate,2022-06-02T11:43:32-04:00*%
%TF.ProjectId,pq-cdh,70712d63-6468-42e6-9b69-6361645f7063,V1.0.1*%
%TF.SameCoordinates,Original*%
%TF.FileFunction,Copper,L1,Top*%
%TF.FilePolarity,Positive*%
%FSLAX46Y46*%
G04 Gerber Fmt 4.6, Leading zero omitted, Abs format (unit mm)*
G04 Created by KiCad (PCBNEW (6.0.5)) date 2022-06-02 11:43:32*
%MOMM*%
%LPD*%
G01*
G04 APERTURE LIST*
%TA.AperFunction,ComponentPad*%
%ADD10C,1.540000*%
%TD*%
%TA.AperFunction,SMDPad,CuDef*%
%ADD11R,0.800000X1.000000*%
%TD*%
%TA.AperFunction,SMDPad,CuDef*%
%ADD12R,0.940000X0.750000*%
%TD*%
%TA.AperFunction,SMDPad,CuDef*%
%ADD13R,0.900000X1.000000*%
%TD*%
%TA.AperFunction,ComponentPad*%
%ADD14C,2.540000*%
%TD*%
%TA.AperFunction,SMDPad,CuDef*%
%ADD15R,0.750000X0.940000*%
%TD*%
%TA.AperFunction,SMDPad,CuDef*%
%ADD16R,1.475000X0.300000*%
%TD*%
%TA.AperFunction,SMDPad,CuDef*%
%ADD17R,0.300000X1.475000*%
%TD*%
%TA.AperFunction,SMDPad,CuDef*%
%ADD18R,1.000000X0.800000*%
%TD*%
%TA.AperFunction,SMDPad,CuDef*%
%ADD19R,1.800000X1.000000*%
%TD*%
%TA.AperFunction,SMDPad,CuDef*%
%ADD20R,0.800000X0.800000*%
%TD*%
%TA.AperFunction,SMDPad,CuDef*%
%ADD21R,1.785000X0.650000*%
%TD*%
%TA.AperFunction,SMDPad,CuDef*%
%ADD22R,1.100000X1.300000*%
%TD*%
%TA.AperFunction,SMDPad,CuDef*%
%ADD23R,2.300000X6.400000*%
%TD*%
%TA.AperFunction,ViaPad*%
%ADD24C,0.457200*%
%TD*%
%TA.AperFunction,Conductor*%
%ADD25C,0.127000*%
%TD*%
G04 APERTURE END LIST*
D10*
%TO.P,J1,1,Pin_1*%
%TO.N,VDD*%
X135950000Y-116890000D03*
%TO.P,J1,2,Pin_2*%
%TO.N,GND*%
X135950000Y-119430000D03*
%TO.P,J1,3,Pin_3*%
%TO.N,/SWDIO*%
X135950000Y-121970000D03*
%TO.P,J1,4,Pin_4*%
%TO.N,/SWCLK*%
X135950000Y-124510000D03*
%TD*%
D11*
%TO.P,R5,1*%
%TO.N,/VDD_FILT*%
X164000000Y-91600000D03*
%TO.P,R5,2*%
%TO.N,/SPI1_NSS*%
X162400000Y-91600000D03*
%TD*%
D10*
%TO.P,J5,1,Pin_1*%
%TO.N,unconnected-(J5-Pad1)*%
X135950000Y-88950000D03*
%TO.P,J5,2,Pin_2*%
%TO.N,unconnected-(J5-Pad2)*%
X138490000Y-88950000D03*
%TO.P,J5,3,Pin_3*%
%TO.N,GND*%
X141030000Y-88950000D03*
%TO.P,J5,4,Pin_4*%
%TO.N,unconnected-(J5-Pad4)*%
X143570000Y-88950000D03*
%TO.P,J5,5,Pin_5*%
%TO.N,unconnected-(J5-Pad5)*%
X146110000Y-88950000D03*
%TO.P,J5,6,Pin_6*%
%TO.N,unconnected-(J5-Pad6)*%
X148650000Y-88950000D03*
%TO.P,J5,7,Pin_7*%
%TO.N,/NRST*%
X151190000Y-88950000D03*
%TO.P,J5,8,Pin_8*%
%TO.N,/USART1_CK*%
X153730000Y-88950000D03*
%TO.P,J5,9,Pin_9*%
%TO.N,/USART1_CTS*%
X156270000Y-88950000D03*
%TO.P,J5,10,Pin_10*%
%TO.N,/USART1_TX*%
X158810000Y-88950000D03*
%TO.P,J5,11,Pin_11*%
%TO.N,/USART1_RX*%
X161350000Y-88950000D03*
%TO.P,J5,12,Pin_12*%
%TO.N,/USART1_RTS*%
X163890000Y-88950000D03*
%TO.P,J5,13,Pin_13*%
%TO.N,unconnected-(J5-Pad13)*%
X166430000Y-88950000D03*
%TO.P,J5,14,Pin_14*%
%TO.N,unconnected-(J5-Pad14)*%
X168970000Y-88950000D03*
%TO.P,J5,15,Pin_15*%
%TO.N,unconnected-(J5-Pad15)*%
X171510000Y-88950000D03*
%TO.P,J5,16,Pin_16*%
%TO.N,unconnected-(J5-Pad16)*%
X174050000Y-88950000D03*
%TD*%
D12*
%TO.P,C2,1*%
%TO.N,/VDD_FILT*%
X140650000Y-99900000D03*
%TO.P,C2,2*%
%TO.N,GND*%
X140650000Y-98500000D03*
%TD*%
D13*
%TO.P,FB1,1,1*%
%TO.N,VDD*%
X138400000Y-116900000D03*
%TO.P,FB1,2,2*%
%TO.N,/VDD_FILT*%
X140000000Y-116900000D03*
%TD*%
D14*
%TO.P,J6,1,Pin_1*%
%TO.N,GND*%
X173960000Y-113080000D03*
%TO.P,J6,2,Pin_2*%
X136040000Y-113080000D03*
%TO.P,J6,3,Pin_3*%
X173960000Y-102920000D03*
%TO.P,J6,4,Pin_4*%
X136040000Y-102920000D03*
%TD*%
D15*
%TO.P,C10,1*%
%TO.N,Net-(C10-Pad1)*%
X160100000Y-107500000D03*
%TO.P,C10,2*%
%TO.N,GND*%
X161500000Y-107500000D03*
%TD*%
D16*
%TO.P,IC1,1,VBAT*%
%TO.N,/VBAT*%
X150138000Y-111750000D03*
%TO.P,IC1,2,PC13*%
%TO.N,unconnected-(IC1-Pad2)*%
X150138000Y-111250000D03*
%TO.P,IC1,3,PC14-OSC32_IN*%
%TO.N,Net-(C13-Pad1)*%
X150138000Y-110750000D03*
%TO.P,IC1,4,PC15-OSC32_OUT*%
%TO.N,Net-(C12-Pad1)*%
X150138000Y-110250000D03*
%TO.P,IC1,5,PH0-OSC_IN*%
%TO.N,Net-(C11-Pad1)*%
X150138000Y-109750000D03*
%TO.P,IC1,6,PH1-OSC_OUT*%
%TO.N,Net-(C10-Pad1)*%
X150138000Y-109250000D03*
%TO.P,IC1,7,NRST*%
%TO.N,/NRST*%
X150138000Y-108750000D03*
%TO.P,IC1,8,PC0*%
%TO.N,unconnected-(IC1-Pad8)*%
X150138000Y-108250000D03*
%TO.P,IC1,9,PC1*%
%TO.N,unconnected-(IC1-Pad9)*%
X150138000Y-107750000D03*
%TO.P,IC1,10,PC2*%
%TO.N,/IO1_WP*%
X150138000Y-107250000D03*
%TO.P,IC1,11,PC3*%
%TO.N,/IO2_HR*%
X150138000Y-106750000D03*
%TO.P,IC1,12,VSSA/VREF-*%
%TO.N,GND*%
X150138000Y-106250000D03*
%TO.P,IC1,13,VDDA/VREF+*%
%TO.N,/VDD_FILT*%
X150138000Y-105750000D03*
%TO.P,IC1,14,PA0*%
%TO.N,unconnected-(IC1-Pad14)*%
X150138000Y-105250000D03*
%TO.P,IC1,15,PA1*%
%TO.N,unconnected-(IC1-Pad15)*%
X150138000Y-104750000D03*
%TO.P,IC1,16,PA2*%
%TO.N,unconnected-(IC1-Pad16)*%
X150138000Y-104250000D03*
D17*
%TO.P,IC1,17,PA3*%
%TO.N,unconnected-(IC1-Pad17)*%
X148150000Y-102262000D03*
%TO.P,IC1,18,VSS_1*%
%TO.N,GND*%
X147650000Y-102262000D03*
%TO.P,IC1,19,VDD_1*%
%TO.N,/VDD_FILT*%
X147150000Y-102262000D03*
%TO.P,IC1,20,PA4*%
%TO.N,/DCMI_HSYNC*%
X146650000Y-102262000D03*
%TO.P,IC1,21,PA5*%
%TO.N,unconnected-(IC1-Pad21)*%
X146150000Y-102262000D03*
%TO.P,IC1,22,PA6*%
%TO.N,/DCMI_PIXCLK*%
X145650000Y-102262000D03*
%TO.P,IC1,23,PA7*%
%TO.N,unconnected-(IC1-Pad23)*%
X145150000Y-102262000D03*
%TO.P,IC1,24,PC4*%
%TO.N,unconnected-(IC1-Pad24)*%
X144650000Y-102262000D03*
%TO.P,IC1,25,PC5*%
%TO.N,unconnected-(IC1-Pad25)*%
X144150000Y-102262000D03*
%TO.P,IC1,26,PB0*%
%TO.N,/SPI1_NSS*%
X143650000Y-102262000D03*
%TO.P,IC1,27,PB1*%
%TO.N,unconnected-(IC1-Pad27)*%
X143150000Y-102262000D03*
%TO.P,IC1,28,PB2*%
%TO.N,unconnected-(IC1-Pad28)*%
X142650000Y-102262000D03*
%TO.P,IC1,29,PB10*%
%TO.N,/LPUART_RX*%
X142150000Y-102262000D03*
%TO.P,IC1,30,PB11*%
%TO.N,/LPUART_TX*%
X141650000Y-102262000D03*
%TO.P,IC1,31,VSS_2*%
%TO.N,GND*%
X141150000Y-102262000D03*
%TO.P,IC1,32,VDD_2*%
%TO.N,/VDD_FILT*%
X140650000Y-102262000D03*
D16*
%TO.P,IC1,33,PB12*%
%TO.N,/LPUART_RTS*%
X138662000Y-104250000D03*
%TO.P,IC1,34,PB13*%
%TO.N,/LPUART_CTS*%
X138662000Y-104750000D03*
%TO.P,IC1,35,PB14*%
%TO.N,unconnected-(IC1-Pad35)*%
X138662000Y-105250000D03*
%TO.P,IC1,36,PB15*%
%TO.N,unconnected-(IC1-Pad36)*%
X138662000Y-105750000D03*
%TO.P,IC1,37,PC6*%
%TO.N,/DCMI_D0*%
X138662000Y-106250000D03*
%TO.P,IC1,38,PC7*%
%TO.N,/DCMI_D1*%
X138662000Y-106750000D03*
%TO.P,IC1,39,PC8*%
%TO.N,/DCMI_D2*%
X138662000Y-107250000D03*
%TO.P,IC1,40,PC9*%
%TO.N,/DCMI_D3*%
X138662000Y-107750000D03*
%TO.P,IC1,41,PA8*%
%TO.N,/USART1_CK*%
X138662000Y-108250000D03*
%TO.P,IC1,42,PA9*%
%TO.N,/USART1_TX*%
X138662000Y-108750000D03*
%TO.P,IC1,43,PA10*%
%TO.N,/USART1_RX*%
X138662000Y-109250000D03*
%TO.P,IC1,44,PA11*%
%TO.N,/USART1_CTS*%
X138662000Y-109750000D03*
%TO.P,IC1,45,PA12*%
%TO.N,/USART1_RTS*%
X138662000Y-110250000D03*
%TO.P,IC1,46,PA13*%
%TO.N,/SWDIO*%
X138662000Y-110750000D03*
%TO.P,IC1,47,VSS_3*%
%TO.N,GND*%
X138662000Y-111250000D03*
%TO.P,IC1,48,VDDUSB*%
%TO.N,/VDD_FILT*%
X138662000Y-111750000D03*
D17*
%TO.P,IC1,49,PA14*%
%TO.N,/SWCLK*%
X140650000Y-113738000D03*
%TO.P,IC1,50,PA15*%
%TO.N,unconnected-(IC1-Pad50)*%
X141150000Y-113738000D03*
%TO.P,IC1,51,PC10*%
%TO.N,/LED1*%
X141650000Y-113738000D03*
%TO.P,IC1,52,PC11*%
%TO.N,/DCMI_D4*%
X142150000Y-113738000D03*
%TO.P,IC1,53,PC12*%
%TO.N,/LED2*%
X142650000Y-113738000D03*
%TO.P,IC1,54,PD2*%
%TO.N,unconnected-(IC1-Pad54)*%
X143150000Y-113738000D03*
%TO.P,IC1,55,PB3*%
%TO.N,/SPI1_SCK*%
X143650000Y-113738000D03*
%TO.P,IC1,56,PB4*%
%TO.N,/SPI1_MISO*%
X144150000Y-113738000D03*
%TO.P,IC1,57,PB5*%
%TO.N,/SPI1_MOSI*%
X144650000Y-113738000D03*
%TO.P,IC1,58,PB6*%
%TO.N,/DCMI_D5*%
X145150000Y-113738000D03*
%TO.P,IC1,59,PB7*%
%TO.N,/DCMI_VSYNC*%
X145650000Y-113738000D03*
%TO.P,IC1,60,PH3-BOOT0*%
%TO.N,Net-(IC1-Pad60)*%
X146150000Y-113738000D03*
%TO.P,IC1,61,PB8*%
%TO.N,/DCMI_D6*%
X146650000Y-113738000D03*
%TO.P,IC1,62,PB9*%
%TO.N,/DCMI_D7*%
X147150000Y-113738000D03*
%TO.P,IC1,63,VSS_4*%
%TO.N,GND*%
X147650000Y-113738000D03*
%TO.P,IC1,64,VDD_3*%
%TO.N,/VDD_FILT*%
X148150000Y-113738000D03*
%TD*%
D15*
%TO.P,C11,1*%
%TO.N,Net-(C11-Pad1)*%
X160100000Y-109750000D03*
%TO.P,C11,2*%
%TO.N,GND*%
X161500000Y-109750000D03*
%TD*%
D10*
%TO.P,J7,1,Pin_1*%
%TO.N,/DCMI_D0*%
X171510000Y-114350000D03*
%TO.P,J7,2,Pin_2*%
%TO.N,/DCMI_D1*%
X168970000Y-114350000D03*
%TO.P,J7,3,Pin_3*%
%TO.N,/DCMI_D2*%
X171510000Y-111810000D03*
%TO.P,J7,4,Pin_4*%
%TO.N,/DCMI_D3*%
X168970000Y-111810000D03*
%TO.P,J7,5,Pin_5*%
%TO.N,/DCMI_D4*%
X171510000Y-109270000D03*
%TO.P,J7,6,Pin_6*%
%TO.N,/DCMI_D5*%
X168970000Y-109270000D03*
%TO.P,J7,7,Pin_7*%
%TO.N,/DCMI_D6*%
X171510000Y-106730000D03*
%TO.P,J7,8,Pin_8*%
%TO.N,/DCMI_D7*%
X168970000Y-106730000D03*
%TO.P,J7,9,Pin_9*%
%TO.N,unconnected-(J7-Pad9)*%
X171510000Y-104190000D03*
%TO.P,J7,10,Pin_10*%
%TO.N,/DCMI_PIXCLK*%
X168970000Y-104190000D03*
%TO.P,J7,11,Pin_11*%
%TO.N,/DCMI_HSYNC*%
X171510000Y-101650000D03*
%TO.P,J7,12,Pin_12*%
%TO.N,/DCMI_VSYNC*%
X168970000Y-101650000D03*
%TD*%
%TO.P,J8,1,Pin_1*%
%TO.N,unconnected-(J8-Pad1)*%
X174050000Y-116890000D03*
%TO.P,J8,2,Pin_2*%
%TO.N,GND*%
X174050000Y-119430000D03*
%TO.P,J8,3,Pin_3*%
%TO.N,unconnected-(J8-Pad3)*%
X174050000Y-121970000D03*
%TO.P,J8,4,Pin_4*%
%TO.N,unconnected-(J8-Pad4)*%
X174050000Y-124510000D03*
%TD*%
D18*
%TO.P,R2,1*%
%TO.N,/LED2*%
X146000000Y-117400000D03*
%TO.P,R2,2*%
%TO.N,Net-(LED2-Pad2)*%
X146000000Y-119000000D03*
%TD*%
D12*
%TO.P,C3,1*%
%TO.N,/VDD_FILT*%
X147150000Y-99900000D03*
%TO.P,C3,2*%
%TO.N,GND*%
X147150000Y-98500000D03*
%TD*%
D19*
%TO.P,Y2,1,1*%
%TO.N,Net-(C13-Pad1)*%
X154300000Y-115275000D03*
%TO.P,Y2,2,2*%
%TO.N,Net-(C12-Pad1)*%
X154300000Y-112725000D03*
%TD*%
D10*
%TO.P,J4,1,Pin_1*%
%TO.N,unconnected-(J4-Pad1)*%
X135950000Y-91490000D03*
%TO.P,J4,2,Pin_2*%
%TO.N,unconnected-(J4-Pad2)*%
X135950000Y-94030000D03*
%TO.P,J4,3,Pin_3*%
%TO.N,GND*%
X135950000Y-96570000D03*
%TO.P,J4,4,Pin_4*%
%TO.N,unconnected-(J4-Pad4)*%
X135950000Y-99110000D03*
%TD*%
D15*
%TO.P,C12,1*%
%TO.N,Net-(C12-Pad1)*%
X160100000Y-112725000D03*
%TO.P,C12,2*%
%TO.N,GND*%
X161500000Y-112725000D03*
%TD*%
D10*
%TO.P,J2,1,Pin_1*%
%TO.N,unconnected-(J2-Pad1)*%
X135950000Y-127050000D03*
%TO.P,J2,2,Pin_2*%
%TO.N,unconnected-(J2-Pad2)*%
X138490000Y-127050000D03*
%TO.P,J2,3,Pin_3*%
%TO.N,unconnected-(J2-Pad3)*%
X141030000Y-127050000D03*
%TO.P,J2,4,Pin_4*%
%TO.N,unconnected-(J2-Pad4)*%
X143570000Y-127050000D03*
%TO.P,J2,5,Pin_5*%
%TO.N,unconnected-(J2-Pad5)*%
X146110000Y-127050000D03*
%TO.P,J2,6,Pin_6*%
%TO.N,unconnected-(J2-Pad6)*%
X148650000Y-127050000D03*
%TO.P,J2,7,Pin_7*%
%TO.N,unconnected-(J2-Pad7)*%
X151190000Y-127050000D03*
%TO.P,J2,8,Pin_8*%
%TO.N,/BOOT0*%
X153730000Y-127050000D03*
%TO.P,J2,9,Pin_9*%
%TO.N,/LPUART_CTS*%
X156270000Y-127050000D03*
%TO.P,J2,10,Pin_10*%
%TO.N,/LPUART_TX*%
X158810000Y-127050000D03*
%TO.P,J2,11,Pin_11*%
%TO.N,/LPUART_RX*%
X161350000Y-127050000D03*
%TO.P,J2,12,Pin_12*%
%TO.N,/LPUART_RTS*%
X163890000Y-127050000D03*
%TO.P,J2,13,Pin_13*%
%TO.N,unconnected-(J2-Pad13)*%
X166430000Y-127050000D03*
%TO.P,J2,14,Pin_14*%
%TO.N,unconnected-(J2-Pad14)*%
X168970000Y-127050000D03*
%TO.P,J2,15,Pin_15*%
%TO.N,unconnected-(J2-Pad15)*%
X171510000Y-127050000D03*
%TO.P,J2,16,Pin_16*%
%TO.N,unconnected-(J2-Pad16)*%
X174050000Y-127050000D03*
%TD*%
D20*
%TO.P,LED1,1*%
%TO.N,GND*%
X143000000Y-122950000D03*
%TO.P,LED1,2*%
%TO.N,Net-(LED1-Pad2)*%
X143000000Y-121450000D03*
%TD*%
D11*
%TO.P,R3,1*%
%TO.N,Net-(IC1-Pad60)*%
X149100000Y-121000000D03*
%TO.P,R3,2*%
%TO.N,GND*%
X150700000Y-121000000D03*
%TD*%
D15*
%TO.P,C8,1*%
%TO.N,/VDD_FILT*%
X156100000Y-102800000D03*
%TO.P,C8,2*%
%TO.N,GND*%
X157500000Y-102800000D03*
%TD*%
%TO.P,C5,1*%
%TO.N,/VDD_FILT*%
X153100000Y-102800000D03*
%TO.P,C5,2*%
%TO.N,GND*%
X154500000Y-102800000D03*
%TD*%
D21*
%TO.P,IC2,1,CE#*%
%TO.N,/SPI1_NSS*%
X159668000Y-95595000D03*
%TO.P,IC2,2,SO(IO1)*%
%TO.N,/SPI1_MISO*%
X159668000Y-96865000D03*
%TO.P,IC2,3,WP#(IO2)*%
%TO.N,/IO1_WP*%
X159668000Y-98135000D03*
%TO.P,IC2,4,GND*%
%TO.N,GND*%
X159668000Y-99405000D03*
%TO.P,IC2,5,SI(IO0)*%
%TO.N,/SPI1_MOSI*%
X166732000Y-99405000D03*
%TO.P,IC2,6,SCK*%
%TO.N,/SPI1_SCK*%
X166732000Y-98135000D03*
%TO.P,IC2,7,HOLD#_OR__RESET#(IO3)*%
%TO.N,/IO2_HR*%
X166732000Y-96865000D03*
%TO.P,IC2,8,VCC*%
%TO.N,/VDD_FILT*%
X166732000Y-95595000D03*
%TD*%
D22*
%TO.P,Y1,1,CRYSTAL_1*%
%TO.N,Net-(C11-Pad1)*%
X155700000Y-109750000D03*
%TO.P,Y1,2,GND_1*%
%TO.N,GND*%
X155700000Y-107450000D03*
%TO.P,Y1,3,CRYSTAL_2*%
%TO.N,Net-(C10-Pad1)*%
X153800000Y-107450000D03*
%TO.P,Y1,4,GND_2*%
%TO.N,GND*%
X153800000Y-109750000D03*
%TD*%
D15*
%TO.P,C7,1*%
%TO.N,/VDD_FILT*%
X156100000Y-101000000D03*
%TO.P,C7,2*%
%TO.N,GND*%
X157500000Y-101000000D03*
%TD*%
%TO.P,C1,1*%
%TO.N,/VDD_FILT*%
X140000000Y-119430000D03*
%TO.P,C1,2*%
%TO.N,GND*%
X138600000Y-119430000D03*
%TD*%
%TO.P,C6,1*%
%TO.N,/VDD_FILT*%
X153100000Y-101000000D03*
%TO.P,C6,2*%
%TO.N,GND*%
X154500000Y-101000000D03*
%TD*%
D10*
%TO.P,J3,1,Pin_1*%
%TO.N,unconnected-(J3-Pad1)*%
X174050000Y-99110000D03*
%TO.P,J3,2,Pin_2*%
%TO.N,unconnected-(J3-Pad2)*%
X174050000Y-96570000D03*
%TO.P,J3,3,Pin_3*%
%TO.N,unconnected-(J3-Pad3)*%
X174050000Y-94030000D03*
%TO.P,J3,4,Pin_4*%
%TO.N,unconnected-(J3-Pad4)*%
X174050000Y-91490000D03*
%TD*%
D18*
%TO.P,R1,1*%
%TO.N,/LED1*%
X143000000Y-117400000D03*
%TO.P,R1,2*%
%TO.N,Net-(LED1-Pad2)*%
X143000000Y-119000000D03*
%TD*%
D11*
%TO.P,R4,1*%
%TO.N,/BOOT0*%
X150700000Y-124000000D03*
%TO.P,R4,2*%
%TO.N,Net-(IC1-Pad60)*%
X149100000Y-124000000D03*
%TD*%
D15*
%TO.P,C13,1*%
%TO.N,Net-(C13-Pad1)*%
X160100000Y-115275000D03*
%TO.P,C13,2*%
%TO.N,GND*%
X161500000Y-115275000D03*
%TD*%
%TO.P,C4,1*%
%TO.N,/VDD_FILT*%
X149240000Y-116040000D03*
%TO.P,C4,2*%
%TO.N,GND*%
X150640000Y-116040000D03*
%TD*%
%TO.P,C9,1*%
%TO.N,/NRST*%
X153050000Y-105200000D03*
%TO.P,C9,2*%
%TO.N,GND*%
X154450000Y-105200000D03*
%TD*%
D20*
%TO.P,LED2,1*%
%TO.N,GND*%
X146000000Y-122950000D03*
%TO.P,LED2,2*%
%TO.N,Net-(LED2-Pad2)*%
X146000000Y-121450000D03*
%TD*%
D15*
%TO.P,C14,1*%
%TO.N,/VDD_FILT*%
X163900000Y-93400000D03*
%TO.P,C14,2*%
%TO.N,GND*%
X162500000Y-93400000D03*
%TD*%
D23*
%TO.P,C15,1*%
%TO.N,/VBAT*%
X160900000Y-121200000D03*
%TO.P,C15,2*%
%TO.N,GND*%
X165500000Y-121200000D03*
%TD*%
D24*
%TO.N,GND*%
X158200000Y-99400000D03*
X158500000Y-102800000D03*
X147650000Y-100850000D03*
X151600000Y-105800000D03*
X147150000Y-97150000D03*
X136770000Y-110120000D03*
X154500000Y-104000000D03*
X163500000Y-115300000D03*
X152600000Y-109750000D03*
X168600000Y-121200000D03*
X156800000Y-107450000D03*
X163500000Y-107500000D03*
X141150000Y-100950000D03*
X147650000Y-115220000D03*
X163500000Y-109750000D03*
X156000000Y-105200000D03*
X147020000Y-122950000D03*
X158500000Y-101000000D03*
X151900000Y-121000000D03*
X150600000Y-117310000D03*
X141900000Y-122950000D03*
X154500000Y-100000000D03*
X163500000Y-112700000D03*
X140650000Y-97150000D03*
%TO.N,/USART1_RTS*%
X142000000Y-110250000D03*
%TO.N,/USART1_RX*%
X141500000Y-109250000D03*
%TO.N,/USART1_TX*%
X141000000Y-108750000D03*
%TO.N,/USART1_CTS*%
X140500000Y-109750000D03*
%TO.N,/USART1_CK*%
X140100000Y-108250000D03*
%TO.N,/NRST*%
X153100000Y-92500000D03*
X153100000Y-104000000D03*
%TO.N,/LPUART_RTS*%
X144450000Y-105350000D03*
%TO.N,/LPUART_RX*%
X143930000Y-104350000D03*
%TO.N,/LPUART_TX*%
X143210000Y-104350000D03*
%TO.N,/LPUART_CTS*%
X143210000Y-105350000D03*
%TO.N,/SPI1_MISO*%
X158200000Y-96865000D03*
X145500000Y-115400000D03*
%TO.N,/IO1_WP*%
X151500000Y-107250000D03*
X158200000Y-98135000D03*
%TO.N,/SPI1_MOSI*%
X146600000Y-115800000D03*
X168200000Y-99405000D03*
%TO.N,/SPI1_SCK*%
X144150000Y-112000000D03*
X168200000Y-98135000D03*
%TO.N,/VDD_FILT*%
X145840000Y-99900000D03*
X168200000Y-95600000D03*
X149200000Y-117310000D03*
X140000000Y-118140000D03*
X139190000Y-99900000D03*
X136770000Y-110930000D03*
X156100000Y-104000000D03*
%TO.N,/IO2_HR*%
X152100000Y-106750000D03*
X168200000Y-96865000D03*
%TO.N,/DCMI_HSYNC*%
X148150000Y-104350000D03*
%TO.N,/DCMI_PIXCLK*%
X147150000Y-104350000D03*
%TO.N,/DCMI_D0*%
X147000000Y-111190000D03*
%TO.N,/DCMI_D1*%
X146300000Y-111190000D03*
%TO.N,/DCMI_D2*%
X147000000Y-110110000D03*
%TO.N,/DCMI_D3*%
X146300000Y-110110000D03*
%TO.N,/DCMI_D4*%
X147000000Y-109030000D03*
%TO.N,/DCMI_D5*%
X146300000Y-109030000D03*
%TO.N,/DCMI_VSYNC*%
X145000000Y-110590000D03*
%TO.N,/DCMI_D6*%
X147000000Y-107950000D03*
%TO.N,/DCMI_D7*%
X146300000Y-107950000D03*
%TD*%
D25*
%TO.N,GND*%
X161500000Y-109700000D02*
X163500000Y-109700000D01*
X147650000Y-113738000D02*
X147650000Y-115220000D01*
X158205000Y-99405000D02*
X159668000Y-99405000D01*
X141900000Y-122950000D02*
X143000000Y-122950000D01*
X151150000Y-106250000D02*
X151600000Y-105800000D01*
X162495000Y-99405000D02*
X159668000Y-99405000D01*
X150700000Y-121000000D02*
X151900000Y-121000000D01*
X161500000Y-112700000D02*
X163500000Y-112700000D01*
X161500000Y-107500000D02*
X163500000Y-107500000D01*
X162500000Y-99400000D02*
X162495000Y-99405000D01*
X141150000Y-100950000D02*
X141150000Y-102262000D01*
X138600000Y-119430000D02*
X135950000Y-119430000D01*
X162500000Y-93400000D02*
X162500000Y-99400000D01*
X165500000Y-121200000D02*
X168600000Y-121200000D01*
X146000000Y-122950000D02*
X147020000Y-122950000D01*
X138662000Y-111250000D02*
X137900000Y-111250000D01*
X154500000Y-101000000D02*
X154500000Y-100000000D01*
X154450000Y-105200000D02*
X156000000Y-105200000D01*
X140650000Y-97150000D02*
X140650000Y-98500000D01*
X161500000Y-115300000D02*
X163500000Y-115300000D01*
X155700000Y-107450000D02*
X156800000Y-107450000D01*
X147650000Y-100850000D02*
X147650000Y-102262000D01*
X153800000Y-109750000D02*
X152600000Y-109750000D01*
X150640000Y-116040000D02*
X150600000Y-116080000D01*
X158500000Y-102800000D02*
X157500000Y-102800000D01*
X137900000Y-111250000D02*
X136770000Y-110120000D01*
X150138000Y-106250000D02*
X151150000Y-106250000D01*
X154500000Y-102800000D02*
X154500000Y-104000000D01*
X150600000Y-116080000D02*
X150600000Y-117310000D01*
X157500000Y-101000000D02*
X158500000Y-101000000D01*
X147150000Y-98500000D02*
X147150000Y-97150000D01*
X158200000Y-99400000D02*
X158205000Y-99405000D01*
%TO.N,/SWCLK*%
X141390000Y-115342500D02*
X141390000Y-124510000D01*
X141390000Y-124510000D02*
X135950000Y-124510000D01*
X140650000Y-113738000D02*
X140650000Y-114602500D01*
X140650000Y-114602500D02*
X141390000Y-115342500D01*
%TO.N,/SWDIO*%
X140210000Y-114565522D02*
X140210000Y-110750000D01*
X140210000Y-110750000D02*
X138662000Y-110750000D01*
X135950000Y-121970000D02*
X140990000Y-121970000D01*
X140990000Y-115345522D02*
X140210000Y-114565522D01*
X140990000Y-121970000D02*
X140990000Y-115345522D01*
%TO.N,VDD*%
X135960000Y-116900000D02*
X135950000Y-116890000D01*
X138400000Y-116900000D02*
X135960000Y-116900000D01*
%TO.N,/USART1_RTS*%
X138662000Y-110250000D02*
X142000000Y-110250000D01*
%TO.N,/USART1_RX*%
X138662000Y-109250000D02*
X141500000Y-109250000D01*
%TO.N,/USART1_TX*%
X138662000Y-108750000D02*
X141000000Y-108750000D01*
%TO.N,/USART1_CTS*%
X138662000Y-109750000D02*
X140500000Y-109750000D01*
%TO.N,/USART1_CK*%
X138662000Y-108250000D02*
X140100000Y-108250000D01*
%TO.N,/NRST*%
X153100000Y-105150000D02*
X153050000Y-105200000D01*
X150138000Y-108750000D02*
X151800000Y-108750000D01*
X151190000Y-90590000D02*
X153100000Y-92500000D01*
X151190000Y-88950000D02*
X151190000Y-90590000D01*
X152600000Y-105650000D02*
X153050000Y-105200000D01*
X152600000Y-107950000D02*
X152600000Y-105650000D01*
X151800000Y-108750000D02*
X152600000Y-107950000D01*
X153100000Y-104000000D02*
X153100000Y-105150000D01*
%TO.N,/LPUART_RTS*%
X144450000Y-105050000D02*
X144220000Y-104820000D01*
X142171468Y-104250000D02*
X138662000Y-104250000D01*
X142741468Y-104820000D02*
X142171468Y-104250000D01*
X144220000Y-104820000D02*
X142741468Y-104820000D01*
X144450000Y-105350000D02*
X144450000Y-105050000D01*
%TO.N,/LPUART_RX*%
X142650000Y-103850000D02*
X143930000Y-103850000D01*
X142150000Y-102262000D02*
X142150000Y-103350000D01*
X142150000Y-103350000D02*
X142650000Y-103850000D01*
X143930000Y-103850000D02*
X143930000Y-104350000D01*
%TO.N,/LPUART_TX*%
X141650000Y-103370000D02*
X142630000Y-104350000D01*
X142630000Y-104350000D02*
X143210000Y-104350000D01*
X141650000Y-102262000D02*
X141650000Y-103370000D01*
%TO.N,/LPUART_CTS*%
X138662000Y-104750000D02*
X142210000Y-104750000D01*
X143110000Y-105250000D02*
X143210000Y-105350000D01*
X142710000Y-105250000D02*
X143110000Y-105250000D01*
X142210000Y-104750000D02*
X142710000Y-105250000D01*
%TO.N,/BOOT0*%
X150700000Y-124000000D02*
X150700000Y-124020000D01*
X150700000Y-124020000D02*
X153730000Y-127050000D01*
%TO.N,/SPI1_NSS*%
X143650000Y-99830000D02*
X147885000Y-95595000D01*
X162400000Y-91600000D02*
X159668000Y-94332000D01*
X159668000Y-95595000D02*
X150195000Y-95595000D01*
X159668000Y-94332000D02*
X159668000Y-95595000D01*
X143650000Y-102262000D02*
X143650000Y-99830000D01*
X147885000Y-95595000D02*
X150195000Y-95595000D01*
%TO.N,/SPI1_MISO*%
X145500000Y-115400000D02*
X144170000Y-115400000D01*
X144170000Y-115400000D02*
X144150000Y-115380000D01*
X144150000Y-113738000D02*
X144150000Y-115380000D01*
X158200000Y-96865000D02*
X159668000Y-96865000D01*
%TO.N,/IO1_WP*%
X150138000Y-107250000D02*
X151500000Y-107250000D01*
X158200000Y-98135000D02*
X159668000Y-98135000D01*
%TO.N,/SPI1_MOSI*%
X144660000Y-114710000D02*
X145870000Y-114710000D01*
X145870000Y-114710000D02*
X146600000Y-115440000D01*
X144650000Y-113738000D02*
X144650000Y-114700000D01*
X146600000Y-115440000D02*
X146600000Y-115800000D01*
X144650000Y-114700000D02*
X144660000Y-114710000D01*
X166732000Y-99405000D02*
X168200000Y-99405000D01*
%TO.N,/SPI1_SCK*%
X143650000Y-113738000D02*
X143650000Y-112500000D01*
X166732000Y-98135000D02*
X168200000Y-98135000D01*
X143650000Y-112500000D02*
X144150000Y-112000000D01*
%TO.N,/VDD_FILT*%
X153100000Y-101000000D02*
X153100000Y-102800000D01*
X153100000Y-100090000D02*
X153780000Y-99410000D01*
X153100000Y-101000000D02*
X153100000Y-100090000D01*
X145840000Y-99900000D02*
X147150000Y-99900000D01*
X140000000Y-116900000D02*
X140000000Y-118140000D01*
X168195000Y-95595000D02*
X168200000Y-95600000D01*
X166732000Y-94332000D02*
X166732000Y-95595000D01*
X156100000Y-101000000D02*
X156100000Y-102800000D01*
X166732000Y-95595000D02*
X168195000Y-95595000D01*
X151002500Y-105750000D02*
X150138000Y-105750000D01*
X164537000Y-93400000D02*
X166732000Y-95595000D01*
X139190000Y-99900000D02*
X140650000Y-99900000D01*
X152240000Y-104512500D02*
X151002500Y-105750000D01*
X153100000Y-102800000D02*
X152240000Y-102800000D01*
X148150000Y-116040000D02*
X149200000Y-116040000D01*
X155350000Y-99410000D02*
X156100000Y-100160000D01*
X140000000Y-118140000D02*
X140000000Y-119400000D01*
X156100000Y-102800000D02*
X156100000Y-104000000D01*
X153780000Y-99410000D02*
X155350000Y-99410000D01*
X164000000Y-91600000D02*
X166732000Y-94332000D01*
X137590000Y-111750000D02*
X136770000Y-110930000D01*
X149200000Y-116040000D02*
X149200000Y-117310000D01*
X140650000Y-102262000D02*
X140650000Y-99900000D01*
X156100000Y-100160000D02*
X156100000Y-101000000D01*
X138662000Y-111750000D02*
X137590000Y-111750000D01*
X152240000Y-102800000D02*
X152240000Y-104512500D01*
X147150000Y-102262000D02*
X147150000Y-99900000D01*
X163900000Y-93400000D02*
X164537000Y-93400000D01*
X148150000Y-113738000D02*
X148150000Y-116040000D01*
%TO.N,/LED1*%
X141650000Y-115220000D02*
X141650000Y-113738000D01*
X143000000Y-117400000D02*
X143000000Y-116570000D01*
X143000000Y-116570000D02*
X141650000Y-115220000D01*
%TO.N,/LED2*%
X144920000Y-117400000D02*
X146000000Y-117400000D01*
X142650000Y-115130000D02*
X144920000Y-117400000D01*
X142650000Y-113738000D02*
X142650000Y-115130000D01*
%TO.N,Net-(IC1-Pad60)*%
X148545000Y-116997500D02*
X148545000Y-117355000D01*
X149100000Y-117910000D02*
X149100000Y-121000000D01*
X146150000Y-114602500D02*
X148545000Y-116997500D01*
X148545000Y-117355000D02*
X149100000Y-117910000D01*
X149100000Y-121000000D02*
X149100000Y-124000000D01*
X146150000Y-113738000D02*
X146150000Y-114602500D01*
%TO.N,/VBAT*%
X151540000Y-117470000D02*
X155270000Y-121200000D01*
X155270000Y-121200000D02*
X160900000Y-121200000D01*
X151540000Y-111750000D02*
X151540000Y-117470000D01*
X150138000Y-111750000D02*
X151540000Y-111750000D01*
%TO.N,/IO2_HR*%
X150138000Y-106750000D02*
X152100000Y-106750000D01*
X166732000Y-96865000D02*
X168200000Y-96865000D01*
%TO.N,/DCMI_HSYNC*%
X147160000Y-103360000D02*
X146650000Y-103360000D01*
X148150000Y-104350000D02*
X147160000Y-103360000D01*
X146650000Y-103360000D02*
X146650000Y-102262000D01*
%TO.N,/DCMI_PIXCLK*%
X147150000Y-104350000D02*
X146180000Y-103380000D01*
X145650000Y-102262000D02*
X145650000Y-103380000D01*
X146180000Y-103380000D02*
X145650000Y-103380000D01*
%TO.N,Net-(LED1-Pad2)*%
X143000000Y-119000000D02*
X143000000Y-121450000D01*
%TO.N,/DCMI_D0*%
X138662000Y-106250000D02*
X140040000Y-106250000D01*
X140040000Y-106250000D02*
X140400000Y-105890000D01*
X148840000Y-110758531D02*
X148408531Y-111190000D01*
X140400000Y-105890000D02*
X148840000Y-105890000D01*
X148840000Y-105890000D02*
X148840000Y-110758531D01*
X148408531Y-111190000D02*
X147000000Y-111190000D01*
%TO.N,/DCMI_D1*%
X148579440Y-106162960D02*
X148586480Y-106170000D01*
X139923520Y-106750000D02*
X140510560Y-106162960D01*
X140510560Y-106162960D02*
X148579440Y-106162960D01*
X138662000Y-106750000D02*
X139923520Y-106750000D01*
X146300000Y-110890000D02*
X146536480Y-110653520D01*
X146300000Y-111190000D02*
X146300000Y-110890000D01*
X148586480Y-110653520D02*
X146536480Y-110653520D01*
X148586480Y-106170000D02*
X148586480Y-110653520D01*
%TO.N,/DCMI_D2*%
X139830000Y-107250000D02*
X140663520Y-106416480D01*
X138662000Y-107250000D02*
X139830000Y-107250000D01*
X148329440Y-106416480D02*
X148332960Y-106420000D01*
X140663520Y-106416480D02*
X148329440Y-106416480D01*
X148332960Y-106420000D02*
X148332960Y-110110000D01*
X148332960Y-110110000D02*
X147000000Y-110110000D01*
%TO.N,/DCMI_D3*%
X138662000Y-107750000D02*
X139770000Y-107750000D01*
X139770000Y-107750000D02*
X140850000Y-106670000D01*
X140850000Y-106670000D02*
X148079440Y-106670000D01*
X146300000Y-110110000D02*
X146300000Y-109520000D01*
X146330000Y-109490000D02*
X148079440Y-109490000D01*
X146300000Y-109520000D02*
X146330000Y-109490000D01*
X148079440Y-106670000D02*
X148079440Y-109470000D01*
%TO.N,/DCMI_D4*%
X147000000Y-109030000D02*
X147790000Y-109030000D01*
X142150000Y-112010000D02*
X142150000Y-113738000D01*
X143200000Y-106970000D02*
X143200000Y-110960000D01*
X147825920Y-108994080D02*
X147825920Y-106956480D01*
X147790000Y-109030000D02*
X147825920Y-108994080D01*
X143200000Y-110960000D02*
X142150000Y-112010000D01*
X143213520Y-106956480D02*
X143200000Y-106970000D01*
X147825920Y-106956480D02*
X143213520Y-106956480D01*
%TO.N,Net-(LED2-Pad2)*%
X146000000Y-121450000D02*
X146000000Y-119000000D01*
%TO.N,Net-(C13-Pad1)*%
X151002500Y-110750000D02*
X153209989Y-112957489D01*
X153209989Y-114184989D02*
X154300000Y-115275000D01*
X150138000Y-110750000D02*
X151002500Y-110750000D01*
X153209989Y-112957489D02*
X153209989Y-114184989D01*
X154300000Y-115275000D02*
X160100000Y-115275000D01*
%TO.N,Net-(C12-Pad1)*%
X154300000Y-112725000D02*
X160100000Y-112725000D01*
X151825000Y-110250000D02*
X154300000Y-112725000D01*
X150138000Y-110250000D02*
X151825000Y-110250000D01*
%TO.N,/DCMI_D5*%
X143490000Y-107210000D02*
X147560000Y-107210000D01*
X146300000Y-108468160D02*
X146314080Y-108454080D01*
X147560000Y-107210000D02*
X147560000Y-108454080D01*
X145150000Y-112538532D02*
X144666480Y-112055010D01*
X145150000Y-113738000D02*
X145150000Y-112538532D01*
X143490000Y-110070000D02*
X143490000Y-107210000D01*
X144666480Y-111246480D02*
X143490000Y-110070000D01*
X144666480Y-112055010D02*
X144666480Y-111246480D01*
X146300000Y-109030000D02*
X146300000Y-108468160D01*
X147560000Y-108454080D02*
X146314080Y-108454080D01*
%TO.N,/DCMI_VSYNC*%
X145650000Y-112680000D02*
X145650000Y-113738000D01*
X145000000Y-112030000D02*
X145005000Y-112035000D01*
X145000000Y-110590000D02*
X145000000Y-112030000D01*
X145005000Y-112035000D02*
X145650000Y-112680000D01*
%TO.N,/DCMI_D6*%
X147000000Y-107950000D02*
X146516480Y-107466480D01*
X146516480Y-107466480D02*
X145486480Y-107466480D01*
X145486480Y-107466480D02*
X145486480Y-112157948D01*
X145486480Y-112157948D02*
X145988532Y-112660000D01*
X146650000Y-112660000D02*
X146650000Y-113738000D01*
X145988532Y-112660000D02*
X146650000Y-112660000D01*
%TO.N,/DCMI_D7*%
X145740000Y-111880000D02*
X146190000Y-112330000D01*
X145740000Y-108510000D02*
X146300000Y-107950000D01*
X146190000Y-112330000D02*
X147150000Y-112330000D01*
X147150000Y-112330000D02*
X147150000Y-113738000D01*
X145740000Y-111880000D02*
X145740000Y-108510000D01*
%TO.N,Net-(C11-Pad1)*%
X154750000Y-108800000D02*
X155700000Y-109750000D01*
X160100000Y-109750000D02*
X155700000Y-109750000D01*
X152808532Y-108800000D02*
X154750000Y-108800000D01*
X151858532Y-109750000D02*
X152808532Y-108800000D01*
X150138000Y-109750000D02*
X151858532Y-109750000D01*
%TO.N,Net-(C10-Pad1)*%
X154750000Y-106500000D02*
X159100000Y-106500000D01*
X153800000Y-107450000D02*
X154750000Y-106500000D01*
X152000000Y-109250000D02*
X153800000Y-107450000D01*
X150138000Y-109250000D02*
X152000000Y-109250000D01*
X159100000Y-106500000D02*
X160100000Y-107500000D01*
%TD*%
M02*
