%TF.GenerationSoftware,KiCad,Pcbnew,(6.0.5)*%
%TF.CreationDate,2022-06-02T11:43:32-04:00*%
%TF.ProjectId,pq-cdh,70712d63-6468-42e6-9b69-6361645f7063,V1.0.1*%
%TF.SameCoordinates,Original*%
%TF.FileFunction,AssemblyDrawing,Top*%
%FSLAX46Y46*%
G04 Gerber Fmt 4.6, Leading zero omitted, Abs format (unit mm)*
G04 Created by KiCad (PCBNEW (6.0.5)) date 2022-06-02 11:43:32*
%MOMM*%
%LPD*%
G01*
G04 APERTURE LIST*
%ADD10C,0.150000*%
%ADD11C,0.254000*%
%ADD12C,0.100000*%
%ADD13C,0.200000*%
G04 APERTURE END LIST*
D10*
%TO.C,J1*%
X135591904Y-126077142D02*
X135544285Y-126124761D01*
X135401428Y-126172380D01*
X135306190Y-126172380D01*
X135163333Y-126124761D01*
X135068095Y-126029523D01*
X135020476Y-125934285D01*
X134972857Y-125743809D01*
X134972857Y-125600952D01*
X135020476Y-125410476D01*
X135068095Y-125315238D01*
X135163333Y-125220000D01*
X135306190Y-125172380D01*
X135401428Y-125172380D01*
X135544285Y-125220000D01*
X135591904Y-125267619D01*
X136163333Y-126172380D02*
X136068095Y-126124761D01*
X136020476Y-126077142D01*
X135972857Y-125981904D01*
X135972857Y-125696190D01*
X136020476Y-125600952D01*
X136068095Y-125553333D01*
X136163333Y-125505714D01*
X136306190Y-125505714D01*
X136401428Y-125553333D01*
X136449047Y-125600952D01*
X136496666Y-125696190D01*
X136496666Y-125981904D01*
X136449047Y-126077142D01*
X136401428Y-126124761D01*
X136306190Y-126172380D01*
X136163333Y-126172380D01*
X136925238Y-125505714D02*
X136925238Y-126172380D01*
X136925238Y-125600952D02*
X136972857Y-125553333D01*
X137068095Y-125505714D01*
X137210952Y-125505714D01*
X137306190Y-125553333D01*
X137353809Y-125648571D01*
X137353809Y-126172380D01*
X137830000Y-125505714D02*
X137830000Y-126172380D01*
X137830000Y-125600952D02*
X137877619Y-125553333D01*
X137972857Y-125505714D01*
X138115714Y-125505714D01*
X138210952Y-125553333D01*
X138258571Y-125648571D01*
X138258571Y-126172380D01*
X138496666Y-126267619D02*
X139258571Y-126267619D01*
X139687142Y-125172380D02*
X139782380Y-125172380D01*
X139877619Y-125220000D01*
X139925238Y-125267619D01*
X139972857Y-125362857D01*
X140020476Y-125553333D01*
X140020476Y-125791428D01*
X139972857Y-125981904D01*
X139925238Y-126077142D01*
X139877619Y-126124761D01*
X139782380Y-126172380D01*
X139687142Y-126172380D01*
X139591904Y-126124761D01*
X139544285Y-126077142D01*
X139496666Y-125981904D01*
X139449047Y-125791428D01*
X139449047Y-125553333D01*
X139496666Y-125362857D01*
X139544285Y-125267619D01*
X139591904Y-125220000D01*
X139687142Y-125172380D01*
X140972857Y-126172380D02*
X140401428Y-126172380D01*
X140687142Y-126172380D02*
X140687142Y-125172380D01*
X140591904Y-125315238D01*
X140496666Y-125410476D01*
X140401428Y-125458095D01*
X141306190Y-126172380D02*
X141830000Y-125505714D01*
X141306190Y-125505714D02*
X141830000Y-126172380D01*
X142401428Y-125172380D02*
X142496666Y-125172380D01*
X142591904Y-125220000D01*
X142639523Y-125267619D01*
X142687142Y-125362857D01*
X142734761Y-125553333D01*
X142734761Y-125791428D01*
X142687142Y-125981904D01*
X142639523Y-126077142D01*
X142591904Y-126124761D01*
X142496666Y-126172380D01*
X142401428Y-126172380D01*
X142306190Y-126124761D01*
X142258571Y-126077142D01*
X142210952Y-125981904D01*
X142163333Y-125791428D01*
X142163333Y-125553333D01*
X142210952Y-125362857D01*
X142258571Y-125267619D01*
X142306190Y-125220000D01*
X142401428Y-125172380D01*
X143591904Y-125505714D02*
X143591904Y-126172380D01*
X143353809Y-125124761D02*
X143115714Y-125839047D01*
X143734761Y-125839047D01*
D11*
%TO.C,R5*%
X162988333Y-92174523D02*
X162565000Y-91569761D01*
X162262619Y-92174523D02*
X162262619Y-90904523D01*
X162746428Y-90904523D01*
X162867380Y-90965000D01*
X162927857Y-91025476D01*
X162988333Y-91146428D01*
X162988333Y-91327857D01*
X162927857Y-91448809D01*
X162867380Y-91509285D01*
X162746428Y-91569761D01*
X162262619Y-91569761D01*
X164137380Y-90904523D02*
X163532619Y-90904523D01*
X163472142Y-91509285D01*
X163532619Y-91448809D01*
X163653571Y-91388333D01*
X163955952Y-91388333D01*
X164076904Y-91448809D01*
X164137380Y-91509285D01*
X164197857Y-91630238D01*
X164197857Y-91932619D01*
X164137380Y-92053571D01*
X164076904Y-92114047D01*
X163955952Y-92174523D01*
X163653571Y-92174523D01*
X163532619Y-92114047D01*
X163472142Y-92053571D01*
X162988333Y-92174523D02*
X162565000Y-91569761D01*
X162262619Y-92174523D02*
X162262619Y-90904523D01*
X162746428Y-90904523D01*
X162867380Y-90965000D01*
X162927857Y-91025476D01*
X162988333Y-91146428D01*
X162988333Y-91327857D01*
X162927857Y-91448809D01*
X162867380Y-91509285D01*
X162746428Y-91569761D01*
X162262619Y-91569761D01*
X164137380Y-90904523D02*
X163532619Y-90904523D01*
X163472142Y-91509285D01*
X163532619Y-91448809D01*
X163653571Y-91388333D01*
X163955952Y-91388333D01*
X164076904Y-91448809D01*
X164137380Y-91509285D01*
X164197857Y-91630238D01*
X164197857Y-91932619D01*
X164137380Y-92053571D01*
X164076904Y-92114047D01*
X163955952Y-92174523D01*
X163653571Y-92174523D01*
X163532619Y-92114047D01*
X163472142Y-92053571D01*
D10*
%TO.C,J5*%
X166171904Y-87707142D02*
X166124285Y-87754761D01*
X165981428Y-87802380D01*
X165886190Y-87802380D01*
X165743333Y-87754761D01*
X165648095Y-87659523D01*
X165600476Y-87564285D01*
X165552857Y-87373809D01*
X165552857Y-87230952D01*
X165600476Y-87040476D01*
X165648095Y-86945238D01*
X165743333Y-86850000D01*
X165886190Y-86802380D01*
X165981428Y-86802380D01*
X166124285Y-86850000D01*
X166171904Y-86897619D01*
X166743333Y-87802380D02*
X166648095Y-87754761D01*
X166600476Y-87707142D01*
X166552857Y-87611904D01*
X166552857Y-87326190D01*
X166600476Y-87230952D01*
X166648095Y-87183333D01*
X166743333Y-87135714D01*
X166886190Y-87135714D01*
X166981428Y-87183333D01*
X167029047Y-87230952D01*
X167076666Y-87326190D01*
X167076666Y-87611904D01*
X167029047Y-87707142D01*
X166981428Y-87754761D01*
X166886190Y-87802380D01*
X166743333Y-87802380D01*
X167505238Y-87135714D02*
X167505238Y-87802380D01*
X167505238Y-87230952D02*
X167552857Y-87183333D01*
X167648095Y-87135714D01*
X167790952Y-87135714D01*
X167886190Y-87183333D01*
X167933809Y-87278571D01*
X167933809Y-87802380D01*
X168410000Y-87135714D02*
X168410000Y-87802380D01*
X168410000Y-87230952D02*
X168457619Y-87183333D01*
X168552857Y-87135714D01*
X168695714Y-87135714D01*
X168790952Y-87183333D01*
X168838571Y-87278571D01*
X168838571Y-87802380D01*
X169076666Y-87897619D02*
X169838571Y-87897619D01*
X170267142Y-86802380D02*
X170362380Y-86802380D01*
X170457619Y-86850000D01*
X170505238Y-86897619D01*
X170552857Y-86992857D01*
X170600476Y-87183333D01*
X170600476Y-87421428D01*
X170552857Y-87611904D01*
X170505238Y-87707142D01*
X170457619Y-87754761D01*
X170362380Y-87802380D01*
X170267142Y-87802380D01*
X170171904Y-87754761D01*
X170124285Y-87707142D01*
X170076666Y-87611904D01*
X170029047Y-87421428D01*
X170029047Y-87183333D01*
X170076666Y-86992857D01*
X170124285Y-86897619D01*
X170171904Y-86850000D01*
X170267142Y-86802380D01*
X171552857Y-87802380D02*
X170981428Y-87802380D01*
X171267142Y-87802380D02*
X171267142Y-86802380D01*
X171171904Y-86945238D01*
X171076666Y-87040476D01*
X170981428Y-87088095D01*
X171886190Y-87802380D02*
X172410000Y-87135714D01*
X171886190Y-87135714D02*
X172410000Y-87802380D01*
X173314761Y-87802380D02*
X172743333Y-87802380D01*
X173029047Y-87802380D02*
X173029047Y-86802380D01*
X172933809Y-86945238D01*
X172838571Y-87040476D01*
X172743333Y-87088095D01*
X174171904Y-86802380D02*
X173981428Y-86802380D01*
X173886190Y-86850000D01*
X173838571Y-86897619D01*
X173743333Y-87040476D01*
X173695714Y-87230952D01*
X173695714Y-87611904D01*
X173743333Y-87707142D01*
X173790952Y-87754761D01*
X173886190Y-87802380D01*
X174076666Y-87802380D01*
X174171904Y-87754761D01*
X174219523Y-87707142D01*
X174267142Y-87611904D01*
X174267142Y-87373809D01*
X174219523Y-87278571D01*
X174171904Y-87230952D01*
X174076666Y-87183333D01*
X173886190Y-87183333D01*
X173790952Y-87230952D01*
X173743333Y-87278571D01*
X173695714Y-87373809D01*
D11*
%TO.C,C2*%
X141103571Y-99411666D02*
X141164047Y-99472142D01*
X141224523Y-99653571D01*
X141224523Y-99774523D01*
X141164047Y-99955952D01*
X141043095Y-100076904D01*
X140922142Y-100137380D01*
X140680238Y-100197857D01*
X140498809Y-100197857D01*
X140256904Y-100137380D01*
X140135952Y-100076904D01*
X140015000Y-99955952D01*
X139954523Y-99774523D01*
X139954523Y-99653571D01*
X140015000Y-99472142D01*
X140075476Y-99411666D01*
X140075476Y-98927857D02*
X140015000Y-98867380D01*
X139954523Y-98746428D01*
X139954523Y-98444047D01*
X140015000Y-98323095D01*
X140075476Y-98262619D01*
X140196428Y-98202142D01*
X140317380Y-98202142D01*
X140498809Y-98262619D01*
X141224523Y-98988333D01*
X141224523Y-98202142D01*
X141103571Y-99411666D02*
X141164047Y-99472142D01*
X141224523Y-99653571D01*
X141224523Y-99774523D01*
X141164047Y-99955952D01*
X141043095Y-100076904D01*
X140922142Y-100137380D01*
X140680238Y-100197857D01*
X140498809Y-100197857D01*
X140256904Y-100137380D01*
X140135952Y-100076904D01*
X140015000Y-99955952D01*
X139954523Y-99774523D01*
X139954523Y-99653571D01*
X140015000Y-99472142D01*
X140075476Y-99411666D01*
X140075476Y-98927857D02*
X140015000Y-98867380D01*
X139954523Y-98746428D01*
X139954523Y-98444047D01*
X140015000Y-98323095D01*
X140075476Y-98262619D01*
X140196428Y-98202142D01*
X140317380Y-98202142D01*
X140498809Y-98262619D01*
X141224523Y-98988333D01*
X141224523Y-98202142D01*
%TO.C,FB1*%
X138141666Y-116809285D02*
X137718333Y-116809285D01*
X137718333Y-117474523D02*
X137718333Y-116204523D01*
X138323095Y-116204523D01*
X139230238Y-116809285D02*
X139411666Y-116869761D01*
X139472142Y-116930238D01*
X139532619Y-117051190D01*
X139532619Y-117232619D01*
X139472142Y-117353571D01*
X139411666Y-117414047D01*
X139290714Y-117474523D01*
X138806904Y-117474523D01*
X138806904Y-116204523D01*
X139230238Y-116204523D01*
X139351190Y-116265000D01*
X139411666Y-116325476D01*
X139472142Y-116446428D01*
X139472142Y-116567380D01*
X139411666Y-116688333D01*
X139351190Y-116748809D01*
X139230238Y-116809285D01*
X138806904Y-116809285D01*
X140742142Y-117474523D02*
X140016428Y-117474523D01*
X140379285Y-117474523D02*
X140379285Y-116204523D01*
X140258333Y-116385952D01*
X140137380Y-116506904D01*
X140016428Y-116567380D01*
X138141666Y-116809285D02*
X137718333Y-116809285D01*
X137718333Y-117474523D02*
X137718333Y-116204523D01*
X138323095Y-116204523D01*
X139230238Y-116809285D02*
X139411666Y-116869761D01*
X139472142Y-116930238D01*
X139532619Y-117051190D01*
X139532619Y-117232619D01*
X139472142Y-117353571D01*
X139411666Y-117414047D01*
X139290714Y-117474523D01*
X138806904Y-117474523D01*
X138806904Y-116204523D01*
X139230238Y-116204523D01*
X139351190Y-116265000D01*
X139411666Y-116325476D01*
X139472142Y-116446428D01*
X139472142Y-116567380D01*
X139411666Y-116688333D01*
X139351190Y-116748809D01*
X139230238Y-116809285D01*
X138806904Y-116809285D01*
X140742142Y-117474523D02*
X140016428Y-117474523D01*
X140379285Y-117474523D02*
X140379285Y-116204523D01*
X140258333Y-116385952D01*
X140137380Y-116506904D01*
X140016428Y-116567380D01*
D10*
%TO.C,J6*%
X134667142Y-111088095D02*
X134714761Y-111135714D01*
X134762380Y-111278571D01*
X134762380Y-111373809D01*
X134714761Y-111516666D01*
X134619523Y-111611904D01*
X134524285Y-111659523D01*
X134333809Y-111707142D01*
X134190952Y-111707142D01*
X134000476Y-111659523D01*
X133905238Y-111611904D01*
X133810000Y-111516666D01*
X133762380Y-111373809D01*
X133762380Y-111278571D01*
X133810000Y-111135714D01*
X133857619Y-111088095D01*
X134762380Y-110516666D02*
X134714761Y-110611904D01*
X134667142Y-110659523D01*
X134571904Y-110707142D01*
X134286190Y-110707142D01*
X134190952Y-110659523D01*
X134143333Y-110611904D01*
X134095714Y-110516666D01*
X134095714Y-110373809D01*
X134143333Y-110278571D01*
X134190952Y-110230952D01*
X134286190Y-110183333D01*
X134571904Y-110183333D01*
X134667142Y-110230952D01*
X134714761Y-110278571D01*
X134762380Y-110373809D01*
X134762380Y-110516666D01*
X134095714Y-109754761D02*
X134762380Y-109754761D01*
X134190952Y-109754761D02*
X134143333Y-109707142D01*
X134095714Y-109611904D01*
X134095714Y-109469047D01*
X134143333Y-109373809D01*
X134238571Y-109326190D01*
X134762380Y-109326190D01*
X134095714Y-108850000D02*
X134762380Y-108850000D01*
X134190952Y-108850000D02*
X134143333Y-108802380D01*
X134095714Y-108707142D01*
X134095714Y-108564285D01*
X134143333Y-108469047D01*
X134238571Y-108421428D01*
X134762380Y-108421428D01*
X134857619Y-108183333D02*
X134857619Y-107421428D01*
X133762380Y-106992857D02*
X133762380Y-106897619D01*
X133810000Y-106802380D01*
X133857619Y-106754761D01*
X133952857Y-106707142D01*
X134143333Y-106659523D01*
X134381428Y-106659523D01*
X134571904Y-106707142D01*
X134667142Y-106754761D01*
X134714761Y-106802380D01*
X134762380Y-106897619D01*
X134762380Y-106992857D01*
X134714761Y-107088095D01*
X134667142Y-107135714D01*
X134571904Y-107183333D01*
X134381428Y-107230952D01*
X134143333Y-107230952D01*
X133952857Y-107183333D01*
X133857619Y-107135714D01*
X133810000Y-107088095D01*
X133762380Y-106992857D01*
X134762380Y-105707142D02*
X134762380Y-106278571D01*
X134762380Y-105992857D02*
X133762380Y-105992857D01*
X133905238Y-106088095D01*
X134000476Y-106183333D01*
X134048095Y-106278571D01*
X134762380Y-105373809D02*
X134095714Y-104850000D01*
X134095714Y-105373809D02*
X134762380Y-104850000D01*
X133762380Y-104278571D02*
X133762380Y-104183333D01*
X133810000Y-104088095D01*
X133857619Y-104040476D01*
X133952857Y-103992857D01*
X134143333Y-103945238D01*
X134381428Y-103945238D01*
X134571904Y-103992857D01*
X134667142Y-104040476D01*
X134714761Y-104088095D01*
X134762380Y-104183333D01*
X134762380Y-104278571D01*
X134714761Y-104373809D01*
X134667142Y-104421428D01*
X134571904Y-104469047D01*
X134381428Y-104516666D01*
X134143333Y-104516666D01*
X133952857Y-104469047D01*
X133857619Y-104421428D01*
X133810000Y-104373809D01*
X133762380Y-104278571D01*
X134095714Y-103088095D02*
X134762380Y-103088095D01*
X133714761Y-103326190D02*
X134429047Y-103564285D01*
X134429047Y-102945238D01*
D11*
%TO.C,C10*%
X159983571Y-107953571D02*
X159923095Y-108014047D01*
X159741666Y-108074523D01*
X159620714Y-108074523D01*
X159439285Y-108014047D01*
X159318333Y-107893095D01*
X159257857Y-107772142D01*
X159197380Y-107530238D01*
X159197380Y-107348809D01*
X159257857Y-107106904D01*
X159318333Y-106985952D01*
X159439285Y-106865000D01*
X159620714Y-106804523D01*
X159741666Y-106804523D01*
X159923095Y-106865000D01*
X159983571Y-106925476D01*
X161193095Y-108074523D02*
X160467380Y-108074523D01*
X160830238Y-108074523D02*
X160830238Y-106804523D01*
X160709285Y-106985952D01*
X160588333Y-107106904D01*
X160467380Y-107167380D01*
X161979285Y-106804523D02*
X162100238Y-106804523D01*
X162221190Y-106865000D01*
X162281666Y-106925476D01*
X162342142Y-107046428D01*
X162402619Y-107288333D01*
X162402619Y-107590714D01*
X162342142Y-107832619D01*
X162281666Y-107953571D01*
X162221190Y-108014047D01*
X162100238Y-108074523D01*
X161979285Y-108074523D01*
X161858333Y-108014047D01*
X161797857Y-107953571D01*
X161737380Y-107832619D01*
X161676904Y-107590714D01*
X161676904Y-107288333D01*
X161737380Y-107046428D01*
X161797857Y-106925476D01*
X161858333Y-106865000D01*
X161979285Y-106804523D01*
X159983571Y-107953571D02*
X159923095Y-108014047D01*
X159741666Y-108074523D01*
X159620714Y-108074523D01*
X159439285Y-108014047D01*
X159318333Y-107893095D01*
X159257857Y-107772142D01*
X159197380Y-107530238D01*
X159197380Y-107348809D01*
X159257857Y-107106904D01*
X159318333Y-106985952D01*
X159439285Y-106865000D01*
X159620714Y-106804523D01*
X159741666Y-106804523D01*
X159923095Y-106865000D01*
X159983571Y-106925476D01*
X161193095Y-108074523D02*
X160467380Y-108074523D01*
X160830238Y-108074523D02*
X160830238Y-106804523D01*
X160709285Y-106985952D01*
X160588333Y-107106904D01*
X160467380Y-107167380D01*
X161979285Y-106804523D02*
X162100238Y-106804523D01*
X162221190Y-106865000D01*
X162281666Y-106925476D01*
X162342142Y-107046428D01*
X162402619Y-107288333D01*
X162402619Y-107590714D01*
X162342142Y-107832619D01*
X162281666Y-107953571D01*
X162221190Y-108014047D01*
X162100238Y-108074523D01*
X161979285Y-108074523D01*
X161858333Y-108014047D01*
X161797857Y-107953571D01*
X161737380Y-107832619D01*
X161676904Y-107590714D01*
X161676904Y-107288333D01*
X161737380Y-107046428D01*
X161797857Y-106925476D01*
X161858333Y-106865000D01*
X161979285Y-106804523D01*
%TO.C,IC1*%
X143160238Y-108574523D02*
X143160238Y-107304523D01*
X144490714Y-108453571D02*
X144430238Y-108514047D01*
X144248809Y-108574523D01*
X144127857Y-108574523D01*
X143946428Y-108514047D01*
X143825476Y-108393095D01*
X143765000Y-108272142D01*
X143704523Y-108030238D01*
X143704523Y-107848809D01*
X143765000Y-107606904D01*
X143825476Y-107485952D01*
X143946428Y-107365000D01*
X144127857Y-107304523D01*
X144248809Y-107304523D01*
X144430238Y-107365000D01*
X144490714Y-107425476D01*
X145700238Y-108574523D02*
X144974523Y-108574523D01*
X145337380Y-108574523D02*
X145337380Y-107304523D01*
X145216428Y-107485952D01*
X145095476Y-107606904D01*
X144974523Y-107667380D01*
X143160238Y-108574523D02*
X143160238Y-107304523D01*
X144490714Y-108453571D02*
X144430238Y-108514047D01*
X144248809Y-108574523D01*
X144127857Y-108574523D01*
X143946428Y-108514047D01*
X143825476Y-108393095D01*
X143765000Y-108272142D01*
X143704523Y-108030238D01*
X143704523Y-107848809D01*
X143765000Y-107606904D01*
X143825476Y-107485952D01*
X143946428Y-107365000D01*
X144127857Y-107304523D01*
X144248809Y-107304523D01*
X144430238Y-107365000D01*
X144490714Y-107425476D01*
X145700238Y-108574523D02*
X144974523Y-108574523D01*
X145337380Y-108574523D02*
X145337380Y-107304523D01*
X145216428Y-107485952D01*
X145095476Y-107606904D01*
X144974523Y-107667380D01*
%TO.C,C11*%
X159983571Y-110203571D02*
X159923095Y-110264047D01*
X159741666Y-110324523D01*
X159620714Y-110324523D01*
X159439285Y-110264047D01*
X159318333Y-110143095D01*
X159257857Y-110022142D01*
X159197380Y-109780238D01*
X159197380Y-109598809D01*
X159257857Y-109356904D01*
X159318333Y-109235952D01*
X159439285Y-109115000D01*
X159620714Y-109054523D01*
X159741666Y-109054523D01*
X159923095Y-109115000D01*
X159983571Y-109175476D01*
X161193095Y-110324523D02*
X160467380Y-110324523D01*
X160830238Y-110324523D02*
X160830238Y-109054523D01*
X160709285Y-109235952D01*
X160588333Y-109356904D01*
X160467380Y-109417380D01*
X162402619Y-110324523D02*
X161676904Y-110324523D01*
X162039761Y-110324523D02*
X162039761Y-109054523D01*
X161918809Y-109235952D01*
X161797857Y-109356904D01*
X161676904Y-109417380D01*
X159983571Y-110203571D02*
X159923095Y-110264047D01*
X159741666Y-110324523D01*
X159620714Y-110324523D01*
X159439285Y-110264047D01*
X159318333Y-110143095D01*
X159257857Y-110022142D01*
X159197380Y-109780238D01*
X159197380Y-109598809D01*
X159257857Y-109356904D01*
X159318333Y-109235952D01*
X159439285Y-109115000D01*
X159620714Y-109054523D01*
X159741666Y-109054523D01*
X159923095Y-109115000D01*
X159983571Y-109175476D01*
X161193095Y-110324523D02*
X160467380Y-110324523D01*
X160830238Y-110324523D02*
X160830238Y-109054523D01*
X160709285Y-109235952D01*
X160588333Y-109356904D01*
X160467380Y-109417380D01*
X162402619Y-110324523D02*
X161676904Y-110324523D01*
X162039761Y-110324523D02*
X162039761Y-109054523D01*
X161918809Y-109235952D01*
X161797857Y-109356904D01*
X161676904Y-109417380D01*
D10*
%TO.C,J7*%
X158317142Y-117217142D02*
X158269523Y-117264761D01*
X158126666Y-117312380D01*
X158031428Y-117312380D01*
X157888571Y-117264761D01*
X157793333Y-117169523D01*
X157745714Y-117074285D01*
X157698095Y-116883809D01*
X157698095Y-116740952D01*
X157745714Y-116550476D01*
X157793333Y-116455238D01*
X157888571Y-116360000D01*
X158031428Y-116312380D01*
X158126666Y-116312380D01*
X158269523Y-116360000D01*
X158317142Y-116407619D01*
X158888571Y-117312380D02*
X158793333Y-117264761D01*
X158745714Y-117217142D01*
X158698095Y-117121904D01*
X158698095Y-116836190D01*
X158745714Y-116740952D01*
X158793333Y-116693333D01*
X158888571Y-116645714D01*
X159031428Y-116645714D01*
X159126666Y-116693333D01*
X159174285Y-116740952D01*
X159221904Y-116836190D01*
X159221904Y-117121904D01*
X159174285Y-117217142D01*
X159126666Y-117264761D01*
X159031428Y-117312380D01*
X158888571Y-117312380D01*
X159650476Y-116645714D02*
X159650476Y-117312380D01*
X159650476Y-116740952D02*
X159698095Y-116693333D01*
X159793333Y-116645714D01*
X159936190Y-116645714D01*
X160031428Y-116693333D01*
X160079047Y-116788571D01*
X160079047Y-117312380D01*
X160555238Y-116645714D02*
X160555238Y-117312380D01*
X160555238Y-116740952D02*
X160602857Y-116693333D01*
X160698095Y-116645714D01*
X160840952Y-116645714D01*
X160936190Y-116693333D01*
X160983809Y-116788571D01*
X160983809Y-117312380D01*
X161221904Y-117407619D02*
X161983809Y-117407619D01*
X162412380Y-116312380D02*
X162507619Y-116312380D01*
X162602857Y-116360000D01*
X162650476Y-116407619D01*
X162698095Y-116502857D01*
X162745714Y-116693333D01*
X162745714Y-116931428D01*
X162698095Y-117121904D01*
X162650476Y-117217142D01*
X162602857Y-117264761D01*
X162507619Y-117312380D01*
X162412380Y-117312380D01*
X162317142Y-117264761D01*
X162269523Y-117217142D01*
X162221904Y-117121904D01*
X162174285Y-116931428D01*
X162174285Y-116693333D01*
X162221904Y-116502857D01*
X162269523Y-116407619D01*
X162317142Y-116360000D01*
X162412380Y-116312380D01*
X163126666Y-116407619D02*
X163174285Y-116360000D01*
X163269523Y-116312380D01*
X163507619Y-116312380D01*
X163602857Y-116360000D01*
X163650476Y-116407619D01*
X163698095Y-116502857D01*
X163698095Y-116598095D01*
X163650476Y-116740952D01*
X163079047Y-117312380D01*
X163698095Y-117312380D01*
X164031428Y-117312380D02*
X164555238Y-116645714D01*
X164031428Y-116645714D02*
X164555238Y-117312380D01*
X165126666Y-116312380D02*
X165221904Y-116312380D01*
X165317142Y-116360000D01*
X165364761Y-116407619D01*
X165412380Y-116502857D01*
X165460000Y-116693333D01*
X165460000Y-116931428D01*
X165412380Y-117121904D01*
X165364761Y-117217142D01*
X165317142Y-117264761D01*
X165221904Y-117312380D01*
X165126666Y-117312380D01*
X165031428Y-117264761D01*
X164983809Y-117217142D01*
X164936190Y-117121904D01*
X164888571Y-116931428D01*
X164888571Y-116693333D01*
X164936190Y-116502857D01*
X164983809Y-116407619D01*
X165031428Y-116360000D01*
X165126666Y-116312380D01*
X166317142Y-116312380D02*
X166126666Y-116312380D01*
X166031428Y-116360000D01*
X165983809Y-116407619D01*
X165888571Y-116550476D01*
X165840952Y-116740952D01*
X165840952Y-117121904D01*
X165888571Y-117217142D01*
X165936190Y-117264761D01*
X166031428Y-117312380D01*
X166221904Y-117312380D01*
X166317142Y-117264761D01*
X166364761Y-117217142D01*
X166412380Y-117121904D01*
X166412380Y-116883809D01*
X166364761Y-116788571D01*
X166317142Y-116740952D01*
X166221904Y-116693333D01*
X166031428Y-116693333D01*
X165936190Y-116740952D01*
X165888571Y-116788571D01*
X165840952Y-116883809D01*
X166602857Y-117407619D02*
X167364761Y-117407619D01*
X167793333Y-116312380D02*
X167983809Y-116312380D01*
X168079047Y-116360000D01*
X168174285Y-116455238D01*
X168221904Y-116645714D01*
X168221904Y-116979047D01*
X168174285Y-117169523D01*
X168079047Y-117264761D01*
X167983809Y-117312380D01*
X167793333Y-117312380D01*
X167698095Y-117264761D01*
X167602857Y-117169523D01*
X167555238Y-116979047D01*
X167555238Y-116645714D01*
X167602857Y-116455238D01*
X167698095Y-116360000D01*
X167793333Y-116312380D01*
X169079047Y-117312380D02*
X169079047Y-116312380D01*
X169079047Y-117264761D02*
X168983809Y-117312380D01*
X168793333Y-117312380D01*
X168698095Y-117264761D01*
X168650476Y-117217142D01*
X168602857Y-117121904D01*
X168602857Y-116836190D01*
X168650476Y-116740952D01*
X168698095Y-116693333D01*
X168793333Y-116645714D01*
X168983809Y-116645714D01*
X169079047Y-116693333D01*
X169983809Y-117312380D02*
X169983809Y-116312380D01*
X169983809Y-117264761D02*
X169888571Y-117312380D01*
X169698095Y-117312380D01*
X169602857Y-117264761D01*
X169555238Y-117217142D01*
X169507619Y-117121904D01*
X169507619Y-116836190D01*
X169555238Y-116740952D01*
X169602857Y-116693333D01*
X169698095Y-116645714D01*
X169888571Y-116645714D01*
X169983809Y-116693333D01*
X170221904Y-117407619D02*
X170983809Y-117407619D01*
X171221904Y-116788571D02*
X171555238Y-116788571D01*
X171698095Y-117312380D02*
X171221904Y-117312380D01*
X171221904Y-116312380D01*
X171698095Y-116312380D01*
X172031428Y-116645714D02*
X172269523Y-117312380D01*
X172507619Y-116645714D01*
X173269523Y-117264761D02*
X173174285Y-117312380D01*
X172983809Y-117312380D01*
X172888571Y-117264761D01*
X172840952Y-117169523D01*
X172840952Y-116788571D01*
X172888571Y-116693333D01*
X172983809Y-116645714D01*
X173174285Y-116645714D01*
X173269523Y-116693333D01*
X173317142Y-116788571D01*
X173317142Y-116883809D01*
X172840952Y-116979047D01*
X173745714Y-116645714D02*
X173745714Y-117312380D01*
X173745714Y-116740952D02*
X173793333Y-116693333D01*
X173888571Y-116645714D01*
X174031428Y-116645714D01*
X174126666Y-116693333D01*
X174174285Y-116788571D01*
X174174285Y-117312380D01*
%TO.C,J8*%
X168061904Y-125997142D02*
X168014285Y-126044761D01*
X167871428Y-126092380D01*
X167776190Y-126092380D01*
X167633333Y-126044761D01*
X167538095Y-125949523D01*
X167490476Y-125854285D01*
X167442857Y-125663809D01*
X167442857Y-125520952D01*
X167490476Y-125330476D01*
X167538095Y-125235238D01*
X167633333Y-125140000D01*
X167776190Y-125092380D01*
X167871428Y-125092380D01*
X168014285Y-125140000D01*
X168061904Y-125187619D01*
X168633333Y-126092380D02*
X168538095Y-126044761D01*
X168490476Y-125997142D01*
X168442857Y-125901904D01*
X168442857Y-125616190D01*
X168490476Y-125520952D01*
X168538095Y-125473333D01*
X168633333Y-125425714D01*
X168776190Y-125425714D01*
X168871428Y-125473333D01*
X168919047Y-125520952D01*
X168966666Y-125616190D01*
X168966666Y-125901904D01*
X168919047Y-125997142D01*
X168871428Y-126044761D01*
X168776190Y-126092380D01*
X168633333Y-126092380D01*
X169395238Y-125425714D02*
X169395238Y-126092380D01*
X169395238Y-125520952D02*
X169442857Y-125473333D01*
X169538095Y-125425714D01*
X169680952Y-125425714D01*
X169776190Y-125473333D01*
X169823809Y-125568571D01*
X169823809Y-126092380D01*
X170300000Y-125425714D02*
X170300000Y-126092380D01*
X170300000Y-125520952D02*
X170347619Y-125473333D01*
X170442857Y-125425714D01*
X170585714Y-125425714D01*
X170680952Y-125473333D01*
X170728571Y-125568571D01*
X170728571Y-126092380D01*
X170966666Y-126187619D02*
X171728571Y-126187619D01*
X172157142Y-125092380D02*
X172252380Y-125092380D01*
X172347619Y-125140000D01*
X172395238Y-125187619D01*
X172442857Y-125282857D01*
X172490476Y-125473333D01*
X172490476Y-125711428D01*
X172442857Y-125901904D01*
X172395238Y-125997142D01*
X172347619Y-126044761D01*
X172252380Y-126092380D01*
X172157142Y-126092380D01*
X172061904Y-126044761D01*
X172014285Y-125997142D01*
X171966666Y-125901904D01*
X171919047Y-125711428D01*
X171919047Y-125473333D01*
X171966666Y-125282857D01*
X172014285Y-125187619D01*
X172061904Y-125140000D01*
X172157142Y-125092380D01*
X173442857Y-126092380D02*
X172871428Y-126092380D01*
X173157142Y-126092380D02*
X173157142Y-125092380D01*
X173061904Y-125235238D01*
X172966666Y-125330476D01*
X172871428Y-125378095D01*
X173776190Y-126092380D02*
X174300000Y-125425714D01*
X173776190Y-125425714D02*
X174300000Y-126092380D01*
X174871428Y-125092380D02*
X174966666Y-125092380D01*
X175061904Y-125140000D01*
X175109523Y-125187619D01*
X175157142Y-125282857D01*
X175204761Y-125473333D01*
X175204761Y-125711428D01*
X175157142Y-125901904D01*
X175109523Y-125997142D01*
X175061904Y-126044761D01*
X174966666Y-126092380D01*
X174871428Y-126092380D01*
X174776190Y-126044761D01*
X174728571Y-125997142D01*
X174680952Y-125901904D01*
X174633333Y-125711428D01*
X174633333Y-125473333D01*
X174680952Y-125282857D01*
X174728571Y-125187619D01*
X174776190Y-125140000D01*
X174871428Y-125092380D01*
X176061904Y-125425714D02*
X176061904Y-126092380D01*
X175823809Y-125044761D02*
X175585714Y-125759047D01*
X176204761Y-125759047D01*
D11*
%TO.C,R2*%
X146574523Y-118411666D02*
X145969761Y-118835000D01*
X146574523Y-119137380D02*
X145304523Y-119137380D01*
X145304523Y-118653571D01*
X145365000Y-118532619D01*
X145425476Y-118472142D01*
X145546428Y-118411666D01*
X145727857Y-118411666D01*
X145848809Y-118472142D01*
X145909285Y-118532619D01*
X145969761Y-118653571D01*
X145969761Y-119137380D01*
X145425476Y-117927857D02*
X145365000Y-117867380D01*
X145304523Y-117746428D01*
X145304523Y-117444047D01*
X145365000Y-117323095D01*
X145425476Y-117262619D01*
X145546428Y-117202142D01*
X145667380Y-117202142D01*
X145848809Y-117262619D01*
X146574523Y-117988333D01*
X146574523Y-117202142D01*
X146574523Y-118411666D02*
X145969761Y-118835000D01*
X146574523Y-119137380D02*
X145304523Y-119137380D01*
X145304523Y-118653571D01*
X145365000Y-118532619D01*
X145425476Y-118472142D01*
X145546428Y-118411666D01*
X145727857Y-118411666D01*
X145848809Y-118472142D01*
X145909285Y-118532619D01*
X145969761Y-118653571D01*
X145969761Y-119137380D01*
X145425476Y-117927857D02*
X145365000Y-117867380D01*
X145304523Y-117746428D01*
X145304523Y-117444047D01*
X145365000Y-117323095D01*
X145425476Y-117262619D01*
X145546428Y-117202142D01*
X145667380Y-117202142D01*
X145848809Y-117262619D01*
X146574523Y-117988333D01*
X146574523Y-117202142D01*
%TO.C,C3*%
X147603571Y-99411666D02*
X147664047Y-99472142D01*
X147724523Y-99653571D01*
X147724523Y-99774523D01*
X147664047Y-99955952D01*
X147543095Y-100076904D01*
X147422142Y-100137380D01*
X147180238Y-100197857D01*
X146998809Y-100197857D01*
X146756904Y-100137380D01*
X146635952Y-100076904D01*
X146515000Y-99955952D01*
X146454523Y-99774523D01*
X146454523Y-99653571D01*
X146515000Y-99472142D01*
X146575476Y-99411666D01*
X146454523Y-98988333D02*
X146454523Y-98202142D01*
X146938333Y-98625476D01*
X146938333Y-98444047D01*
X146998809Y-98323095D01*
X147059285Y-98262619D01*
X147180238Y-98202142D01*
X147482619Y-98202142D01*
X147603571Y-98262619D01*
X147664047Y-98323095D01*
X147724523Y-98444047D01*
X147724523Y-98806904D01*
X147664047Y-98927857D01*
X147603571Y-98988333D01*
X147603571Y-99411666D02*
X147664047Y-99472142D01*
X147724523Y-99653571D01*
X147724523Y-99774523D01*
X147664047Y-99955952D01*
X147543095Y-100076904D01*
X147422142Y-100137380D01*
X147180238Y-100197857D01*
X146998809Y-100197857D01*
X146756904Y-100137380D01*
X146635952Y-100076904D01*
X146515000Y-99955952D01*
X146454523Y-99774523D01*
X146454523Y-99653571D01*
X146515000Y-99472142D01*
X146575476Y-99411666D01*
X146454523Y-98988333D02*
X146454523Y-98202142D01*
X146938333Y-98625476D01*
X146938333Y-98444047D01*
X146998809Y-98323095D01*
X147059285Y-98262619D01*
X147180238Y-98202142D01*
X147482619Y-98202142D01*
X147603571Y-98262619D01*
X147664047Y-98323095D01*
X147724523Y-98444047D01*
X147724523Y-98806904D01*
X147664047Y-98927857D01*
X147603571Y-98988333D01*
%TO.C,Y2*%
X154269761Y-114604761D02*
X154874523Y-114604761D01*
X153604523Y-115028095D02*
X154269761Y-114604761D01*
X153604523Y-114181428D01*
X153725476Y-113818571D02*
X153665000Y-113758095D01*
X153604523Y-113637142D01*
X153604523Y-113334761D01*
X153665000Y-113213809D01*
X153725476Y-113153333D01*
X153846428Y-113092857D01*
X153967380Y-113092857D01*
X154148809Y-113153333D01*
X154874523Y-113879047D01*
X154874523Y-113092857D01*
X154269761Y-114604761D02*
X154874523Y-114604761D01*
X153604523Y-115028095D02*
X154269761Y-114604761D01*
X153604523Y-114181428D01*
X153725476Y-113818571D02*
X153665000Y-113758095D01*
X153604523Y-113637142D01*
X153604523Y-113334761D01*
X153665000Y-113213809D01*
X153725476Y-113153333D01*
X153846428Y-113092857D01*
X153967380Y-113092857D01*
X154148809Y-113153333D01*
X154874523Y-113879047D01*
X154874523Y-113092857D01*
D10*
%TO.C,J4*%
X134621904Y-90557142D02*
X134574285Y-90604761D01*
X134431428Y-90652380D01*
X134336190Y-90652380D01*
X134193333Y-90604761D01*
X134098095Y-90509523D01*
X134050476Y-90414285D01*
X134002857Y-90223809D01*
X134002857Y-90080952D01*
X134050476Y-89890476D01*
X134098095Y-89795238D01*
X134193333Y-89700000D01*
X134336190Y-89652380D01*
X134431428Y-89652380D01*
X134574285Y-89700000D01*
X134621904Y-89747619D01*
X135193333Y-90652380D02*
X135098095Y-90604761D01*
X135050476Y-90557142D01*
X135002857Y-90461904D01*
X135002857Y-90176190D01*
X135050476Y-90080952D01*
X135098095Y-90033333D01*
X135193333Y-89985714D01*
X135336190Y-89985714D01*
X135431428Y-90033333D01*
X135479047Y-90080952D01*
X135526666Y-90176190D01*
X135526666Y-90461904D01*
X135479047Y-90557142D01*
X135431428Y-90604761D01*
X135336190Y-90652380D01*
X135193333Y-90652380D01*
X135955238Y-89985714D02*
X135955238Y-90652380D01*
X135955238Y-90080952D02*
X136002857Y-90033333D01*
X136098095Y-89985714D01*
X136240952Y-89985714D01*
X136336190Y-90033333D01*
X136383809Y-90128571D01*
X136383809Y-90652380D01*
X136860000Y-89985714D02*
X136860000Y-90652380D01*
X136860000Y-90080952D02*
X136907619Y-90033333D01*
X137002857Y-89985714D01*
X137145714Y-89985714D01*
X137240952Y-90033333D01*
X137288571Y-90128571D01*
X137288571Y-90652380D01*
X137526666Y-90747619D02*
X138288571Y-90747619D01*
X138717142Y-89652380D02*
X138812380Y-89652380D01*
X138907619Y-89700000D01*
X138955238Y-89747619D01*
X139002857Y-89842857D01*
X139050476Y-90033333D01*
X139050476Y-90271428D01*
X139002857Y-90461904D01*
X138955238Y-90557142D01*
X138907619Y-90604761D01*
X138812380Y-90652380D01*
X138717142Y-90652380D01*
X138621904Y-90604761D01*
X138574285Y-90557142D01*
X138526666Y-90461904D01*
X138479047Y-90271428D01*
X138479047Y-90033333D01*
X138526666Y-89842857D01*
X138574285Y-89747619D01*
X138621904Y-89700000D01*
X138717142Y-89652380D01*
X140002857Y-90652380D02*
X139431428Y-90652380D01*
X139717142Y-90652380D02*
X139717142Y-89652380D01*
X139621904Y-89795238D01*
X139526666Y-89890476D01*
X139431428Y-89938095D01*
X140336190Y-90652380D02*
X140860000Y-89985714D01*
X140336190Y-89985714D02*
X140860000Y-90652380D01*
X141431428Y-89652380D02*
X141526666Y-89652380D01*
X141621904Y-89700000D01*
X141669523Y-89747619D01*
X141717142Y-89842857D01*
X141764761Y-90033333D01*
X141764761Y-90271428D01*
X141717142Y-90461904D01*
X141669523Y-90557142D01*
X141621904Y-90604761D01*
X141526666Y-90652380D01*
X141431428Y-90652380D01*
X141336190Y-90604761D01*
X141288571Y-90557142D01*
X141240952Y-90461904D01*
X141193333Y-90271428D01*
X141193333Y-90033333D01*
X141240952Y-89842857D01*
X141288571Y-89747619D01*
X141336190Y-89700000D01*
X141431428Y-89652380D01*
X142621904Y-89985714D02*
X142621904Y-90652380D01*
X142383809Y-89604761D02*
X142145714Y-90319047D01*
X142764761Y-90319047D01*
D11*
%TO.C,C12*%
X159983571Y-113178571D02*
X159923095Y-113239047D01*
X159741666Y-113299523D01*
X159620714Y-113299523D01*
X159439285Y-113239047D01*
X159318333Y-113118095D01*
X159257857Y-112997142D01*
X159197380Y-112755238D01*
X159197380Y-112573809D01*
X159257857Y-112331904D01*
X159318333Y-112210952D01*
X159439285Y-112090000D01*
X159620714Y-112029523D01*
X159741666Y-112029523D01*
X159923095Y-112090000D01*
X159983571Y-112150476D01*
X161193095Y-113299523D02*
X160467380Y-113299523D01*
X160830238Y-113299523D02*
X160830238Y-112029523D01*
X160709285Y-112210952D01*
X160588333Y-112331904D01*
X160467380Y-112392380D01*
X161676904Y-112150476D02*
X161737380Y-112090000D01*
X161858333Y-112029523D01*
X162160714Y-112029523D01*
X162281666Y-112090000D01*
X162342142Y-112150476D01*
X162402619Y-112271428D01*
X162402619Y-112392380D01*
X162342142Y-112573809D01*
X161616428Y-113299523D01*
X162402619Y-113299523D01*
X159983571Y-113178571D02*
X159923095Y-113239047D01*
X159741666Y-113299523D01*
X159620714Y-113299523D01*
X159439285Y-113239047D01*
X159318333Y-113118095D01*
X159257857Y-112997142D01*
X159197380Y-112755238D01*
X159197380Y-112573809D01*
X159257857Y-112331904D01*
X159318333Y-112210952D01*
X159439285Y-112090000D01*
X159620714Y-112029523D01*
X159741666Y-112029523D01*
X159923095Y-112090000D01*
X159983571Y-112150476D01*
X161193095Y-113299523D02*
X160467380Y-113299523D01*
X160830238Y-113299523D02*
X160830238Y-112029523D01*
X160709285Y-112210952D01*
X160588333Y-112331904D01*
X160467380Y-112392380D01*
X161676904Y-112150476D02*
X161737380Y-112090000D01*
X161858333Y-112029523D01*
X162160714Y-112029523D01*
X162281666Y-112090000D01*
X162342142Y-112150476D01*
X162402619Y-112271428D01*
X162402619Y-112392380D01*
X162342142Y-112573809D01*
X161616428Y-113299523D01*
X162402619Y-113299523D01*
D10*
%TO.C,J2*%
X142401904Y-128837142D02*
X142354285Y-128884761D01*
X142211428Y-128932380D01*
X142116190Y-128932380D01*
X141973333Y-128884761D01*
X141878095Y-128789523D01*
X141830476Y-128694285D01*
X141782857Y-128503809D01*
X141782857Y-128360952D01*
X141830476Y-128170476D01*
X141878095Y-128075238D01*
X141973333Y-127980000D01*
X142116190Y-127932380D01*
X142211428Y-127932380D01*
X142354285Y-127980000D01*
X142401904Y-128027619D01*
X142973333Y-128932380D02*
X142878095Y-128884761D01*
X142830476Y-128837142D01*
X142782857Y-128741904D01*
X142782857Y-128456190D01*
X142830476Y-128360952D01*
X142878095Y-128313333D01*
X142973333Y-128265714D01*
X143116190Y-128265714D01*
X143211428Y-128313333D01*
X143259047Y-128360952D01*
X143306666Y-128456190D01*
X143306666Y-128741904D01*
X143259047Y-128837142D01*
X143211428Y-128884761D01*
X143116190Y-128932380D01*
X142973333Y-128932380D01*
X143735238Y-128265714D02*
X143735238Y-128932380D01*
X143735238Y-128360952D02*
X143782857Y-128313333D01*
X143878095Y-128265714D01*
X144020952Y-128265714D01*
X144116190Y-128313333D01*
X144163809Y-128408571D01*
X144163809Y-128932380D01*
X144640000Y-128265714D02*
X144640000Y-128932380D01*
X144640000Y-128360952D02*
X144687619Y-128313333D01*
X144782857Y-128265714D01*
X144925714Y-128265714D01*
X145020952Y-128313333D01*
X145068571Y-128408571D01*
X145068571Y-128932380D01*
X145306666Y-129027619D02*
X146068571Y-129027619D01*
X146497142Y-127932380D02*
X146592380Y-127932380D01*
X146687619Y-127980000D01*
X146735238Y-128027619D01*
X146782857Y-128122857D01*
X146830476Y-128313333D01*
X146830476Y-128551428D01*
X146782857Y-128741904D01*
X146735238Y-128837142D01*
X146687619Y-128884761D01*
X146592380Y-128932380D01*
X146497142Y-128932380D01*
X146401904Y-128884761D01*
X146354285Y-128837142D01*
X146306666Y-128741904D01*
X146259047Y-128551428D01*
X146259047Y-128313333D01*
X146306666Y-128122857D01*
X146354285Y-128027619D01*
X146401904Y-127980000D01*
X146497142Y-127932380D01*
X147782857Y-128932380D02*
X147211428Y-128932380D01*
X147497142Y-128932380D02*
X147497142Y-127932380D01*
X147401904Y-128075238D01*
X147306666Y-128170476D01*
X147211428Y-128218095D01*
X148116190Y-128932380D02*
X148640000Y-128265714D01*
X148116190Y-128265714D02*
X148640000Y-128932380D01*
X149544761Y-128932380D02*
X148973333Y-128932380D01*
X149259047Y-128932380D02*
X149259047Y-127932380D01*
X149163809Y-128075238D01*
X149068571Y-128170476D01*
X148973333Y-128218095D01*
X150401904Y-127932380D02*
X150211428Y-127932380D01*
X150116190Y-127980000D01*
X150068571Y-128027619D01*
X149973333Y-128170476D01*
X149925714Y-128360952D01*
X149925714Y-128741904D01*
X149973333Y-128837142D01*
X150020952Y-128884761D01*
X150116190Y-128932380D01*
X150306666Y-128932380D01*
X150401904Y-128884761D01*
X150449523Y-128837142D01*
X150497142Y-128741904D01*
X150497142Y-128503809D01*
X150449523Y-128408571D01*
X150401904Y-128360952D01*
X150306666Y-128313333D01*
X150116190Y-128313333D01*
X150020952Y-128360952D01*
X149973333Y-128408571D01*
X149925714Y-128503809D01*
D11*
%TO.C,LED1*%
X143574523Y-123971190D02*
X143574523Y-124575952D01*
X142304523Y-124575952D01*
X142909285Y-123547857D02*
X142909285Y-123124523D01*
X143574523Y-122943095D02*
X143574523Y-123547857D01*
X142304523Y-123547857D01*
X142304523Y-122943095D01*
X143574523Y-122398809D02*
X142304523Y-122398809D01*
X142304523Y-122096428D01*
X142365000Y-121915000D01*
X142485952Y-121794047D01*
X142606904Y-121733571D01*
X142848809Y-121673095D01*
X143030238Y-121673095D01*
X143272142Y-121733571D01*
X143393095Y-121794047D01*
X143514047Y-121915000D01*
X143574523Y-122096428D01*
X143574523Y-122398809D01*
X143574523Y-120463571D02*
X143574523Y-121189285D01*
X143574523Y-120826428D02*
X142304523Y-120826428D01*
X142485952Y-120947380D01*
X142606904Y-121068333D01*
X142667380Y-121189285D01*
X143574523Y-123971190D02*
X143574523Y-124575952D01*
X142304523Y-124575952D01*
X142909285Y-123547857D02*
X142909285Y-123124523D01*
X143574523Y-122943095D02*
X143574523Y-123547857D01*
X142304523Y-123547857D01*
X142304523Y-122943095D01*
X143574523Y-122398809D02*
X142304523Y-122398809D01*
X142304523Y-122096428D01*
X142365000Y-121915000D01*
X142485952Y-121794047D01*
X142606904Y-121733571D01*
X142848809Y-121673095D01*
X143030238Y-121673095D01*
X143272142Y-121733571D01*
X143393095Y-121794047D01*
X143514047Y-121915000D01*
X143574523Y-122096428D01*
X143574523Y-122398809D01*
X143574523Y-120463571D02*
X143574523Y-121189285D01*
X143574523Y-120826428D02*
X142304523Y-120826428D01*
X142485952Y-120947380D01*
X142606904Y-121068333D01*
X142667380Y-121189285D01*
%TO.C,R3*%
X149688333Y-121574523D02*
X149265000Y-120969761D01*
X148962619Y-121574523D02*
X148962619Y-120304523D01*
X149446428Y-120304523D01*
X149567380Y-120365000D01*
X149627857Y-120425476D01*
X149688333Y-120546428D01*
X149688333Y-120727857D01*
X149627857Y-120848809D01*
X149567380Y-120909285D01*
X149446428Y-120969761D01*
X148962619Y-120969761D01*
X150111666Y-120304523D02*
X150897857Y-120304523D01*
X150474523Y-120788333D01*
X150655952Y-120788333D01*
X150776904Y-120848809D01*
X150837380Y-120909285D01*
X150897857Y-121030238D01*
X150897857Y-121332619D01*
X150837380Y-121453571D01*
X150776904Y-121514047D01*
X150655952Y-121574523D01*
X150293095Y-121574523D01*
X150172142Y-121514047D01*
X150111666Y-121453571D01*
X149688333Y-121574523D02*
X149265000Y-120969761D01*
X148962619Y-121574523D02*
X148962619Y-120304523D01*
X149446428Y-120304523D01*
X149567380Y-120365000D01*
X149627857Y-120425476D01*
X149688333Y-120546428D01*
X149688333Y-120727857D01*
X149627857Y-120848809D01*
X149567380Y-120909285D01*
X149446428Y-120969761D01*
X148962619Y-120969761D01*
X150111666Y-120304523D02*
X150897857Y-120304523D01*
X150474523Y-120788333D01*
X150655952Y-120788333D01*
X150776904Y-120848809D01*
X150837380Y-120909285D01*
X150897857Y-121030238D01*
X150897857Y-121332619D01*
X150837380Y-121453571D01*
X150776904Y-121514047D01*
X150655952Y-121574523D01*
X150293095Y-121574523D01*
X150172142Y-121514047D01*
X150111666Y-121453571D01*
%TO.C,C8*%
X156588333Y-103253571D02*
X156527857Y-103314047D01*
X156346428Y-103374523D01*
X156225476Y-103374523D01*
X156044047Y-103314047D01*
X155923095Y-103193095D01*
X155862619Y-103072142D01*
X155802142Y-102830238D01*
X155802142Y-102648809D01*
X155862619Y-102406904D01*
X155923095Y-102285952D01*
X156044047Y-102165000D01*
X156225476Y-102104523D01*
X156346428Y-102104523D01*
X156527857Y-102165000D01*
X156588333Y-102225476D01*
X157314047Y-102648809D02*
X157193095Y-102588333D01*
X157132619Y-102527857D01*
X157072142Y-102406904D01*
X157072142Y-102346428D01*
X157132619Y-102225476D01*
X157193095Y-102165000D01*
X157314047Y-102104523D01*
X157555952Y-102104523D01*
X157676904Y-102165000D01*
X157737380Y-102225476D01*
X157797857Y-102346428D01*
X157797857Y-102406904D01*
X157737380Y-102527857D01*
X157676904Y-102588333D01*
X157555952Y-102648809D01*
X157314047Y-102648809D01*
X157193095Y-102709285D01*
X157132619Y-102769761D01*
X157072142Y-102890714D01*
X157072142Y-103132619D01*
X157132619Y-103253571D01*
X157193095Y-103314047D01*
X157314047Y-103374523D01*
X157555952Y-103374523D01*
X157676904Y-103314047D01*
X157737380Y-103253571D01*
X157797857Y-103132619D01*
X157797857Y-102890714D01*
X157737380Y-102769761D01*
X157676904Y-102709285D01*
X157555952Y-102648809D01*
X156588333Y-103253571D02*
X156527857Y-103314047D01*
X156346428Y-103374523D01*
X156225476Y-103374523D01*
X156044047Y-103314047D01*
X155923095Y-103193095D01*
X155862619Y-103072142D01*
X155802142Y-102830238D01*
X155802142Y-102648809D01*
X155862619Y-102406904D01*
X155923095Y-102285952D01*
X156044047Y-102165000D01*
X156225476Y-102104523D01*
X156346428Y-102104523D01*
X156527857Y-102165000D01*
X156588333Y-102225476D01*
X157314047Y-102648809D02*
X157193095Y-102588333D01*
X157132619Y-102527857D01*
X157072142Y-102406904D01*
X157072142Y-102346428D01*
X157132619Y-102225476D01*
X157193095Y-102165000D01*
X157314047Y-102104523D01*
X157555952Y-102104523D01*
X157676904Y-102165000D01*
X157737380Y-102225476D01*
X157797857Y-102346428D01*
X157797857Y-102406904D01*
X157737380Y-102527857D01*
X157676904Y-102588333D01*
X157555952Y-102648809D01*
X157314047Y-102648809D01*
X157193095Y-102709285D01*
X157132619Y-102769761D01*
X157072142Y-102890714D01*
X157072142Y-103132619D01*
X157132619Y-103253571D01*
X157193095Y-103314047D01*
X157314047Y-103374523D01*
X157555952Y-103374523D01*
X157676904Y-103314047D01*
X157737380Y-103253571D01*
X157797857Y-103132619D01*
X157797857Y-102890714D01*
X157737380Y-102769761D01*
X157676904Y-102709285D01*
X157555952Y-102648809D01*
%TO.C,C5*%
X153588333Y-103253571D02*
X153527857Y-103314047D01*
X153346428Y-103374523D01*
X153225476Y-103374523D01*
X153044047Y-103314047D01*
X152923095Y-103193095D01*
X152862619Y-103072142D01*
X152802142Y-102830238D01*
X152802142Y-102648809D01*
X152862619Y-102406904D01*
X152923095Y-102285952D01*
X153044047Y-102165000D01*
X153225476Y-102104523D01*
X153346428Y-102104523D01*
X153527857Y-102165000D01*
X153588333Y-102225476D01*
X154737380Y-102104523D02*
X154132619Y-102104523D01*
X154072142Y-102709285D01*
X154132619Y-102648809D01*
X154253571Y-102588333D01*
X154555952Y-102588333D01*
X154676904Y-102648809D01*
X154737380Y-102709285D01*
X154797857Y-102830238D01*
X154797857Y-103132619D01*
X154737380Y-103253571D01*
X154676904Y-103314047D01*
X154555952Y-103374523D01*
X154253571Y-103374523D01*
X154132619Y-103314047D01*
X154072142Y-103253571D01*
X153588333Y-103253571D02*
X153527857Y-103314047D01*
X153346428Y-103374523D01*
X153225476Y-103374523D01*
X153044047Y-103314047D01*
X152923095Y-103193095D01*
X152862619Y-103072142D01*
X152802142Y-102830238D01*
X152802142Y-102648809D01*
X152862619Y-102406904D01*
X152923095Y-102285952D01*
X153044047Y-102165000D01*
X153225476Y-102104523D01*
X153346428Y-102104523D01*
X153527857Y-102165000D01*
X153588333Y-102225476D01*
X154737380Y-102104523D02*
X154132619Y-102104523D01*
X154072142Y-102709285D01*
X154132619Y-102648809D01*
X154253571Y-102588333D01*
X154555952Y-102588333D01*
X154676904Y-102648809D01*
X154737380Y-102709285D01*
X154797857Y-102830238D01*
X154797857Y-103132619D01*
X154737380Y-103253571D01*
X154676904Y-103314047D01*
X154555952Y-103374523D01*
X154253571Y-103374523D01*
X154132619Y-103314047D01*
X154072142Y-103253571D01*
%TO.C,IC2*%
X161960238Y-98074523D02*
X161960238Y-96804523D01*
X163290714Y-97953571D02*
X163230238Y-98014047D01*
X163048809Y-98074523D01*
X162927857Y-98074523D01*
X162746428Y-98014047D01*
X162625476Y-97893095D01*
X162565000Y-97772142D01*
X162504523Y-97530238D01*
X162504523Y-97348809D01*
X162565000Y-97106904D01*
X162625476Y-96985952D01*
X162746428Y-96865000D01*
X162927857Y-96804523D01*
X163048809Y-96804523D01*
X163230238Y-96865000D01*
X163290714Y-96925476D01*
X163774523Y-96925476D02*
X163835000Y-96865000D01*
X163955952Y-96804523D01*
X164258333Y-96804523D01*
X164379285Y-96865000D01*
X164439761Y-96925476D01*
X164500238Y-97046428D01*
X164500238Y-97167380D01*
X164439761Y-97348809D01*
X163714047Y-98074523D01*
X164500238Y-98074523D01*
X161960238Y-98074523D02*
X161960238Y-96804523D01*
X163290714Y-97953571D02*
X163230238Y-98014047D01*
X163048809Y-98074523D01*
X162927857Y-98074523D01*
X162746428Y-98014047D01*
X162625476Y-97893095D01*
X162565000Y-97772142D01*
X162504523Y-97530238D01*
X162504523Y-97348809D01*
X162565000Y-97106904D01*
X162625476Y-96985952D01*
X162746428Y-96865000D01*
X162927857Y-96804523D01*
X163048809Y-96804523D01*
X163230238Y-96865000D01*
X163290714Y-96925476D01*
X163774523Y-96925476D02*
X163835000Y-96865000D01*
X163955952Y-96804523D01*
X164258333Y-96804523D01*
X164379285Y-96865000D01*
X164439761Y-96925476D01*
X164500238Y-97046428D01*
X164500238Y-97167380D01*
X164439761Y-97348809D01*
X163714047Y-98074523D01*
X164500238Y-98074523D01*
%TO.C,Y1*%
X154894761Y-109204761D02*
X155499523Y-109204761D01*
X154229523Y-109628095D02*
X154894761Y-109204761D01*
X154229523Y-108781428D01*
X155499523Y-107692857D02*
X155499523Y-108418571D01*
X155499523Y-108055714D02*
X154229523Y-108055714D01*
X154410952Y-108176666D01*
X154531904Y-108297619D01*
X154592380Y-108418571D01*
X154894761Y-109204761D02*
X155499523Y-109204761D01*
X154229523Y-109628095D02*
X154894761Y-109204761D01*
X154229523Y-108781428D01*
X155499523Y-107692857D02*
X155499523Y-108418571D01*
X155499523Y-108055714D02*
X154229523Y-108055714D01*
X154410952Y-108176666D01*
X154531904Y-108297619D01*
X154592380Y-108418571D01*
%TO.C,C7*%
X156588333Y-101453571D02*
X156527857Y-101514047D01*
X156346428Y-101574523D01*
X156225476Y-101574523D01*
X156044047Y-101514047D01*
X155923095Y-101393095D01*
X155862619Y-101272142D01*
X155802142Y-101030238D01*
X155802142Y-100848809D01*
X155862619Y-100606904D01*
X155923095Y-100485952D01*
X156044047Y-100365000D01*
X156225476Y-100304523D01*
X156346428Y-100304523D01*
X156527857Y-100365000D01*
X156588333Y-100425476D01*
X157011666Y-100304523D02*
X157858333Y-100304523D01*
X157314047Y-101574523D01*
X156588333Y-101453571D02*
X156527857Y-101514047D01*
X156346428Y-101574523D01*
X156225476Y-101574523D01*
X156044047Y-101514047D01*
X155923095Y-101393095D01*
X155862619Y-101272142D01*
X155802142Y-101030238D01*
X155802142Y-100848809D01*
X155862619Y-100606904D01*
X155923095Y-100485952D01*
X156044047Y-100365000D01*
X156225476Y-100304523D01*
X156346428Y-100304523D01*
X156527857Y-100365000D01*
X156588333Y-100425476D01*
X157011666Y-100304523D02*
X157858333Y-100304523D01*
X157314047Y-101574523D01*
%TO.C,C1*%
X139088333Y-119883571D02*
X139027857Y-119944047D01*
X138846428Y-120004523D01*
X138725476Y-120004523D01*
X138544047Y-119944047D01*
X138423095Y-119823095D01*
X138362619Y-119702142D01*
X138302142Y-119460238D01*
X138302142Y-119278809D01*
X138362619Y-119036904D01*
X138423095Y-118915952D01*
X138544047Y-118795000D01*
X138725476Y-118734523D01*
X138846428Y-118734523D01*
X139027857Y-118795000D01*
X139088333Y-118855476D01*
X140297857Y-120004523D02*
X139572142Y-120004523D01*
X139935000Y-120004523D02*
X139935000Y-118734523D01*
X139814047Y-118915952D01*
X139693095Y-119036904D01*
X139572142Y-119097380D01*
X139088333Y-119883571D02*
X139027857Y-119944047D01*
X138846428Y-120004523D01*
X138725476Y-120004523D01*
X138544047Y-119944047D01*
X138423095Y-119823095D01*
X138362619Y-119702142D01*
X138302142Y-119460238D01*
X138302142Y-119278809D01*
X138362619Y-119036904D01*
X138423095Y-118915952D01*
X138544047Y-118795000D01*
X138725476Y-118734523D01*
X138846428Y-118734523D01*
X139027857Y-118795000D01*
X139088333Y-118855476D01*
X140297857Y-120004523D02*
X139572142Y-120004523D01*
X139935000Y-120004523D02*
X139935000Y-118734523D01*
X139814047Y-118915952D01*
X139693095Y-119036904D01*
X139572142Y-119097380D01*
%TO.C,C6*%
X153588333Y-101453571D02*
X153527857Y-101514047D01*
X153346428Y-101574523D01*
X153225476Y-101574523D01*
X153044047Y-101514047D01*
X152923095Y-101393095D01*
X152862619Y-101272142D01*
X152802142Y-101030238D01*
X152802142Y-100848809D01*
X152862619Y-100606904D01*
X152923095Y-100485952D01*
X153044047Y-100365000D01*
X153225476Y-100304523D01*
X153346428Y-100304523D01*
X153527857Y-100365000D01*
X153588333Y-100425476D01*
X154676904Y-100304523D02*
X154435000Y-100304523D01*
X154314047Y-100365000D01*
X154253571Y-100425476D01*
X154132619Y-100606904D01*
X154072142Y-100848809D01*
X154072142Y-101332619D01*
X154132619Y-101453571D01*
X154193095Y-101514047D01*
X154314047Y-101574523D01*
X154555952Y-101574523D01*
X154676904Y-101514047D01*
X154737380Y-101453571D01*
X154797857Y-101332619D01*
X154797857Y-101030238D01*
X154737380Y-100909285D01*
X154676904Y-100848809D01*
X154555952Y-100788333D01*
X154314047Y-100788333D01*
X154193095Y-100848809D01*
X154132619Y-100909285D01*
X154072142Y-101030238D01*
X153588333Y-101453571D02*
X153527857Y-101514047D01*
X153346428Y-101574523D01*
X153225476Y-101574523D01*
X153044047Y-101514047D01*
X152923095Y-101393095D01*
X152862619Y-101272142D01*
X152802142Y-101030238D01*
X152802142Y-100848809D01*
X152862619Y-100606904D01*
X152923095Y-100485952D01*
X153044047Y-100365000D01*
X153225476Y-100304523D01*
X153346428Y-100304523D01*
X153527857Y-100365000D01*
X153588333Y-100425476D01*
X154676904Y-100304523D02*
X154435000Y-100304523D01*
X154314047Y-100365000D01*
X154253571Y-100425476D01*
X154132619Y-100606904D01*
X154072142Y-100848809D01*
X154072142Y-101332619D01*
X154132619Y-101453571D01*
X154193095Y-101514047D01*
X154314047Y-101574523D01*
X154555952Y-101574523D01*
X154676904Y-101514047D01*
X154737380Y-101453571D01*
X154797857Y-101332619D01*
X154797857Y-101030238D01*
X154737380Y-100909285D01*
X154676904Y-100848809D01*
X154555952Y-100788333D01*
X154314047Y-100788333D01*
X154193095Y-100848809D01*
X154132619Y-100909285D01*
X154072142Y-101030238D01*
D10*
%TO.C,J3*%
X167931904Y-90617142D02*
X167884285Y-90664761D01*
X167741428Y-90712380D01*
X167646190Y-90712380D01*
X167503333Y-90664761D01*
X167408095Y-90569523D01*
X167360476Y-90474285D01*
X167312857Y-90283809D01*
X167312857Y-90140952D01*
X167360476Y-89950476D01*
X167408095Y-89855238D01*
X167503333Y-89760000D01*
X167646190Y-89712380D01*
X167741428Y-89712380D01*
X167884285Y-89760000D01*
X167931904Y-89807619D01*
X168503333Y-90712380D02*
X168408095Y-90664761D01*
X168360476Y-90617142D01*
X168312857Y-90521904D01*
X168312857Y-90236190D01*
X168360476Y-90140952D01*
X168408095Y-90093333D01*
X168503333Y-90045714D01*
X168646190Y-90045714D01*
X168741428Y-90093333D01*
X168789047Y-90140952D01*
X168836666Y-90236190D01*
X168836666Y-90521904D01*
X168789047Y-90617142D01*
X168741428Y-90664761D01*
X168646190Y-90712380D01*
X168503333Y-90712380D01*
X169265238Y-90045714D02*
X169265238Y-90712380D01*
X169265238Y-90140952D02*
X169312857Y-90093333D01*
X169408095Y-90045714D01*
X169550952Y-90045714D01*
X169646190Y-90093333D01*
X169693809Y-90188571D01*
X169693809Y-90712380D01*
X170170000Y-90045714D02*
X170170000Y-90712380D01*
X170170000Y-90140952D02*
X170217619Y-90093333D01*
X170312857Y-90045714D01*
X170455714Y-90045714D01*
X170550952Y-90093333D01*
X170598571Y-90188571D01*
X170598571Y-90712380D01*
X170836666Y-90807619D02*
X171598571Y-90807619D01*
X172027142Y-89712380D02*
X172122380Y-89712380D01*
X172217619Y-89760000D01*
X172265238Y-89807619D01*
X172312857Y-89902857D01*
X172360476Y-90093333D01*
X172360476Y-90331428D01*
X172312857Y-90521904D01*
X172265238Y-90617142D01*
X172217619Y-90664761D01*
X172122380Y-90712380D01*
X172027142Y-90712380D01*
X171931904Y-90664761D01*
X171884285Y-90617142D01*
X171836666Y-90521904D01*
X171789047Y-90331428D01*
X171789047Y-90093333D01*
X171836666Y-89902857D01*
X171884285Y-89807619D01*
X171931904Y-89760000D01*
X172027142Y-89712380D01*
X173312857Y-90712380D02*
X172741428Y-90712380D01*
X173027142Y-90712380D02*
X173027142Y-89712380D01*
X172931904Y-89855238D01*
X172836666Y-89950476D01*
X172741428Y-89998095D01*
X173646190Y-90712380D02*
X174170000Y-90045714D01*
X173646190Y-90045714D02*
X174170000Y-90712380D01*
X174741428Y-89712380D02*
X174836666Y-89712380D01*
X174931904Y-89760000D01*
X174979523Y-89807619D01*
X175027142Y-89902857D01*
X175074761Y-90093333D01*
X175074761Y-90331428D01*
X175027142Y-90521904D01*
X174979523Y-90617142D01*
X174931904Y-90664761D01*
X174836666Y-90712380D01*
X174741428Y-90712380D01*
X174646190Y-90664761D01*
X174598571Y-90617142D01*
X174550952Y-90521904D01*
X174503333Y-90331428D01*
X174503333Y-90093333D01*
X174550952Y-89902857D01*
X174598571Y-89807619D01*
X174646190Y-89760000D01*
X174741428Y-89712380D01*
X175931904Y-90045714D02*
X175931904Y-90712380D01*
X175693809Y-89664761D02*
X175455714Y-90379047D01*
X176074761Y-90379047D01*
D11*
%TO.C,R1*%
X143574523Y-118411666D02*
X142969761Y-118835000D01*
X143574523Y-119137380D02*
X142304523Y-119137380D01*
X142304523Y-118653571D01*
X142365000Y-118532619D01*
X142425476Y-118472142D01*
X142546428Y-118411666D01*
X142727857Y-118411666D01*
X142848809Y-118472142D01*
X142909285Y-118532619D01*
X142969761Y-118653571D01*
X142969761Y-119137380D01*
X143574523Y-117202142D02*
X143574523Y-117927857D01*
X143574523Y-117565000D02*
X142304523Y-117565000D01*
X142485952Y-117685952D01*
X142606904Y-117806904D01*
X142667380Y-117927857D01*
X143574523Y-118411666D02*
X142969761Y-118835000D01*
X143574523Y-119137380D02*
X142304523Y-119137380D01*
X142304523Y-118653571D01*
X142365000Y-118532619D01*
X142425476Y-118472142D01*
X142546428Y-118411666D01*
X142727857Y-118411666D01*
X142848809Y-118472142D01*
X142909285Y-118532619D01*
X142969761Y-118653571D01*
X142969761Y-119137380D01*
X143574523Y-117202142D02*
X143574523Y-117927857D01*
X143574523Y-117565000D02*
X142304523Y-117565000D01*
X142485952Y-117685952D01*
X142606904Y-117806904D01*
X142667380Y-117927857D01*
%TO.C,R4*%
X149688333Y-124574523D02*
X149265000Y-123969761D01*
X148962619Y-124574523D02*
X148962619Y-123304523D01*
X149446428Y-123304523D01*
X149567380Y-123365000D01*
X149627857Y-123425476D01*
X149688333Y-123546428D01*
X149688333Y-123727857D01*
X149627857Y-123848809D01*
X149567380Y-123909285D01*
X149446428Y-123969761D01*
X148962619Y-123969761D01*
X150776904Y-123727857D02*
X150776904Y-124574523D01*
X150474523Y-123244047D02*
X150172142Y-124151190D01*
X150958333Y-124151190D01*
X149688333Y-124574523D02*
X149265000Y-123969761D01*
X148962619Y-124574523D02*
X148962619Y-123304523D01*
X149446428Y-123304523D01*
X149567380Y-123365000D01*
X149627857Y-123425476D01*
X149688333Y-123546428D01*
X149688333Y-123727857D01*
X149627857Y-123848809D01*
X149567380Y-123909285D01*
X149446428Y-123969761D01*
X148962619Y-123969761D01*
X150776904Y-123727857D02*
X150776904Y-124574523D01*
X150474523Y-123244047D02*
X150172142Y-124151190D01*
X150958333Y-124151190D01*
%TO.C,C13*%
X159983571Y-115728571D02*
X159923095Y-115789047D01*
X159741666Y-115849523D01*
X159620714Y-115849523D01*
X159439285Y-115789047D01*
X159318333Y-115668095D01*
X159257857Y-115547142D01*
X159197380Y-115305238D01*
X159197380Y-115123809D01*
X159257857Y-114881904D01*
X159318333Y-114760952D01*
X159439285Y-114640000D01*
X159620714Y-114579523D01*
X159741666Y-114579523D01*
X159923095Y-114640000D01*
X159983571Y-114700476D01*
X161193095Y-115849523D02*
X160467380Y-115849523D01*
X160830238Y-115849523D02*
X160830238Y-114579523D01*
X160709285Y-114760952D01*
X160588333Y-114881904D01*
X160467380Y-114942380D01*
X161616428Y-114579523D02*
X162402619Y-114579523D01*
X161979285Y-115063333D01*
X162160714Y-115063333D01*
X162281666Y-115123809D01*
X162342142Y-115184285D01*
X162402619Y-115305238D01*
X162402619Y-115607619D01*
X162342142Y-115728571D01*
X162281666Y-115789047D01*
X162160714Y-115849523D01*
X161797857Y-115849523D01*
X161676904Y-115789047D01*
X161616428Y-115728571D01*
X159983571Y-115728571D02*
X159923095Y-115789047D01*
X159741666Y-115849523D01*
X159620714Y-115849523D01*
X159439285Y-115789047D01*
X159318333Y-115668095D01*
X159257857Y-115547142D01*
X159197380Y-115305238D01*
X159197380Y-115123809D01*
X159257857Y-114881904D01*
X159318333Y-114760952D01*
X159439285Y-114640000D01*
X159620714Y-114579523D01*
X159741666Y-114579523D01*
X159923095Y-114640000D01*
X159983571Y-114700476D01*
X161193095Y-115849523D02*
X160467380Y-115849523D01*
X160830238Y-115849523D02*
X160830238Y-114579523D01*
X160709285Y-114760952D01*
X160588333Y-114881904D01*
X160467380Y-114942380D01*
X161616428Y-114579523D02*
X162402619Y-114579523D01*
X161979285Y-115063333D01*
X162160714Y-115063333D01*
X162281666Y-115123809D01*
X162342142Y-115184285D01*
X162402619Y-115305238D01*
X162402619Y-115607619D01*
X162342142Y-115728571D01*
X162281666Y-115789047D01*
X162160714Y-115849523D01*
X161797857Y-115849523D01*
X161676904Y-115789047D01*
X161616428Y-115728571D01*
%TO.C,C4*%
X149728333Y-116493571D02*
X149667857Y-116554047D01*
X149486428Y-116614523D01*
X149365476Y-116614523D01*
X149184047Y-116554047D01*
X149063095Y-116433095D01*
X149002619Y-116312142D01*
X148942142Y-116070238D01*
X148942142Y-115888809D01*
X149002619Y-115646904D01*
X149063095Y-115525952D01*
X149184047Y-115405000D01*
X149365476Y-115344523D01*
X149486428Y-115344523D01*
X149667857Y-115405000D01*
X149728333Y-115465476D01*
X150816904Y-115767857D02*
X150816904Y-116614523D01*
X150514523Y-115284047D02*
X150212142Y-116191190D01*
X150998333Y-116191190D01*
X149728333Y-116493571D02*
X149667857Y-116554047D01*
X149486428Y-116614523D01*
X149365476Y-116614523D01*
X149184047Y-116554047D01*
X149063095Y-116433095D01*
X149002619Y-116312142D01*
X148942142Y-116070238D01*
X148942142Y-115888809D01*
X149002619Y-115646904D01*
X149063095Y-115525952D01*
X149184047Y-115405000D01*
X149365476Y-115344523D01*
X149486428Y-115344523D01*
X149667857Y-115405000D01*
X149728333Y-115465476D01*
X150816904Y-115767857D02*
X150816904Y-116614523D01*
X150514523Y-115284047D02*
X150212142Y-116191190D01*
X150998333Y-116191190D01*
%TO.C,C9*%
X153538333Y-105653571D02*
X153477857Y-105714047D01*
X153296428Y-105774523D01*
X153175476Y-105774523D01*
X152994047Y-105714047D01*
X152873095Y-105593095D01*
X152812619Y-105472142D01*
X152752142Y-105230238D01*
X152752142Y-105048809D01*
X152812619Y-104806904D01*
X152873095Y-104685952D01*
X152994047Y-104565000D01*
X153175476Y-104504523D01*
X153296428Y-104504523D01*
X153477857Y-104565000D01*
X153538333Y-104625476D01*
X154143095Y-105774523D02*
X154385000Y-105774523D01*
X154505952Y-105714047D01*
X154566428Y-105653571D01*
X154687380Y-105472142D01*
X154747857Y-105230238D01*
X154747857Y-104746428D01*
X154687380Y-104625476D01*
X154626904Y-104565000D01*
X154505952Y-104504523D01*
X154264047Y-104504523D01*
X154143095Y-104565000D01*
X154082619Y-104625476D01*
X154022142Y-104746428D01*
X154022142Y-105048809D01*
X154082619Y-105169761D01*
X154143095Y-105230238D01*
X154264047Y-105290714D01*
X154505952Y-105290714D01*
X154626904Y-105230238D01*
X154687380Y-105169761D01*
X154747857Y-105048809D01*
X153538333Y-105653571D02*
X153477857Y-105714047D01*
X153296428Y-105774523D01*
X153175476Y-105774523D01*
X152994047Y-105714047D01*
X152873095Y-105593095D01*
X152812619Y-105472142D01*
X152752142Y-105230238D01*
X152752142Y-105048809D01*
X152812619Y-104806904D01*
X152873095Y-104685952D01*
X152994047Y-104565000D01*
X153175476Y-104504523D01*
X153296428Y-104504523D01*
X153477857Y-104565000D01*
X153538333Y-104625476D01*
X154143095Y-105774523D02*
X154385000Y-105774523D01*
X154505952Y-105714047D01*
X154566428Y-105653571D01*
X154687380Y-105472142D01*
X154747857Y-105230238D01*
X154747857Y-104746428D01*
X154687380Y-104625476D01*
X154626904Y-104565000D01*
X154505952Y-104504523D01*
X154264047Y-104504523D01*
X154143095Y-104565000D01*
X154082619Y-104625476D01*
X154022142Y-104746428D01*
X154022142Y-105048809D01*
X154082619Y-105169761D01*
X154143095Y-105230238D01*
X154264047Y-105290714D01*
X154505952Y-105290714D01*
X154626904Y-105230238D01*
X154687380Y-105169761D01*
X154747857Y-105048809D01*
%TO.C,LED2*%
X146574523Y-123971190D02*
X146574523Y-124575952D01*
X145304523Y-124575952D01*
X145909285Y-123547857D02*
X145909285Y-123124523D01*
X146574523Y-122943095D02*
X146574523Y-123547857D01*
X145304523Y-123547857D01*
X145304523Y-122943095D01*
X146574523Y-122398809D02*
X145304523Y-122398809D01*
X145304523Y-122096428D01*
X145365000Y-121915000D01*
X145485952Y-121794047D01*
X145606904Y-121733571D01*
X145848809Y-121673095D01*
X146030238Y-121673095D01*
X146272142Y-121733571D01*
X146393095Y-121794047D01*
X146514047Y-121915000D01*
X146574523Y-122096428D01*
X146574523Y-122398809D01*
X145425476Y-121189285D02*
X145365000Y-121128809D01*
X145304523Y-121007857D01*
X145304523Y-120705476D01*
X145365000Y-120584523D01*
X145425476Y-120524047D01*
X145546428Y-120463571D01*
X145667380Y-120463571D01*
X145848809Y-120524047D01*
X146574523Y-121249761D01*
X146574523Y-120463571D01*
X146574523Y-123971190D02*
X146574523Y-124575952D01*
X145304523Y-124575952D01*
X145909285Y-123547857D02*
X145909285Y-123124523D01*
X146574523Y-122943095D02*
X146574523Y-123547857D01*
X145304523Y-123547857D01*
X145304523Y-122943095D01*
X146574523Y-122398809D02*
X145304523Y-122398809D01*
X145304523Y-122096428D01*
X145365000Y-121915000D01*
X145485952Y-121794047D01*
X145606904Y-121733571D01*
X145848809Y-121673095D01*
X146030238Y-121673095D01*
X146272142Y-121733571D01*
X146393095Y-121794047D01*
X146514047Y-121915000D01*
X146574523Y-122096428D01*
X146574523Y-122398809D01*
X145425476Y-121189285D02*
X145365000Y-121128809D01*
X145304523Y-121007857D01*
X145304523Y-120705476D01*
X145365000Y-120584523D01*
X145425476Y-120524047D01*
X145546428Y-120463571D01*
X145667380Y-120463571D01*
X145848809Y-120524047D01*
X146574523Y-121249761D01*
X146574523Y-120463571D01*
%TO.C,C14*%
X162383571Y-93853571D02*
X162323095Y-93914047D01*
X162141666Y-93974523D01*
X162020714Y-93974523D01*
X161839285Y-93914047D01*
X161718333Y-93793095D01*
X161657857Y-93672142D01*
X161597380Y-93430238D01*
X161597380Y-93248809D01*
X161657857Y-93006904D01*
X161718333Y-92885952D01*
X161839285Y-92765000D01*
X162020714Y-92704523D01*
X162141666Y-92704523D01*
X162323095Y-92765000D01*
X162383571Y-92825476D01*
X163593095Y-93974523D02*
X162867380Y-93974523D01*
X163230238Y-93974523D02*
X163230238Y-92704523D01*
X163109285Y-92885952D01*
X162988333Y-93006904D01*
X162867380Y-93067380D01*
X164681666Y-93127857D02*
X164681666Y-93974523D01*
X164379285Y-92644047D02*
X164076904Y-93551190D01*
X164863095Y-93551190D01*
X162383571Y-93853571D02*
X162323095Y-93914047D01*
X162141666Y-93974523D01*
X162020714Y-93974523D01*
X161839285Y-93914047D01*
X161718333Y-93793095D01*
X161657857Y-93672142D01*
X161597380Y-93430238D01*
X161597380Y-93248809D01*
X161657857Y-93006904D01*
X161718333Y-92885952D01*
X161839285Y-92765000D01*
X162020714Y-92704523D01*
X162141666Y-92704523D01*
X162323095Y-92765000D01*
X162383571Y-92825476D01*
X163593095Y-93974523D02*
X162867380Y-93974523D01*
X163230238Y-93974523D02*
X163230238Y-92704523D01*
X163109285Y-92885952D01*
X162988333Y-93006904D01*
X162867380Y-93067380D01*
X164681666Y-93127857D02*
X164681666Y-93974523D01*
X164379285Y-92644047D02*
X164076904Y-93551190D01*
X164863095Y-93551190D01*
%TO.C,C15*%
X162383571Y-121653571D02*
X162323095Y-121714047D01*
X162141666Y-121774523D01*
X162020714Y-121774523D01*
X161839285Y-121714047D01*
X161718333Y-121593095D01*
X161657857Y-121472142D01*
X161597380Y-121230238D01*
X161597380Y-121048809D01*
X161657857Y-120806904D01*
X161718333Y-120685952D01*
X161839285Y-120565000D01*
X162020714Y-120504523D01*
X162141666Y-120504523D01*
X162323095Y-120565000D01*
X162383571Y-120625476D01*
X163593095Y-121774523D02*
X162867380Y-121774523D01*
X163230238Y-121774523D02*
X163230238Y-120504523D01*
X163109285Y-120685952D01*
X162988333Y-120806904D01*
X162867380Y-120867380D01*
X164742142Y-120504523D02*
X164137380Y-120504523D01*
X164076904Y-121109285D01*
X164137380Y-121048809D01*
X164258333Y-120988333D01*
X164560714Y-120988333D01*
X164681666Y-121048809D01*
X164742142Y-121109285D01*
X164802619Y-121230238D01*
X164802619Y-121532619D01*
X164742142Y-121653571D01*
X164681666Y-121714047D01*
X164560714Y-121774523D01*
X164258333Y-121774523D01*
X164137380Y-121714047D01*
X164076904Y-121653571D01*
X162383571Y-121653571D02*
X162323095Y-121714047D01*
X162141666Y-121774523D01*
X162020714Y-121774523D01*
X161839285Y-121714047D01*
X161718333Y-121593095D01*
X161657857Y-121472142D01*
X161597380Y-121230238D01*
X161597380Y-121048809D01*
X161657857Y-120806904D01*
X161718333Y-120685952D01*
X161839285Y-120565000D01*
X162020714Y-120504523D01*
X162141666Y-120504523D01*
X162323095Y-120565000D01*
X162383571Y-120625476D01*
X163593095Y-121774523D02*
X162867380Y-121774523D01*
X163230238Y-121774523D02*
X163230238Y-120504523D01*
X163109285Y-120685952D01*
X162988333Y-120806904D01*
X162867380Y-120867380D01*
X164742142Y-120504523D02*
X164137380Y-120504523D01*
X164076904Y-121109285D01*
X164137380Y-121048809D01*
X164258333Y-120988333D01*
X164560714Y-120988333D01*
X164681666Y-121048809D01*
X164742142Y-121109285D01*
X164802619Y-121230238D01*
X164802619Y-121532619D01*
X164742142Y-121653571D01*
X164681666Y-121714047D01*
X164560714Y-121774523D01*
X164258333Y-121774523D01*
X164137380Y-121714047D01*
X164076904Y-121653571D01*
D12*
%TO.C,R5*%
X162425000Y-91175000D02*
X163975000Y-91175000D01*
X163975000Y-91175000D02*
X163975000Y-92025000D01*
X163975000Y-92025000D02*
X162425000Y-92025000D01*
X162425000Y-92025000D02*
X162425000Y-91175000D01*
%TO.C,C2*%
X141050000Y-98400000D02*
X141050000Y-100000000D01*
X141050000Y-100000000D02*
X140250000Y-100000000D01*
X140250000Y-100000000D02*
X140250000Y-98400000D01*
X140250000Y-98400000D02*
X141050000Y-98400000D01*
%TO.C,FB1*%
X138400000Y-117300000D02*
X138400000Y-116500000D01*
X140000000Y-117300000D02*
X138400000Y-117300000D01*
X140000000Y-116500000D02*
X140000000Y-117300000D01*
X138400000Y-116500000D02*
X140000000Y-116500000D01*
%TO.C,C10*%
X161600000Y-107100000D02*
X161600000Y-107900000D01*
X160000000Y-107900000D02*
X160000000Y-107100000D01*
X160000000Y-107100000D02*
X161600000Y-107100000D01*
X161600000Y-107900000D02*
X160000000Y-107900000D01*
%TO.C,IC1*%
X139400000Y-103000000D02*
X149400000Y-103000000D01*
X149400000Y-113000000D02*
X139400000Y-113000000D01*
X149400000Y-112500000D02*
X148900000Y-113000000D01*
X149400000Y-103000000D02*
X149400000Y-113000000D01*
X139400000Y-113000000D02*
X139400000Y-103000000D01*
%TO.C,C11*%
X161600000Y-110150000D02*
X160000000Y-110150000D01*
X161600000Y-109350000D02*
X161600000Y-110150000D01*
X160000000Y-109350000D02*
X161600000Y-109350000D01*
X160000000Y-110150000D02*
X160000000Y-109350000D01*
%TO.C,R2*%
X145575000Y-117425000D02*
X146425000Y-117425000D01*
X145575000Y-118975000D02*
X145575000Y-117425000D01*
X146425000Y-118975000D02*
X145575000Y-118975000D01*
X146425000Y-117425000D02*
X146425000Y-118975000D01*
%TO.C,C3*%
X146750000Y-100000000D02*
X146750000Y-98400000D01*
X147550000Y-100000000D02*
X146750000Y-100000000D01*
X146750000Y-98400000D02*
X147550000Y-98400000D01*
X147550000Y-98400000D02*
X147550000Y-100000000D01*
D13*
%TO.C,Y2*%
X153550000Y-112400000D02*
X155050000Y-112400000D01*
X153550000Y-115600000D02*
X153550000Y-112400000D01*
X155050000Y-115600000D02*
X153550000Y-115600000D01*
X155050000Y-112400000D02*
X155050000Y-115600000D01*
D12*
%TO.C,C12*%
X160000000Y-112325000D02*
X161600000Y-112325000D01*
X161600000Y-113125000D02*
X160000000Y-113125000D01*
X161600000Y-112325000D02*
X161600000Y-113125000D01*
X160000000Y-113125000D02*
X160000000Y-112325000D01*
D13*
%TO.C,LED1*%
X143400000Y-121400000D02*
X142600000Y-121400000D01*
X143400000Y-123000000D02*
X143400000Y-121400000D01*
X142600000Y-121400000D02*
X142600000Y-123000000D01*
X142600000Y-123000000D02*
X143400000Y-123000000D01*
D12*
%TO.C,R3*%
X149125000Y-121425000D02*
X149125000Y-120575000D01*
X149125000Y-120575000D02*
X150675000Y-120575000D01*
X150675000Y-121425000D02*
X149125000Y-121425000D01*
X150675000Y-120575000D02*
X150675000Y-121425000D01*
%TO.C,C8*%
X156000000Y-102400000D02*
X157600000Y-102400000D01*
X157600000Y-102400000D02*
X157600000Y-103200000D01*
X157600000Y-103200000D02*
X156000000Y-103200000D01*
X156000000Y-103200000D02*
X156000000Y-102400000D01*
%TO.C,C5*%
X154600000Y-103200000D02*
X153000000Y-103200000D01*
X153000000Y-103200000D02*
X153000000Y-102400000D01*
X153000000Y-102400000D02*
X154600000Y-102400000D01*
X154600000Y-102400000D02*
X154600000Y-103200000D01*
%TO.C,IC2*%
X160560000Y-100140000D02*
X160560000Y-94860000D01*
X160560000Y-96130000D02*
X161830000Y-94860000D01*
X165840000Y-94860000D02*
X165840000Y-100140000D01*
X160560000Y-94860000D02*
X165840000Y-94860000D01*
X165840000Y-100140000D02*
X160560000Y-100140000D01*
D13*
%TO.C,Y1*%
X153500000Y-110200000D02*
X153500000Y-107000000D01*
X156000000Y-107000000D02*
X156000000Y-110200000D01*
X156000000Y-110200000D02*
X153500000Y-110200000D01*
X153500000Y-107000000D02*
X156000000Y-107000000D01*
D12*
%TO.C,C7*%
X156000000Y-101400000D02*
X156000000Y-100600000D01*
X156000000Y-100600000D02*
X157600000Y-100600000D01*
X157600000Y-101400000D02*
X156000000Y-101400000D01*
X157600000Y-100600000D02*
X157600000Y-101400000D01*
%TO.C,C1*%
X138500000Y-119030000D02*
X140100000Y-119030000D01*
X140100000Y-119830000D02*
X138500000Y-119830000D01*
X138500000Y-119830000D02*
X138500000Y-119030000D01*
X140100000Y-119030000D02*
X140100000Y-119830000D01*
%TO.C,C6*%
X153000000Y-101400000D02*
X153000000Y-100600000D01*
X154600000Y-101400000D02*
X153000000Y-101400000D01*
X154600000Y-100600000D02*
X154600000Y-101400000D01*
X153000000Y-100600000D02*
X154600000Y-100600000D01*
%TO.C,R1*%
X142575000Y-117425000D02*
X143425000Y-117425000D01*
X143425000Y-118975000D02*
X142575000Y-118975000D01*
X142575000Y-118975000D02*
X142575000Y-117425000D01*
X143425000Y-117425000D02*
X143425000Y-118975000D01*
%TO.C,R4*%
X149125000Y-123575000D02*
X150675000Y-123575000D01*
X150675000Y-123575000D02*
X150675000Y-124425000D01*
X149125000Y-124425000D02*
X149125000Y-123575000D01*
X150675000Y-124425000D02*
X149125000Y-124425000D01*
%TO.C,C13*%
X160000000Y-114875000D02*
X161600000Y-114875000D01*
X160000000Y-115675000D02*
X160000000Y-114875000D01*
X161600000Y-114875000D02*
X161600000Y-115675000D01*
X161600000Y-115675000D02*
X160000000Y-115675000D01*
%TO.C,C4*%
X149140000Y-115640000D02*
X150740000Y-115640000D01*
X149140000Y-116440000D02*
X149140000Y-115640000D01*
X150740000Y-115640000D02*
X150740000Y-116440000D01*
X150740000Y-116440000D02*
X149140000Y-116440000D01*
%TO.C,C9*%
X152950000Y-105600000D02*
X152950000Y-104800000D01*
X154550000Y-104800000D02*
X154550000Y-105600000D01*
X154550000Y-105600000D02*
X152950000Y-105600000D01*
X152950000Y-104800000D02*
X154550000Y-104800000D01*
D13*
%TO.C,LED2*%
X145600000Y-121400000D02*
X145600000Y-123000000D01*
X146400000Y-123000000D02*
X146400000Y-121400000D01*
X146400000Y-121400000D02*
X145600000Y-121400000D01*
X145600000Y-123000000D02*
X146400000Y-123000000D01*
D12*
%TO.C,C14*%
X162400000Y-93000000D02*
X164000000Y-93000000D01*
X164000000Y-93800000D02*
X162400000Y-93800000D01*
X164000000Y-93000000D02*
X164000000Y-93800000D01*
X162400000Y-93800000D02*
X162400000Y-93000000D01*
%TO.C,C15*%
X160400000Y-124200000D02*
X160400000Y-118200000D01*
X166000000Y-124200000D02*
X160400000Y-124200000D01*
X160400000Y-119350000D02*
X161550000Y-118200000D01*
X166000000Y-118200000D02*
X166000000Y-124200000D01*
X160400000Y-118200000D02*
X166000000Y-118200000D01*
%TD*%
M02*
