%TF.GenerationSoftware,KiCad,Pcbnew,(6.0.5)*%
%TF.CreationDate,2022-06-10T10:51:09-04:00*%
%TF.ProjectId,pq-cdh,70712d63-6468-42e6-9b69-6361645f7063,V0.1.1*%
%TF.SameCoordinates,Original*%
%TF.FileFunction,Soldermask,Top*%
%TF.FilePolarity,Negative*%
%FSLAX46Y46*%
G04 Gerber Fmt 4.6, Leading zero omitted, Abs format (unit mm)*
G04 Created by KiCad (PCBNEW (6.0.5)) date 2022-06-10 10:51:09*
%MOMM*%
%LPD*%
G01*
G04 APERTURE LIST*
G04 Aperture macros list*
%AMRoundRect*
0 Rectangle with rounded corners*
0 $1 Rounding radius*
0 $2 $3 $4 $5 $6 $7 $8 $9 X,Y pos of 4 corners*
0 Add a 4 corners polygon primitive as box body*
4,1,4,$2,$3,$4,$5,$6,$7,$8,$9,$2,$3,0*
0 Add four circle primitives for the rounded corners*
1,1,$1+$1,$2,$3*
1,1,$1+$1,$4,$5*
1,1,$1+$1,$6,$7*
1,1,$1+$1,$8,$9*
0 Add four rect primitives between the rounded corners*
20,1,$1+$1,$2,$3,$4,$5,0*
20,1,$1+$1,$4,$5,$6,$7,0*
20,1,$1+$1,$6,$7,$8,$9,0*
20,1,$1+$1,$8,$9,$2,$3,0*%
G04 Aperture macros list end*
%ADD10C,1.565400*%
%ADD11RoundRect,0.012700X0.400000X0.500000X-0.400000X0.500000X-0.400000X-0.500000X0.400000X-0.500000X0*%
%ADD12RoundRect,0.012700X0.470000X-0.375000X0.470000X0.375000X-0.470000X0.375000X-0.470000X-0.375000X0*%
%ADD13RoundRect,0.012700X0.450000X0.500000X-0.450000X0.500000X-0.450000X-0.500000X0.450000X-0.500000X0*%
%ADD14C,2.565400*%
%ADD15C,0.479400*%
%ADD16RoundRect,0.012700X-0.375000X-0.470000X0.375000X-0.470000X0.375000X0.470000X-0.375000X0.470000X0*%
%ADD17RoundRect,0.012700X-0.737500X0.150000X-0.737500X-0.150000X0.737500X-0.150000X0.737500X0.150000X0*%
%ADD18RoundRect,0.012700X0.150000X0.737500X-0.150000X0.737500X-0.150000X-0.737500X0.150000X-0.737500X0*%
%ADD19RoundRect,0.012700X-0.500000X0.400000X-0.500000X-0.400000X0.500000X-0.400000X0.500000X0.400000X0*%
%ADD20RoundRect,0.012700X0.900000X-0.500000X0.900000X0.500000X-0.900000X0.500000X-0.900000X-0.500000X0*%
%ADD21RoundRect,0.012700X0.400000X0.400000X-0.400000X0.400000X-0.400000X-0.400000X0.400000X-0.400000X0*%
%ADD22RoundRect,0.012700X0.892500X-0.325000X0.892500X0.325000X-0.892500X0.325000X-0.892500X-0.325000X0*%
%ADD23RoundRect,0.012700X0.550000X0.650000X-0.550000X0.650000X-0.550000X-0.650000X0.550000X-0.650000X0*%
%ADD24RoundRect,0.012700X-0.400000X-0.500000X0.400000X-0.500000X0.400000X0.500000X-0.400000X0.500000X0*%
%ADD25RoundRect,0.012700X0.375000X0.470000X-0.375000X0.470000X-0.375000X-0.470000X0.375000X-0.470000X0*%
%ADD26RoundRect,0.012700X-1.150000X-3.200000X1.150000X-3.200000X1.150000X3.200000X-1.150000X3.200000X0*%
G04 APERTURE END LIST*
D10*
%TO.C,J1*%
X174050000Y-116890000D03*
X174050000Y-119430000D03*
X174050000Y-121970000D03*
X174050000Y-124510000D03*
%TD*%
D11*
%TO.C,R5*%
X166800000Y-90900000D03*
X165200000Y-90900000D03*
%TD*%
D10*
%TO.C,J5*%
X135950000Y-88950000D03*
X138490000Y-88950000D03*
X141030000Y-88950000D03*
X143570000Y-88950000D03*
X146110000Y-88950000D03*
X148650000Y-88950000D03*
X151190000Y-88950000D03*
X153730000Y-88950000D03*
X156270000Y-88950000D03*
X158810000Y-88950000D03*
X161350000Y-88950000D03*
X163890000Y-88950000D03*
X166430000Y-88950000D03*
X168970000Y-88950000D03*
X171510000Y-88950000D03*
X174050000Y-88950000D03*
%TD*%
D12*
%TO.C,C2*%
X142560000Y-99860000D03*
X142560000Y-98460000D03*
%TD*%
D13*
%TO.C,FB1*%
X171360000Y-116890000D03*
X169760000Y-116890000D03*
%TD*%
D14*
%TO.C,J6*%
X174080000Y-113060000D03*
X136160000Y-113060000D03*
X174080000Y-102900000D03*
X136160000Y-102900000D03*
%TD*%
D15*
%TO.C,TP*%
X159400000Y-112640000D03*
%TD*%
D16*
%TO.C,C10*%
X161130000Y-106495000D03*
X162530000Y-106495000D03*
%TD*%
D17*
%TO.C,IC1*%
X152048000Y-111710000D03*
X152048000Y-111210000D03*
X152048000Y-110710000D03*
X152048000Y-110210000D03*
X152048000Y-109710000D03*
X152048000Y-109210000D03*
X152048000Y-108710000D03*
X152048000Y-108210000D03*
X152048000Y-107710000D03*
X152048000Y-107210000D03*
X152048000Y-106710000D03*
X152048000Y-106210000D03*
X152048000Y-105710000D03*
X152048000Y-105210000D03*
X152048000Y-104710000D03*
X152048000Y-104210000D03*
D18*
X150060000Y-102222000D03*
X149560000Y-102222000D03*
X149060000Y-102222000D03*
X148560000Y-102222000D03*
X148060000Y-102222000D03*
X147560000Y-102222000D03*
X147060000Y-102222000D03*
X146560000Y-102222000D03*
X146060000Y-102222000D03*
X145560000Y-102222000D03*
X145060000Y-102222000D03*
X144560000Y-102222000D03*
X144060000Y-102222000D03*
X143560000Y-102222000D03*
X143060000Y-102222000D03*
X142560000Y-102222000D03*
D17*
X140572000Y-104210000D03*
X140572000Y-104710000D03*
X140572000Y-105210000D03*
X140572000Y-105710000D03*
X140572000Y-106210000D03*
X140572000Y-106710000D03*
X140572000Y-107210000D03*
X140572000Y-107710000D03*
X140572000Y-108210000D03*
X140572000Y-108710000D03*
X140572000Y-109210000D03*
X140572000Y-109710000D03*
X140572000Y-110210000D03*
X140572000Y-110710000D03*
X140572000Y-111210000D03*
X140572000Y-111710000D03*
D18*
X142560000Y-113698000D03*
X143060000Y-113698000D03*
X143560000Y-113698000D03*
X144060000Y-113698000D03*
X144560000Y-113698000D03*
X145060000Y-113698000D03*
X145560000Y-113698000D03*
X146060000Y-113698000D03*
X146560000Y-113698000D03*
X147060000Y-113698000D03*
X147560000Y-113698000D03*
X148060000Y-113698000D03*
X148560000Y-113698000D03*
X149060000Y-113698000D03*
X149560000Y-113698000D03*
X150060000Y-113698000D03*
%TD*%
D16*
%TO.C,C11*%
X161130000Y-109715000D03*
X162530000Y-109715000D03*
%TD*%
D10*
%TO.C,J7*%
X168970000Y-114350000D03*
X166430000Y-114350000D03*
X168970000Y-111810000D03*
X166430000Y-111810000D03*
X168970000Y-109270000D03*
X166430000Y-109270000D03*
X168970000Y-106730000D03*
X166430000Y-106730000D03*
X168970000Y-104190000D03*
X166430000Y-104190000D03*
X168970000Y-101650000D03*
X166430000Y-101650000D03*
%TD*%
%TO.C,J8*%
X135950000Y-116890000D03*
X135950000Y-119430000D03*
X135950000Y-121970000D03*
X135950000Y-124510000D03*
%TD*%
D19*
%TO.C,R2*%
X147910000Y-117360000D03*
X147910000Y-118960000D03*
%TD*%
D12*
%TO.C,C3*%
X149060000Y-99860000D03*
X149060000Y-98460000D03*
%TD*%
D20*
%TO.C,Y2*%
X156920000Y-115210000D03*
X156920000Y-112660000D03*
%TD*%
D15*
%TO.C,TP*%
X159400000Y-109700000D03*
%TD*%
D10*
%TO.C,J4*%
X135950000Y-91490000D03*
X135950000Y-94030000D03*
X135950000Y-96570000D03*
X135950000Y-99110000D03*
%TD*%
D15*
%TO.C,TP*%
X159400000Y-106500000D03*
%TD*%
D16*
%TO.C,C12*%
X161130000Y-112660000D03*
X162530000Y-112660000D03*
%TD*%
D10*
%TO.C,J2*%
X135950000Y-127050000D03*
X138490000Y-127050000D03*
X141030000Y-127050000D03*
X143570000Y-127050000D03*
X146110000Y-127050000D03*
X148650000Y-127050000D03*
X151190000Y-127050000D03*
X153730000Y-127050000D03*
X156270000Y-127050000D03*
X158810000Y-127050000D03*
X161350000Y-127050000D03*
X163890000Y-127050000D03*
X166430000Y-127050000D03*
X168970000Y-127050000D03*
X171510000Y-127050000D03*
X174050000Y-127050000D03*
%TD*%
D15*
%TO.C,TP*%
X159400000Y-115200000D03*
%TD*%
D21*
%TO.C,LED1*%
X144920000Y-122880000D03*
X144920000Y-121380000D03*
%TD*%
D11*
%TO.C,R3*%
X154150000Y-120920000D03*
X152550000Y-120920000D03*
%TD*%
D16*
%TO.C,C8*%
X158070000Y-102750000D03*
X159470000Y-102750000D03*
%TD*%
%TO.C,C5*%
X155070000Y-102750000D03*
X156470000Y-102750000D03*
%TD*%
D22*
%TO.C,IC2*%
X162476500Y-95360000D03*
X162476500Y-96630000D03*
X162476500Y-97900000D03*
X162476500Y-99170000D03*
X169540500Y-99170000D03*
X169540500Y-97900000D03*
X169540500Y-96630000D03*
X169540500Y-95360000D03*
%TD*%
D23*
%TO.C,Y1*%
X157410000Y-109720000D03*
X157410000Y-107420000D03*
X155510000Y-107420000D03*
X155510000Y-109720000D03*
%TD*%
D16*
%TO.C,C7*%
X158070000Y-100950000D03*
X159470000Y-100950000D03*
%TD*%
%TO.C,C1*%
X169760000Y-119430000D03*
X171160000Y-119430000D03*
%TD*%
%TO.C,C6*%
X155070000Y-100950000D03*
X156470000Y-100950000D03*
%TD*%
D10*
%TO.C,J3*%
X174050000Y-99110000D03*
X174050000Y-96570000D03*
X174050000Y-94030000D03*
X174050000Y-91490000D03*
%TD*%
D19*
%TO.C,R1*%
X144910000Y-117360000D03*
X144910000Y-118960000D03*
%TD*%
D24*
%TO.C,R4*%
X152550000Y-123610000D03*
X154150000Y-123610000D03*
%TD*%
D16*
%TO.C,C13*%
X161130000Y-115210000D03*
X162530000Y-115210000D03*
%TD*%
%TO.C,C4*%
X151150000Y-116000000D03*
X152550000Y-116000000D03*
%TD*%
%TO.C,C9*%
X155020000Y-105150000D03*
X156420000Y-105150000D03*
%TD*%
D21*
%TO.C,LED2*%
X147910000Y-122900000D03*
X147910000Y-121400000D03*
%TD*%
D25*
%TO.C,C14*%
X166700000Y-92535000D03*
X165300000Y-92535000D03*
%TD*%
D26*
%TO.C,C15*%
X160900000Y-121200000D03*
X165500000Y-121200000D03*
%TD*%
M02*
