M48
; DRILL file {KiCad (6.0.5)} date Thu Jun  9 17:33:21 2022
; FORMAT={-:-/ absolute / inch / decimal}
; #@! TF.CreationDate,2022-06-09T17:33:21-04:00
; #@! TF.GenerationSoftware,Kicad,Pcbnew,(6.0.5)
; #@! TF.FileFunction,MixedPlating,1,4
FMAT,2
INCH
; #@! TA.AperFunction,Plated,PTH,ViaDrill
T1C0.0100
; #@! TA.AperFunction,Plated,PTH,ComponentDrill
T2C0.0394
; #@! TA.AperFunction,Plated,PTH,ComponentDrill
T3C0.0858
%
G90
G05
T1
X5.4839Y-4.3622
X5.485Y-4.398
X5.5551Y-3.9315
X5.5909Y-4.2602
X5.6067Y-4.3193
X5.6126Y-3.8232
X5.6264Y-4.2799
X5.6323Y-3.9728
X5.6461Y-4.2996
X5.6622Y-4.8378
X5.6657Y-4.339
X5.7134Y-4.1067
X5.7134Y-4.1461
X5.7417Y-4.1067
X5.7504Y-4.4079
X5.7622Y-4.1461
X5.7839Y-4.3524
X5.8035Y-4.5417
X5.8169Y-3.9315
X5.835Y-4.2484
X5.835Y-4.2909
X5.835Y-4.3335
X5.835Y-4.376
X5.8469Y-4.5575
X5.8602Y-4.8386
X5.8626Y-4.2484
X5.8626Y-4.2909
X5.8626Y-4.3335
X5.8626Y-4.376
X5.8685Y-3.8232
X5.8685Y-4.1067
X5.8882Y-3.9689
X5.8882Y-4.5346
X5.9079Y-4.1067
X5.9488Y-4.6173
X5.9567Y-4.8665
X5.9661Y-4.7606
X6.0043Y-4.6169
X6.0433Y-4.2209
X6.063Y-4.1535
X6.063Y-4.2012
X6.0827Y-4.3197
X6.1051Y-3.6417
X6.1051Y-4.0925
X6.1602Y-3.935
X6.1602Y-4.0925
X6.2193Y-4.1398
X6.2232Y-4.0925
X6.2406Y-4.2291
X6.3177Y-3.9744
X6.3177Y-4.0453
X6.339Y-3.8043
X6.3394Y-3.8543
X6.3394Y-3.9039
X6.4382Y-4.1927
X6.4382Y-4.3195
X6.4382Y-4.435
X6.4382Y-4.5354
X6.6378Y-4.7717
X6.6835Y-4.6528
X6.7326Y-3.7545
X6.7326Y-3.8043
X6.7326Y-3.8543
X6.7326Y-3.9043
X6.7669Y-4.902
X6.7878Y-4.802
T2
X5.3524Y-3.502
X5.3524Y-3.602
X5.3524Y-3.702
X5.3524Y-3.802
X5.3524Y-3.902
X5.3524Y-4.602
X5.3524Y-4.702
X5.3524Y-4.802
X5.3524Y-4.902
X5.3524Y-5.002
X5.4524Y-3.502
X5.4524Y-5.002
X5.5524Y-3.502
X5.5524Y-5.002
X5.6524Y-3.502
X5.6524Y-5.002
X5.7524Y-3.502
X5.7524Y-5.002
X5.8524Y-3.502
X5.8524Y-5.002
X5.9524Y-3.502
X5.9524Y-5.002
X6.0524Y-3.502
X6.0524Y-5.002
X6.1524Y-3.502
X6.1524Y-5.002
X6.2524Y-3.502
X6.2524Y-5.002
X6.3524Y-3.502
X6.3524Y-5.002
X6.4524Y-3.502
X6.4524Y-5.002
X6.5524Y-3.502
X6.5524Y-4.002
X6.5524Y-4.102
X6.5524Y-4.202
X6.5524Y-4.302
X6.5524Y-4.402
X6.5524Y-4.502
X6.5524Y-5.002
X6.6524Y-3.502
X6.6524Y-4.002
X6.6524Y-4.102
X6.6524Y-4.202
X6.6524Y-4.302
X6.6524Y-4.402
X6.6524Y-4.502
X6.6524Y-5.002
X6.7524Y-3.502
X6.7524Y-5.002
X6.8524Y-3.502
X6.8524Y-3.602
X6.8524Y-3.702
X6.8524Y-3.802
X6.8524Y-3.902
X6.8524Y-4.602
X6.8524Y-4.702
X6.8524Y-4.802
X6.8524Y-4.902
X6.8524Y-5.002
T3
X5.3606Y-4.0512
X5.3606Y-4.4512
X6.8535Y-4.0512
X6.8535Y-4.4512
T0
M30
