%TF.GenerationSoftware,KiCad,Pcbnew,(6.0.5)*%
%TF.CreationDate,2022-06-16T15:32:05-04:00*%
%TF.ProjectId,pq-cdh,70712d63-6468-42e6-9b69-6361645f7063,V0.2.0*%
%TF.SameCoordinates,Original*%
%TF.FileFunction,Copper,L4,Bot*%
%TF.FilePolarity,Positive*%
%FSLAX46Y46*%
G04 Gerber Fmt 4.6, Leading zero omitted, Abs format (unit mm)*
G04 Created by KiCad (PCBNEW (6.0.5)) date 2022-06-16 15:32:05*
%MOMM*%
%LPD*%
G01*
G04 APERTURE LIST*
%TA.AperFunction,NonConductor*%
%ADD10C,0.200000*%
%TD*%
%TA.AperFunction,ComponentPad*%
%ADD11C,1.540000*%
%TD*%
%TA.AperFunction,ComponentPad*%
%ADD12C,2.540000*%
%TD*%
%TA.AperFunction,ViaPad*%
%ADD13C,0.457200*%
%TD*%
%TA.AperFunction,Conductor*%
%ADD14C,0.127000*%
%TD*%
G04 APERTURE END LIST*
D10*
X136000001Y-113100000D02*
G75*
G03*
X136000001Y-113100000I-1J0D01*
G01*
X136000001Y-113100000D02*
G75*
G03*
X136000001Y-113100000I-1J0D01*
G01*
D11*
%TO.P,J1,1,Pin_1*%
%TO.N,VDD*%
X174050000Y-116890000D03*
%TO.P,J1,2,Pin_2*%
%TO.N,GND*%
X174050000Y-119430000D03*
%TO.P,J1,3,Pin_3*%
%TO.N,/SWDIO*%
X174050000Y-121970000D03*
%TO.P,J1,4,Pin_4*%
%TO.N,/SWCLK*%
X174050000Y-124510000D03*
%TD*%
%TO.P,J5,1,Pin_1*%
%TO.N,unconnected-(J5-Pad1)*%
X135950000Y-88950000D03*
%TO.P,J5,2,Pin_2*%
%TO.N,unconnected-(J5-Pad2)*%
X138490000Y-88950000D03*
%TO.P,J5,3,Pin_3*%
%TO.N,GND*%
X141030000Y-88950000D03*
%TO.P,J5,4,Pin_4*%
%TO.N,unconnected-(J5-Pad4)*%
X143570000Y-88950000D03*
%TO.P,J5,5,Pin_5*%
%TO.N,unconnected-(J5-Pad5)*%
X146110000Y-88950000D03*
%TO.P,J5,6,Pin_6*%
%TO.N,unconnected-(J5-Pad6)*%
X148650000Y-88950000D03*
%TO.P,J5,7,Pin_7*%
%TO.N,/NRST*%
X151190000Y-88950000D03*
%TO.P,J5,8,Pin_8*%
%TO.N,/USART1_CK*%
X153730000Y-88950000D03*
%TO.P,J5,9,Pin_9*%
%TO.N,/USART1_CTS*%
X156270000Y-88950000D03*
%TO.P,J5,10,Pin_10*%
%TO.N,/USART1_TX*%
X158810000Y-88950000D03*
%TO.P,J5,11,Pin_11*%
%TO.N,/USART1_RX*%
X161350000Y-88950000D03*
%TO.P,J5,12,Pin_12*%
%TO.N,/USART1_RTS*%
X163890000Y-88950000D03*
%TO.P,J5,13,Pin_13*%
%TO.N,unconnected-(J5-Pad13)*%
X166430000Y-88950000D03*
%TO.P,J5,14,Pin_14*%
%TO.N,unconnected-(J5-Pad14)*%
X168970000Y-88950000D03*
%TO.P,J5,15,Pin_15*%
%TO.N,unconnected-(J5-Pad15)*%
X171510000Y-88950000D03*
%TO.P,J5,16,Pin_16*%
%TO.N,unconnected-(J5-Pad16)*%
X174050000Y-88950000D03*
%TD*%
D12*
%TO.P,J6,1,Pin_1*%
%TO.N,GND*%
X174080000Y-113060000D03*
%TO.P,J6,2,Pin_2*%
X136160000Y-113060000D03*
%TO.P,J6,3,Pin_3*%
X174080000Y-102900000D03*
%TO.P,J6,4,Pin_4*%
X136160000Y-102900000D03*
%TD*%
D11*
%TO.P,J7,1,Pin_1*%
%TO.N,/DCMI_D0*%
X168970000Y-114350000D03*
%TO.P,J7,2,Pin_2*%
%TO.N,/DCMI_D1*%
X166430000Y-114350000D03*
%TO.P,J7,3,Pin_3*%
%TO.N,/DCMI_D2*%
X168970000Y-111810000D03*
%TO.P,J7,4,Pin_4*%
%TO.N,/DCMI_D3*%
X166430000Y-111810000D03*
%TO.P,J7,5,Pin_5*%
%TO.N,/DCMI_D4*%
X168970000Y-109270000D03*
%TO.P,J7,6,Pin_6*%
%TO.N,/DCMI_D5*%
X166430000Y-109270000D03*
%TO.P,J7,7,Pin_7*%
%TO.N,/DCMI_D6*%
X168970000Y-106730000D03*
%TO.P,J7,8,Pin_8*%
%TO.N,/DCMI_D7*%
X166430000Y-106730000D03*
%TO.P,J7,9,Pin_9*%
%TO.N,unconnected-(J7-Pad9)*%
X168970000Y-104190000D03*
%TO.P,J7,10,Pin_10*%
%TO.N,/DCMI_PIXCLK*%
X166430000Y-104190000D03*
%TO.P,J7,11,Pin_11*%
%TO.N,/DCMI_HSYNC*%
X168970000Y-101650000D03*
%TO.P,J7,12,Pin_12*%
%TO.N,/DCMI_VSYNC*%
X166430000Y-101650000D03*
%TD*%
%TO.P,J8,1,Pin_1*%
%TO.N,unconnected-(J8-Pad1)*%
X135950000Y-116890000D03*
%TO.P,J8,2,Pin_2*%
%TO.N,GND*%
X135950000Y-119430000D03*
%TO.P,J8,3,Pin_3*%
%TO.N,unconnected-(J8-Pad3)*%
X135950000Y-121970000D03*
%TO.P,J8,4,Pin_4*%
%TO.N,unconnected-(J8-Pad4)*%
X135950000Y-124510000D03*
%TD*%
%TO.P,J4,1,Pin_1*%
%TO.N,unconnected-(J4-Pad1)*%
X135950000Y-91490000D03*
%TO.P,J4,2,Pin_2*%
%TO.N,unconnected-(J4-Pad2)*%
X135950000Y-94030000D03*
%TO.P,J4,3,Pin_3*%
%TO.N,GND*%
X135950000Y-96570000D03*
%TO.P,J4,4,Pin_4*%
%TO.N,unconnected-(J4-Pad4)*%
X135950000Y-99110000D03*
%TD*%
%TO.P,J2,1,Pin_1*%
%TO.N,/SDA3*%
X135950000Y-127050000D03*
%TO.P,J2,2,Pin_2*%
%TO.N,/SCL3*%
X138490000Y-127050000D03*
%TO.P,J2,3,Pin_3*%
%TO.N,/AIN16*%
X141030000Y-127050000D03*
%TO.P,J2,4,Pin_4*%
%TO.N,/IO3*%
X143570000Y-127050000D03*
%TO.P,J2,5,Pin_5*%
%TO.N,/IO4*%
X146110000Y-127050000D03*
%TO.P,J2,6,Pin_6*%
%TO.N,unconnected-(J2-Pad6)*%
X148650000Y-127050000D03*
%TO.P,J2,7,Pin_7*%
%TO.N,unconnected-(J2-Pad7)*%
X151190000Y-127050000D03*
%TO.P,J2,8,Pin_8*%
%TO.N,/BOOT0*%
X153730000Y-127050000D03*
%TO.P,J2,9,Pin_9*%
%TO.N,/LPUART_CTS*%
X156270000Y-127050000D03*
%TO.P,J2,10,Pin_10*%
%TO.N,/LPUART_TX*%
X158810000Y-127050000D03*
%TO.P,J2,11,Pin_11*%
%TO.N,/LPUART_RX*%
X161350000Y-127050000D03*
%TO.P,J2,12,Pin_12*%
%TO.N,/LPUART_RTS*%
X163890000Y-127050000D03*
%TO.P,J2,13,Pin_13*%
%TO.N,unconnected-(J2-Pad13)*%
X166430000Y-127050000D03*
%TO.P,J2,14,Pin_14*%
%TO.N,unconnected-(J2-Pad14)*%
X168970000Y-127050000D03*
%TO.P,J2,15,Pin_15*%
%TO.N,unconnected-(J2-Pad15)*%
X171510000Y-127050000D03*
%TO.P,J2,16,Pin_16*%
%TO.N,unconnected-(J2-Pad16)*%
X174050000Y-127050000D03*
%TD*%
%TO.P,J3,1,Pin_1*%
%TO.N,unconnected-(J3-Pad1)*%
X174050000Y-99110000D03*
%TO.P,J3,2,Pin_2*%
%TO.N,unconnected-(J3-Pad2)*%
X174050000Y-96570000D03*
%TO.P,J3,3,Pin_3*%
%TO.N,unconnected-(J3-Pad3)*%
X174050000Y-94030000D03*
%TO.P,J3,4,Pin_4*%
%TO.N,unconnected-(J3-Pad4)*%
X174050000Y-91490000D03*
%TD*%
D13*
%TO.N,GND*%
X161020000Y-99160000D03*
X160470000Y-102750000D03*
X149560000Y-100810000D03*
X154000000Y-105500000D03*
X149060000Y-97110000D03*
X139290000Y-110800000D03*
X156470000Y-103950000D03*
X163530000Y-115200000D03*
X154500000Y-109720000D03*
X168600000Y-121200000D03*
X158510000Y-107420000D03*
X163530000Y-106495000D03*
X143060000Y-100910000D03*
X149560000Y-115180000D03*
X163530000Y-109715000D03*
X157970000Y-105150000D03*
X148850000Y-122900000D03*
X160470000Y-100950000D03*
X151540000Y-120920000D03*
X152510000Y-117270000D03*
X143820000Y-122880000D03*
X156470000Y-99950000D03*
X163530000Y-112650000D03*
X142560000Y-97110000D03*
%TO.N,/USART1_RTS*%
X143910000Y-110210000D03*
%TO.N,/USART1_RX*%
X143410000Y-109210000D03*
%TO.N,/USART1_TX*%
X142910000Y-108710000D03*
%TO.N,/USART1_CTS*%
X142410000Y-109710000D03*
%TO.N,/USART1_CK*%
X142010000Y-108210000D03*
%TO.N,/NRST*%
X155070000Y-92500000D03*
X155070000Y-103950000D03*
%TO.N,/LPUART_RX*%
X145840000Y-104310000D03*
%TO.N,/LPUART_TX*%
X145120000Y-104310000D03*
%TO.N,/BOOT0*%
X151300000Y-123610000D03*
%TO.N,/SPI1_MISO*%
X161010000Y-96630000D03*
X147410000Y-115360000D03*
%TO.N,/IO1_WP*%
X153500000Y-107210000D03*
X161020000Y-97900000D03*
%TO.N,/SPI1_MOSI*%
X148510000Y-115760000D03*
X171008500Y-99170000D03*
%TO.N,/SPI1_SCK*%
X146060000Y-111960000D03*
X171008500Y-97900000D03*
%TO.N,/VDD_FILT*%
X147750000Y-99860000D03*
X171008500Y-95365000D03*
X151100000Y-117280000D03*
X169760000Y-118180000D03*
X141100000Y-99860000D03*
X139320000Y-111710000D03*
X158070000Y-103950000D03*
%TO.N,/IO2_HR*%
X154000000Y-106710000D03*
X171008500Y-96630000D03*
%TO.N,/DCMI_HSYNC*%
X150060000Y-104310000D03*
%TO.N,/DCMI_PIXCLK*%
X149060000Y-104310000D03*
%TO.N,/SCL3*%
X142470000Y-124560000D03*
%TO.N,/DCMI_D0*%
X148810000Y-111160000D03*
%TO.N,/DCMI_D1*%
X148110000Y-111160000D03*
%TO.N,/DCMI_D2*%
X148810000Y-110080000D03*
%TO.N,/DCMI_D3*%
X148110000Y-110080000D03*
%TO.N,/SDA3*%
X142520000Y-123530000D03*
%TO.N,/DCMI_D4*%
X148810000Y-109000000D03*
%TO.N,/LPUART_RTS*%
X146360000Y-105310000D03*
%TO.N,/DCMI_D5*%
X148110000Y-109000000D03*
%TO.N,/DCMI_VSYNC*%
X146910000Y-110550000D03*
%TO.N,/DCMI_D6*%
X148810000Y-107920000D03*
%TO.N,/DCMI_D7*%
X148110000Y-107920000D03*
%TO.N,/LPUART_CTS*%
X145120000Y-105310000D03*
%TO.N,/IO3*%
X143060000Y-115080000D03*
%TO.N,/IO4*%
X145060000Y-115100000D03*
%TD*%
D14*
%TO.N,/USART1_RTS*%
X163890000Y-88950000D02*
X161620560Y-91219440D01*
X144649772Y-103950228D02*
X144495141Y-104104859D01*
X151080297Y-92070297D02*
X144649772Y-98519772D01*
X161620560Y-91219440D02*
X152420560Y-91219440D01*
X144495141Y-109624859D02*
X143910000Y-110210000D01*
X144649772Y-98519772D02*
X144649772Y-103950228D01*
X151080297Y-92070297D02*
X151931154Y-91219440D01*
X144495141Y-104104859D02*
X144495141Y-109624859D01*
X151931154Y-91219440D02*
X152420560Y-91219440D01*
%TO.N,/USART1_RX*%
X153015000Y-90895000D02*
X159405000Y-90895000D01*
X151895506Y-90895000D02*
X153015000Y-90895000D01*
X144396199Y-98394307D02*
X151895506Y-90895000D01*
X143410000Y-109210000D02*
X144241621Y-108378379D01*
X144241621Y-108378379D02*
X144241621Y-103844631D01*
X161350000Y-88950000D02*
X159405000Y-90895000D01*
X144241621Y-103844631D02*
X144396199Y-103690053D01*
X144396199Y-103690053D02*
X144396199Y-98394307D01*
%TO.N,/USART1_TX*%
X143987121Y-104817121D02*
X143987121Y-107632879D01*
X143986631Y-103626048D02*
X143986631Y-104816631D01*
X144320641Y-98110641D02*
X144142679Y-98288603D01*
X158810000Y-88950000D02*
X157126543Y-90633457D01*
X143986631Y-104816631D02*
X143987121Y-104817121D01*
X151695641Y-90735641D02*
X144320641Y-98110641D01*
X144142679Y-103470000D02*
X143986631Y-103626048D01*
X143987121Y-107632879D02*
X142910000Y-108710000D01*
X151797825Y-90633457D02*
X151695641Y-90735641D01*
X157126543Y-90633457D02*
X151797825Y-90633457D01*
X144142679Y-98288603D02*
X144142679Y-103470000D01*
%TO.N,/USART1_CTS*%
X143733111Y-107216889D02*
X143733111Y-103476889D01*
X143733111Y-103476889D02*
X143742270Y-103476889D01*
X142410000Y-109710000D02*
X142410000Y-108540000D01*
X143889159Y-98182899D02*
X151732121Y-90339937D01*
X151732121Y-90339937D02*
X154880063Y-90339937D01*
X143742270Y-103476889D02*
X143889159Y-103330000D01*
X142410000Y-108540000D02*
X143733111Y-107216889D01*
X143889159Y-103330000D02*
X143889159Y-98182899D01*
X154880063Y-90339937D02*
X156270000Y-88950000D01*
%TO.N,/USART1_CK*%
X152593583Y-90086417D02*
X152645000Y-90035000D01*
X151626417Y-90086417D02*
X152593583Y-90086417D01*
X143479101Y-106740899D02*
X142010000Y-108210000D01*
X143628100Y-103223369D02*
X143479101Y-103372368D01*
X143628100Y-98084734D02*
X143628100Y-103223369D01*
X143479101Y-103372368D02*
X143479101Y-106740899D01*
X151626417Y-90086417D02*
X143666417Y-98046417D01*
X153730000Y-88950000D02*
X152645000Y-90035000D01*
%TO.N,/NRST*%
X155070000Y-92500000D02*
X155070000Y-103950000D01*
%TO.N,/LPUART_RX*%
X150816480Y-119046480D02*
X148637040Y-116867040D01*
X145255701Y-112174232D02*
X145255701Y-106350000D01*
X146312960Y-115730023D02*
X146312960Y-113231491D01*
X145840000Y-105765701D02*
X145840000Y-104310000D01*
X145255701Y-106350000D02*
X145840000Y-105765701D01*
X148637040Y-116867040D02*
X147449976Y-116867040D01*
X147449976Y-116867040D02*
X146312960Y-115730023D01*
X146312960Y-113231491D02*
X145255701Y-112174232D01*
X150816480Y-121226479D02*
X150816480Y-119046480D01*
X161350000Y-127050000D02*
X159690000Y-125390000D01*
X154980001Y-125390000D02*
X150816480Y-121226479D01*
X159690000Y-125390000D02*
X154980001Y-125390000D01*
%TO.N,/LPUART_TX*%
X157403520Y-125643520D02*
X154874989Y-125643520D01*
X146059440Y-115835034D02*
X146059440Y-113336503D01*
X150562960Y-121331491D02*
X150562960Y-119302960D01*
X145580000Y-105512181D02*
X145580000Y-104770000D01*
X148380560Y-117120560D02*
X147344964Y-117120560D01*
X145580000Y-104770000D02*
X145120000Y-104310000D01*
X154874989Y-125643520D02*
X150562960Y-121331491D01*
X150562960Y-119302960D02*
X148380560Y-117120560D01*
X145002181Y-112279243D02*
X145002181Y-106090000D01*
X146059440Y-113336503D02*
X145002181Y-112279243D01*
X145002181Y-106090000D02*
X145580000Y-105512181D01*
X147344964Y-117120560D02*
X146059440Y-115835034D01*
X158810000Y-127050000D02*
X157403520Y-125643520D01*
%TO.N,/BOOT0*%
X151300000Y-123610000D02*
X151300000Y-124620000D01*
X151300000Y-124620000D02*
X153730000Y-127050000D01*
%TO.N,/SPI1_MISO*%
X156010000Y-91980000D02*
X160660000Y-96630000D01*
X146269781Y-110839781D02*
X146269781Y-107610219D01*
X146269781Y-107610219D02*
X148480000Y-105400000D01*
X147410000Y-115360000D02*
X147410000Y-111980000D01*
X147410000Y-111980000D02*
X146269781Y-110839781D01*
X152438532Y-91980000D02*
X156010000Y-91980000D01*
X148480000Y-95938532D02*
X152438532Y-91980000D01*
X148480000Y-105400000D02*
X148480000Y-95938532D01*
X160660000Y-96630000D02*
X161010000Y-96630000D01*
%TO.N,/IO1_WP*%
X160785000Y-98135000D02*
X157545000Y-98135000D01*
X157070000Y-98610000D02*
X157070000Y-105630000D01*
X157545000Y-98135000D02*
X157070000Y-98610000D01*
X157070000Y-105630000D02*
X156550000Y-106150000D01*
X156550000Y-106150000D02*
X153870000Y-106150000D01*
X153870000Y-106150000D02*
X153500000Y-106520000D01*
X161020000Y-97900000D02*
X160785000Y-98135000D01*
X153500000Y-106520000D02*
X153500000Y-107210000D01*
%TO.N,/SPI1_MOSI*%
X171008500Y-99170000D02*
X171008500Y-98678500D01*
X152333520Y-91726480D02*
X147173520Y-96886480D01*
X146016261Y-106742271D02*
X146016261Y-110996261D01*
X171008500Y-98678500D02*
X164056480Y-91726480D01*
X146016261Y-110996261D02*
X146820000Y-111800000D01*
X146820000Y-115520000D02*
X147390000Y-116090000D01*
X164056480Y-91726480D02*
X152333520Y-91726480D01*
X148180000Y-116090000D02*
X148510000Y-115760000D01*
X147173520Y-105585012D02*
X146016261Y-106742271D01*
X147390000Y-116090000D02*
X148180000Y-116090000D01*
X146820000Y-111800000D02*
X146820000Y-115520000D01*
X147173520Y-96886480D02*
X147173520Y-105585012D01*
%TO.N,/SPI1_SCK*%
X146920000Y-105480000D02*
X145762741Y-106637259D01*
X146920000Y-96650000D02*
X152097040Y-91472960D01*
X152097040Y-91472960D02*
X152877040Y-91472960D01*
X171008500Y-97900000D02*
X171008500Y-97865000D01*
X146920000Y-96650000D02*
X146920000Y-105480000D01*
X171008500Y-97865000D02*
X164616460Y-91472960D01*
X164616460Y-91472960D02*
X152877040Y-91472960D01*
X145762741Y-106637259D02*
X145762741Y-111662741D01*
X145762741Y-111662741D02*
X146060000Y-111960000D01*
%TO.N,/IO2_HR*%
X154000000Y-106710000D02*
X154306480Y-106403520D01*
X172038500Y-99261500D02*
X172038500Y-97660000D01*
X157835000Y-99815000D02*
X171485000Y-99815000D01*
X154306480Y-106403520D02*
X156733520Y-106403520D01*
X172038500Y-97660000D02*
X171008500Y-96630000D01*
X156740000Y-106410000D02*
X157420000Y-105730000D01*
X171485000Y-99815000D02*
X172038500Y-99261500D01*
X157420000Y-100230000D02*
X157835000Y-99815000D01*
X157420000Y-105730000D02*
X157420000Y-100230000D01*
X156733520Y-106403520D02*
X156740000Y-106410000D01*
%TO.N,/DCMI_HSYNC*%
X150060000Y-104310000D02*
X150060000Y-105810000D01*
X158863520Y-108136480D02*
X160100000Y-106900000D01*
X167845000Y-100500000D02*
X168995000Y-101650000D01*
X160100000Y-104000000D02*
X163600000Y-100500000D01*
X163600000Y-100500000D02*
X167845000Y-100500000D01*
X152386480Y-108136480D02*
X158863520Y-108136480D01*
X150060000Y-105810000D02*
X152386480Y-108136480D01*
X160100000Y-106900000D02*
X160100000Y-104000000D01*
%TO.N,/DCMI_PIXCLK*%
X149662064Y-105835000D02*
X149085000Y-105835000D01*
X149060000Y-105810000D02*
X149060000Y-104310000D01*
X162630000Y-108400000D02*
X152227064Y-108400000D01*
X149085000Y-105835000D02*
X149060000Y-105810000D01*
X166455000Y-104575000D02*
X162630000Y-108400000D01*
X166455000Y-104190000D02*
X166455000Y-104575000D01*
X152227064Y-108400000D02*
X149662064Y-105835000D01*
%TO.N,/SCL3*%
X140980000Y-124560000D02*
X138490000Y-127050000D01*
X142470000Y-124560000D02*
X140980000Y-124560000D01*
%TO.N,/DCMI_D0*%
X168995000Y-114805000D02*
X168995000Y-114350000D01*
X167290000Y-116510000D02*
X168995000Y-114805000D01*
X148810000Y-111160000D02*
X154160000Y-116510000D01*
X154160000Y-116510000D02*
X167290000Y-116510000D01*
%TO.N,/DCMI_D1*%
X164925000Y-114875000D02*
X164450000Y-114400000D01*
X150735000Y-111575000D02*
X149770000Y-110610000D01*
X166455000Y-114350000D02*
X165930000Y-114875000D01*
X149770000Y-110610000D02*
X148660000Y-110610000D01*
X164450000Y-114400000D02*
X164450000Y-112460000D01*
X163565000Y-111575000D02*
X150735000Y-111575000D01*
X165930000Y-114875000D02*
X164925000Y-114875000D01*
X164450000Y-112460000D02*
X163565000Y-111575000D01*
X148660000Y-110610000D02*
X148110000Y-111160000D01*
%TO.N,/DCMI_D2*%
X149680000Y-110070000D02*
X148910000Y-110070000D01*
X165273520Y-112783520D02*
X163750000Y-111260000D01*
X150870000Y-111260000D02*
X149680000Y-110070000D01*
X165273520Y-112783520D02*
X165283520Y-112783520D01*
X165283520Y-112783520D02*
X165700000Y-113200000D01*
X167605000Y-113200000D02*
X168995000Y-111810000D01*
X165700000Y-113200000D02*
X167605000Y-113200000D01*
X163750000Y-111260000D02*
X150870000Y-111260000D01*
%TO.N,/DCMI_D3*%
X166455000Y-111810000D02*
X165651480Y-111006480D01*
X149700000Y-109610000D02*
X148580000Y-109610000D01*
X148580000Y-109610000D02*
X148110000Y-110080000D01*
X165651480Y-111006480D02*
X151096480Y-111006480D01*
X151096480Y-111006480D02*
X149700000Y-109610000D01*
%TO.N,/SDA3*%
X142520000Y-123530000D02*
X139470000Y-123530000D01*
X139470000Y-123530000D02*
X135950000Y-127050000D01*
%TO.N,/DCMI_D4*%
X167512040Y-110752960D02*
X168995000Y-109270000D01*
X149660000Y-108990000D02*
X148910000Y-108990000D01*
X164847040Y-110752960D02*
X151422960Y-110752960D01*
X151422960Y-110752960D02*
X149660000Y-108990000D01*
X164847040Y-110752960D02*
X167512040Y-110752960D01*
%TO.N,/LPUART_RTS*%
X163890000Y-127050000D02*
X161890000Y-125050000D01*
X161890000Y-125050000D02*
X154998532Y-125050000D01*
X151070000Y-121121468D02*
X151070000Y-118880000D01*
X145509221Y-112069221D02*
X146566480Y-113126480D01*
X154998532Y-125050000D02*
X151070000Y-121121468D01*
X151070000Y-118880000D02*
X148803520Y-116613520D01*
X146566480Y-113126480D02*
X146566480Y-115625012D01*
X145509221Y-106455012D02*
X146360000Y-105604233D01*
X145509221Y-106455012D02*
X145509221Y-112069221D01*
X146360000Y-105604233D02*
X146360000Y-105310000D01*
X146566480Y-115625012D02*
X147554988Y-116613520D01*
X148803520Y-116613520D02*
X147554988Y-116613520D01*
%TO.N,/DCMI_D5*%
X149700000Y-108380000D02*
X151670000Y-110350000D01*
X165375000Y-110350000D02*
X166455000Y-109270000D01*
X151670000Y-110350000D02*
X164650000Y-110350000D01*
X148210000Y-108380000D02*
X149700000Y-108380000D01*
X148210000Y-108990000D02*
X148210000Y-108380000D01*
X164650000Y-110350000D02*
X165375000Y-110350000D01*
%TO.N,/DCMI_VSYNC*%
X167700000Y-104922640D02*
X167122640Y-105500000D01*
X166455000Y-101650000D02*
X167700000Y-102895000D01*
X167700000Y-102895000D02*
X167700000Y-104922640D01*
X162837040Y-108662960D02*
X152131492Y-108662960D01*
X146910000Y-107580000D02*
X146910000Y-110550000D01*
X150138532Y-106670000D02*
X147820000Y-106670000D01*
X166000000Y-105500000D02*
X162837040Y-108662960D01*
X152131492Y-108662960D02*
X150138532Y-106670000D01*
X167122640Y-105500000D02*
X166000000Y-105500000D01*
X147820000Y-106670000D02*
X146910000Y-107580000D01*
%TO.N,/DCMI_D6*%
X164117064Y-108100000D02*
X167625000Y-108100000D01*
X148810000Y-107920000D02*
X150080000Y-107920000D01*
X167625000Y-108100000D02*
X168995000Y-106730000D01*
X151330000Y-109170000D02*
X163047064Y-109170000D01*
X163047064Y-109170000D02*
X164117064Y-108100000D01*
X150080000Y-107920000D02*
X151330000Y-109170000D01*
%TO.N,/DCMI_D7*%
X166455000Y-106730000D02*
X165128532Y-106730000D01*
X152026480Y-108916480D02*
X150050000Y-106940000D01*
X150050000Y-106940000D02*
X148240000Y-106940000D01*
X162942052Y-108916480D02*
X152026480Y-108916480D01*
X148240000Y-106940000D02*
X148110000Y-107070000D01*
X148110000Y-107070000D02*
X148110000Y-107920000D01*
X165128532Y-106730000D02*
X162942052Y-108916480D01*
%TO.N,/LPUART_CTS*%
X150309440Y-119609440D02*
X148074080Y-117374080D01*
X154220000Y-125347063D02*
X150309440Y-121436502D01*
X144748661Y-112384254D02*
X144748661Y-105681339D01*
X145805920Y-115940045D02*
X145805920Y-113441515D01*
X154297040Y-125857040D02*
X154220000Y-125780000D01*
X148074080Y-117374080D02*
X147239952Y-117374080D01*
X155117040Y-125897040D02*
X154337040Y-125897040D01*
X150309440Y-121436502D02*
X150309440Y-119609440D01*
X156270000Y-127050000D02*
X155117040Y-125897040D01*
X154220000Y-125780000D02*
X154220000Y-125347063D01*
X154337040Y-125897040D02*
X154220000Y-125780000D01*
X145805920Y-113441515D02*
X144748661Y-112384254D01*
X144748661Y-105681339D02*
X145120000Y-105310000D01*
X147239952Y-117374080D02*
X145805920Y-115940045D01*
%TO.N,/IO3*%
X143040000Y-126520000D02*
X143570000Y-127050000D01*
X143040000Y-115100000D02*
X143040000Y-126520000D01*
X143060000Y-115080000D02*
X143040000Y-115100000D01*
%TO.N,/IO4*%
X145060000Y-115100000D02*
X145060000Y-126000000D01*
X145060000Y-126000000D02*
X146110000Y-127050000D01*
%TD*%
M02*
